#N canvas 495 97 851 648 10;
#X obj 206 43 inlet;
#X obj 506 43 inlet;
#X obj 206 71 sel 0;
#X obj 341 103 t b;
#X obj 417 61 f \$1;
#X obj 595 49 inlet;
#X obj 348 163 del \$2;
#X obj 371 473 line~;
#X obj 350 204 f \$4;
#X obj 657 47 inlet;
#X obj 721 48 inlet;
#X obj 782 46 inlet;
#X msg 206 102 stop;
#X text 503 24 level;
#X obj 360 275 * \$1;
#X obj 369 556 outlet~;
#X obj 351 241 * 0.01;
#X text 595 29 attack;
#X text 653 26 decay;
#X text 714 25 sustain;
#X text 780 24 release;
#X text 280 4 attack;
#X obj 282 25 moses;
#X obj 278 55 t b b;
#X msg 208 289 0;
#X text 505 8 peak;
#X text 359 184 DECAY;
#X obj 368 503 *~;
#X obj 368 527 *~;
#X text 742 538 by Miller Puckete;
#X text 745 558 modified by strangy;
#X text 202 18 trigger;
#X floatatom 68 97 5 0 0 0 A - -, f 5;
#X floatatom 116 99 5 0 0 0 D - -, f 5;
#X floatatom 158 124 5 0 100 0 S - -, f 5;
#X floatatom 199 162 5 0 0 0 R - -, f 5;
#X msg 62 290 0;
#X obj 63 258 moses 2;
#X obj 612 394 pack f \$5;
#X obj 370 421 pack f \$3;
#X obj 278 336 pack f \$2;
#X connect 0 0 2 0;
#X connect 1 0 4 1;
#X connect 1 0 14 1;
#X connect 2 0 12 0;
#X connect 2 0 38 0;
#X connect 2 1 22 0;
#X connect 3 0 4 0;
#X connect 3 0 6 0;
#X connect 4 0 40 0;
#X connect 5 0 37 0;
#X connect 6 0 8 0;
#X connect 7 0 27 0;
#X connect 7 0 27 1;
#X connect 8 0 16 0;
#X connect 9 0 39 1;
#X connect 10 0 8 1;
#X connect 11 0 38 1;
#X connect 12 0 6 0;
#X connect 14 0 39 0;
#X connect 16 0 14 0;
#X connect 22 0 23 0;
#X connect 22 1 3 0;
#X connect 23 0 3 0;
#X connect 23 1 24 0;
#X connect 24 0 7 0;
#X connect 27 0 28 0;
#X connect 27 0 28 1;
#X connect 28 0 15 0;
#X connect 32 0 37 0;
#X connect 33 0 39 1;
#X connect 34 0 8 1;
#X connect 35 0 38 1;
#X connect 36 0 6 1;
#X connect 36 0 40 1;
#X connect 37 0 36 0;
#X connect 37 1 6 1;
#X connect 37 1 40 1;
#X connect 38 0 7 0;
#X connect 39 0 7 0;
#X connect 40 0 7 0;
#X coords 0 648 1 647 60 80 0;
