#N canvas 235 53 1008 720 10;
#X obj 486 101 anivoice \$1 0;
#X obj 384 579 *~;
#X obj 423 475 line~;
#X obj 423 439 pack f 50;
#X obj 334 529 catch~ anivoice_\$1;
#X obj 193 46 inlet wavepos;
#X obj 474 375 r line_time;
#X obj 460 30 inlet level;
#X floatatom 85 488 5 0 0 0 - - -, f 5;
#X obj 84 458 mtof;
#X obj 407 769 outlet wavepos;
#X obj 723 747 outlet level;
#X obj 696 552 soundfiler;
#X floatatom 712 613 5 0 0 0 - - -, f 5;
#X obj 744 9 select 1 2 3 4 5 6 7 8 9 10 11 12 13 14 15;
#X obj 721 475 list append wave-\$1;
#X obj 721 503 list trim;
#X msg 959 166 read -resize VVDiodeSquare01.wav;
#X msg 958 133 read -resize GD1You.wav;
#X msg 962 201 read -resize VV80ResSaw01.wav;
#X msg 963 239 read -resize tinnitus_saw.wav;
#X msg 964 274 read -resize MMDOctaveSaws.wav;
#X msg 963 311 read -resize SynthBasic.wav;
#X msg 962 343 read -resize MMDFilterFMHiQ1.wav;
#X msg 962 376 read -resize VV80ResSaw01.wav;
#X msg 960 408 read -resize PulseWidthMod.wav;
#X msg 963 444 read -resize GDBassExtract.wav;
#X msg 963 479 read -resize VV80Pulse01.wav;
#X msg 959 517 read -resize VocoderSwp.wav;
#X msg 956 548 read -resize TunedNoise.wav;
#X msg 957 579 read -resize SrgeWavMul1VCO.wav;
#X msg 956 604 read -resize AC-WaterBubble.wav;
#X obj 56 26 inlet pitch;
#X obj 307 769 outlet pitch;
#X obj 405 413 pow 2.5;
#X obj -12 89 loadbang;
#X msg -21 260 1;
#X obj 86 530 +~;
#X obj -173 348 clip~ 0 1;
#X obj 85 508 sig~;
#X obj 86 569 send~ ani_freq-\$1;
#X obj -164 431 sig~;
#X obj -136 465 -~;
#X obj 108 347 str_link 1;
#X obj 283 384 str_link 2;
#X obj 84 421 line 5;
#X obj 85 397 pack f 50;
#X obj 167 374 r line_time;
#X obj 104 771 outlet~;
#X obj 104 738 *~, f 4;
#X obj 137 630 pan.mmb~;
#X obj 20 491 line~;
#X obj 167 770 outlet~;
#X obj 167 737 *~, f 4;
#X msg 199 331 0.5;
#X obj -2 333 str_link 3;
#X obj 559 767 outlet pan;
#X obj 329 30 inlet pan;
#X obj 395 220 r pan_reset;
#X obj 105 117 vsl 30 125 0 1 0 0 empty empty LVL 0 70 0 13 -104064
-262144 -262144 3335 1;
#X floatatom 103 302 5 0 0 0 - - -, f 5;
#X obj 144 116 vsl 30 80 0 15 0 0 empty empty POS 0 40 0 14 -237178
-1 -1 5535 1;
#X obj 140 301 tgl 15 0 empty empty lnk 17 7 0 10 -204786 -1 -1 0 1
;
#X floatatom 144 204 5 0 15 3 wave - -, f 5;
#X obj 139 234 tgl 15 0 empty empty link 17 7 0 10 -83071 -262144 -159808
0 1;
#X obj 106 273 hsl 50 15 0 1 0 0 empty empty PAN 16 8 0 10 -2112 -262144
-262144 2450 1;
#X obj 162 273 bng 15 250 50 0 empty empty c 4 7 0 10 -2112 -262144
-262144;
#X obj 139 255 tgl 15 0 empty empty lnk 17 7 0 10 -2112 -262144 -4160
0 1;
#X msg -1 211 7;
#X msg 38 189 0;
#X obj 396 167 r vol_mute;
#X msg 395 191 0;
#X obj 397 248 r freq_c;
#X msg 397 275 48;
#X text 437 279 reset note to midi 48 (ะก3);
#X text 274 133 reset links;
#X obj 245 192 r reset_links;
#X obj 5 400 r line_time;
#X obj -18 456 pack f 50;
#X obj -135 52 catch~ wavepos-aniosc-\$1;
#X obj -149 274 s wavepos-\$1;
#X obj -138 73 unsig~ 20;
#X obj -139 157 +;
#X obj -139 124 t b f;
#X obj -89 162 r line_time;
#X obj -138 207 line 20;
#X obj 597 101 anivoice \$1 1;
#X obj 700 99 anivoice \$1 2;
#X obj 799 98 anivoice \$1 3;
#X obj 486 125 anivoice \$1 4;
#X obj 597 124 anivoice \$1 5;
#X obj 700 122 anivoice \$1 6;
#X obj 800 123 anivoice \$1 7;
#X obj 486 151 anivoice \$1 8;
#X obj 597 149 anivoice \$1 9;
#X obj 701 149 anivoice \$1 10;
#X obj 804 149 anivoice \$1 11;
#X obj 485 173 anivoice \$1 12;
#X obj 596 174 anivoice \$1 13;
#X obj 702 173 anivoice \$1 14;
#X obj 804 174 anivoice \$1 15;
#X obj 20 540 +~;
#X obj -67 431 catch~ pan-aniosc-\$1;
#X obj -173 316 catch~ amp-aniosc-\$1;
#X obj 141 484 catch~ freq-aniosc-\$1;
#X obj -138 99 * 8;
#X obj -139 182 pack f 20;
#X obj -141 235 clip 0 15;
#X obj 453 304 store aniosc-wave-\$1;
#X obj 104 253 tgl 15 0 empty empty ctl 17 7 0 10 -262144 -1 -1 1 1
;
#X obj 50 65 spigot;
#X obj 174 60 spigot;
#X obj 305 75 spigot;
#X obj 402 79 spigot;
#X obj 511 343 store aniosc-ctl-\$1;
#X floatatom 329 303 5 0 0 0 - - -, f 5;
#X msg 351 379 set \$1;
#N canvas 58 529 1309 356 osc_receive 0;
#X obj 60 146 route control;
#X obj 59 168 route x;
#X floatatom 60 196 5 0 0 0 - - -, f 5;
#X obj 57 236 outlet control;
#X obj 696 45 route aniosc\$1;
#X obj 156 172 route x;
#X floatatom 157 200 5 0 0 0 - - -, f 5;
#X obj 158 239 outlet level;
#X obj 255 174 route x;
#X floatatom 256 202 5 0 0 0 - - -, f 5;
#X obj 257 241 outlet position;
#X floatatom 370 202 5 0 0 0 - - -, f 5;
#X obj 370 152 route wave;
#X obj 369 174 route selection;
#X obj 479 173 route x;
#X floatatom 480 201 5 0 0 0 - - -, f 5;
#X obj 480 151 route lvl_link;
#X obj 481 240 outlet lvl_link;
#X obj 615 172 route x;
#X obj 617 239 outlet pan;
#X obj 697 170 route x;
#X obj 698 148 route pan_link;
#X obj 699 237 outlet pan_link;
#X obj 818 166 route x;
#X obj 819 144 route pan_c;
#X obj 820 233 outlet pan_c;
#X obj 911 229 outlet freq;
#X obj 1011 163 route x;
#X obj 1012 141 route freq_link;
#X obj 1013 230 outlet freq_link;
#X obj 1126 165 route x;
#X obj 1127 143 route freq_c;
#X obj 1128 232 outlet freq_c;
#X obj 371 241 outlet wave;
#X obj 258 220 * 15;
#X obj 695 -4 r Instruments, f 56;
#X obj 157 150 osc-input level;
#X obj 256 152 osc-input position;
#X obj 600 150 osc-input pan;
#X obj 910 140 osc-input pitch;
#X connect 0 0 1 0;
#X connect 1 0 2 0;
#X connect 2 0 3 0;
#X connect 4 0 0 0;
#X connect 4 0 12 0;
#X connect 4 0 16 0;
#X connect 4 0 21 0;
#X connect 4 0 24 0;
#X connect 4 0 28 0;
#X connect 4 0 31 0;
#X connect 4 0 36 0;
#X connect 4 0 37 0;
#X connect 4 0 38 0;
#X connect 4 0 39 0;
#X connect 5 0 6 0;
#X connect 6 0 7 0;
#X connect 8 0 9 0;
#X connect 9 0 34 0;
#X connect 11 0 33 0;
#X connect 12 0 13 0;
#X connect 13 0 11 0;
#X connect 14 0 15 0;
#X connect 15 0 17 0;
#X connect 16 0 14 0;
#X connect 18 0 19 0;
#X connect 20 0 22 0;
#X connect 21 0 20 0;
#X connect 23 0 25 0;
#X connect 24 0 23 0;
#X connect 27 0 29 0;
#X connect 28 0 27 0;
#X connect 30 0 32 0;
#X connect 31 0 30 0;
#X connect 34 0 10 0;
#X connect 35 0 4 0;
#X connect 36 0 5 0;
#X connect 37 0 8 0;
#X connect 38 0 18 0;
#X connect 39 0 26 0;
#X restore -33 -41 pd osc_receive;
#N canvas 169 359 1324 639 osc_send 1;
#X obj 64 488 s send_gens;
#X obj 5 196 oscformat Instruments aniosc\$1 control x;
#X obj 23 43 inlet control;
#X obj 69 231 oscformat Instruments aniosc\$1 level x;
#X obj 225 261 oscformat Instruments aniosc\$1 position x;
#X obj 289 296 oscformat Instruments aniosc\$1 wave selection;
#X obj 171 148 / 15, f 5;
#X obj 407 191 oscformat Instruments aniosc\$1 lvl_link x;
#X obj 542 232 oscformat Instruments aniosc\$1 pan x;
#X obj 698 262 oscformat Instruments aniosc\$1 pan_link x;
#X obj 100 48 inlet level;
#X obj 190 44 inlet position;
#X obj 288 50 inlet wave;
#X obj 420 52 inlet lvl_link;
#X obj 510 83 inlet pan;
#X obj 606 56 inlet pan_link;
#X obj 799 53 inlet freq_link;
#X obj 945 350 oscformat Instruments aniosc\$1 freq_link x;
#X obj 762 296 oscformat Instruments aniosc\$1 freq.x;
#X obj 765 201 / 127;
#X obj 707 95 inlet pitch, f 30;
#X obj 55 130 osc-output level;
#X obj 169 95 osc-output position;
#X obj 510 138 osc-output pan;
#X obj 742 156 osc-output pitch;
#X connect 1 0 0 0;
#X connect 2 0 1 0;
#X connect 3 0 0 0;
#X connect 4 0 0 0;
#X connect 5 0 0 0;
#X connect 6 0 4 0;
#X connect 7 0 0 0;
#X connect 8 0 0 0;
#X connect 9 0 0 0;
#X connect 10 0 21 0;
#X connect 11 0 22 0;
#X connect 12 0 5 0;
#X connect 13 0 7 0;
#X connect 14 0 23 0;
#X connect 15 0 9 0;
#X connect 16 0 17 0;
#X connect 17 0 0 0;
#X connect 18 0 0 0;
#X connect 19 0 18 0;
#X connect 20 0 24 0;
#X connect 21 0 3 0;
#X connect 22 0 6 0;
#X connect 23 0 8 0;
#X connect 24 0 19 0;
#X restore -90 647 pd osc_send;
#X obj 276 -8 sel 1;
#X connect 1 0 50 0;
#X connect 2 0 1 1;
#X connect 3 0 2 0;
#X connect 4 0 1 0;
#X connect 5 0 111 0;
#X connect 6 0 3 1;
#X connect 7 0 113 0;
#X connect 8 0 39 0;
#X connect 9 0 8 0;
#X connect 12 0 13 0;
#X connect 14 0 18 0;
#X connect 14 1 17 0;
#X connect 14 2 19 0;
#X connect 14 3 20 0;
#X connect 14 4 21 0;
#X connect 14 5 22 0;
#X connect 14 6 23 0;
#X connect 14 7 24 0;
#X connect 14 8 25 0;
#X connect 14 9 26 0;
#X connect 14 10 27 0;
#X connect 14 11 28 0;
#X connect 14 12 29 0;
#X connect 14 13 30 0;
#X connect 14 14 31 0;
#X connect 15 0 16 0;
#X connect 16 0 12 0;
#X connect 17 0 15 0;
#X connect 18 0 15 0;
#X connect 19 0 15 0;
#X connect 20 0 15 0;
#X connect 21 0 15 0;
#X connect 22 0 15 0;
#X connect 23 0 15 0;
#X connect 24 0 15 0;
#X connect 25 0 15 0;
#X connect 26 0 15 0;
#X connect 27 0 15 0;
#X connect 28 0 15 0;
#X connect 29 0 15 0;
#X connect 30 0 15 0;
#X connect 31 0 15 0;
#X connect 32 0 110 0;
#X connect 34 0 3 0;
#X connect 35 0 68 0;
#X connect 35 0 36 0;
#X connect 35 0 66 0;
#X connect 35 0 69 0;
#X connect 36 0 41 0;
#X connect 36 0 109 0;
#X connect 37 0 40 0;
#X connect 38 0 42 1;
#X connect 39 0 37 0;
#X connect 41 0 42 0;
#X connect 42 0 49 1;
#X connect 42 0 53 1;
#X connect 43 0 33 0;
#X connect 43 0 46 0;
#X connect 43 0 118 7;
#X connect 43 1 60 0;
#X connect 43 2 62 0;
#X connect 44 0 34 0;
#X connect 44 0 11 0;
#X connect 44 0 118 1;
#X connect 44 1 59 0;
#X connect 44 2 64 0;
#X connect 45 0 9 0;
#X connect 46 0 45 0;
#X connect 47 0 46 1;
#X connect 49 0 48 0;
#X connect 50 0 49 0;
#X connect 50 1 53 0;
#X connect 51 0 101 1;
#X connect 53 0 52 0;
#X connect 54 0 65 0;
#X connect 55 0 56 0;
#X connect 55 0 78 0;
#X connect 55 0 118 5;
#X connect 55 1 65 0;
#X connect 55 2 67 0;
#X connect 57 0 112 0;
#X connect 58 0 66 0;
#X connect 59 0 44 0;
#X connect 60 0 43 0;
#X connect 61 0 10 0;
#X connect 61 0 82 0;
#X connect 61 0 118 2;
#X connect 62 0 43 1;
#X connect 62 0 118 8;
#X connect 63 0 14 0;
#X connect 63 0 108 0;
#X connect 63 0 118 3;
#X connect 64 0 44 1;
#X connect 64 0 118 4;
#X connect 65 0 55 0;
#X connect 66 0 54 0;
#X connect 67 0 55 1;
#X connect 67 0 118 6;
#X connect 68 0 63 0;
#X connect 69 0 61 0;
#X connect 70 0 71 0;
#X connect 71 0 59 0;
#X connect 72 0 73 0;
#X connect 73 0 60 0;
#X connect 76 0 64 0;
#X connect 76 0 67 0;
#X connect 76 0 62 0;
#X connect 77 0 78 1;
#X connect 78 0 51 0;
#X connect 79 0 81 0;
#X connect 81 0 105 0;
#X connect 82 0 106 0;
#X connect 83 0 82 0;
#X connect 83 1 82 1;
#X connect 84 0 106 1;
#X connect 85 0 107 0;
#X connect 101 0 50 1;
#X connect 102 0 101 0;
#X connect 103 0 38 0;
#X connect 104 0 37 1;
#X connect 105 0 83 0;
#X connect 106 0 85 0;
#X connect 107 0 80 0;
#X connect 108 0 63 0;
#X connect 109 0 115 0;
#X connect 110 0 60 0;
#X connect 111 0 61 0;
#X connect 112 0 65 0;
#X connect 113 0 59 0;
#X connect 114 0 115 0;
#X connect 115 0 114 0;
#X connect 115 0 110 1;
#X connect 115 0 111 1;
#X connect 115 0 112 1;
#X connect 115 0 113 1;
#X connect 115 0 116 0;
#X connect 115 0 118 0;
#X connect 116 0 109 0;
#X connect 117 0 109 0;
#X connect 117 1 59 0;
#X connect 117 2 61 0;
#X connect 117 3 63 0;
#X connect 117 4 64 0;
#X connect 117 5 65 0;
#X connect 117 6 67 0;
#X connect 117 8 60 0;
#X connect 117 9 62 0;
#X connect 117 10 119 0;
#X connect 119 0 73 0;
#X coords 0 -1 1 1 85 220 1 100 100;
