#N canvas 466 74 1008 720 10;
#X obj -122 128 s wavepos-\$1;
#X obj 486 101 anivoice \$1 0;
#X obj 163 612 *~;
#X obj 510 491 line~;
#X obj 510 455 pack f 50;
#X obj 346 519 catch~ anivoice_\$1;
#X obj 226 28 inlet wavepos;
#X obj 561 391 r line_time;
#X obj 460 30 inlet level;
#X floatatom 85 488 5 0 0 0 - - -, f 5;
#X obj 84 458 mtof;
#X obj 407 769 outlet wavepos;
#X obj 723 747 outlet level;
#X obj 696 552 soundfiler;
#X floatatom 712 613 5 0 0 0 - - -, f 5;
#X obj 682 22 select 1 2 3 4 5 6 7 8 9 10 11 12 13 14 15;
#X obj 721 475 list append wave-\$1;
#X obj 721 503 list trim;
#X msg 959 166 read -resize VVDiodeSquare01.wav;
#X msg 958 133 read -resize GD1You.wav;
#X msg 962 201 read -resize VV80ResSaw01.wav;
#X msg 963 239 read -resize tinnitus_saw.wav;
#X msg 964 274 read -resize MMDOctaveSaws.wav;
#X msg 963 311 read -resize SynthBasic.wav;
#X msg 962 343 read -resize MMDFilterFMHiQ1.wav;
#X msg 962 376 read -resize VV80ResSaw01.wav;
#X msg 960 408 read -resize PulseWidthMod.wav;
#X msg 963 444 read -resize GDBassExtract.wav;
#X msg 963 479 read -resize VV80Pulse01.wav;
#X msg 959 517 read -resize VocoderSwp.wav;
#X msg 956 548 read -resize TunedNoise.wav;
#X msg 957 579 read -resize SrgeWavMul1VCO.wav;
#X msg 956 604 read -resize AC-WaterBubble.wav;
#X obj 82 27 inlet pitch;
#X obj 307 769 outlet pitch;
#X obj 405 413 pow 2.5;
#X obj -6 163 loadbang;
#X msg -40 353 1;
#X obj 86 530 +~;
#X obj -171 298 clip~ 0 1;
#X obj 85 508 sig~;
#X obj 85 552 send~ ani_freq-\$1;
#X obj 597 101 anivoice \$1 1;
#X obj 700 99 anivoice \$1 2;
#X obj 799 98 anivoice \$1 3;
#X obj 486 125 anivoice \$1 4;
#X obj 597 124 anivoice \$1 5;
#X obj 700 122 anivoice \$1 6;
#X obj 800 123 anivoice \$1 7;
#X obj 486 151 anivoice \$1 8;
#X obj 597 149 anivoice \$1 9;
#X obj 701 149 anivoice \$1 10;
#X obj 804 149 anivoice \$1 11;
#X obj 485 173 anivoice \$1 12;
#X obj 596 174 anivoice \$1 13;
#X obj 702 173 anivoice \$1 14;
#X obj 804 174 anivoice \$1 15;
#X obj -171 246 catch~ aniosc_\$1_mod_amp;
#X obj -164 431 sig~;
#X obj -136 465 -~;
#X obj 141 484 catch~ aniosc_\$1_mod_freq;
#X obj 86 357 str_link 1;
#X obj 291 371 str_link 2;
#X obj -85 28 r wavepos-aniosc-\$1;
#N canvas 208 142 458 448 wave_mod_auto_switch 0;
#X floatatom 132 208 5 0 0 0 - - -, f 5;
#X obj 75 263 spigot;
#X obj 123 263 spigot;
#X obj 53 309 + 0;
#X obj 54 89 min 15;
#X obj 54 69 * 15;
#X obj 54 110 max 0;
#X msg 216 211 0;
#X msg 141 140 bang;
#X msg -36 190 1, f 4;
#X obj 92 354 outlet;
#X obj 54 30 inlet mod;
#X obj 251 135 inlet wavepos;
#X msg 248 211 1;
#X msg 8 191 0;
#X obj 188 53 loadbang;
#X obj 141 161 del 20;
#X obj 204 178 t b b;
#X msg 187 211 0;
#X connect 0 0 1 0;
#X connect 0 0 2 0;
#X connect 1 0 3 1;
#X connect 2 0 10 0;
#X connect 3 0 10 0;
#X connect 4 0 6 0;
#X connect 5 0 4 0;
#X connect 6 0 8 0;
#X connect 6 0 3 0;
#X connect 7 0 1 1;
#X connect 8 0 9 0;
#X connect 8 0 14 0;
#X connect 8 0 16 0;
#X connect 9 0 1 1;
#X connect 11 0 5 0;
#X connect 12 0 0 0;
#X connect 13 0 2 1;
#X connect 14 0 2 1;
#X connect 15 0 7 0;
#X connect 15 0 13 0;
#X connect 16 0 17 0;
#X connect 17 0 18 0;
#X connect 17 1 13 0;
#X connect 17 1 7 0;
#X connect 18 0 3 1;
#X restore -122 92 pd wave_mod_auto_switch;
#X obj 84 421 line 5;
#X obj 85 397 pack f 50;
#X obj 167 374 r line_time;
#X obj 104 771 outlet~;
#X obj 104 738 *~, f 4;
#X obj 158 662 pan.mmb~;
#X obj 7 553 line~;
#X obj 7 525 pack f 50;
#X obj 167 770 outlet~;
#X obj 167 737 *~, f 4;
#X msg 199 331 0.5;
#X obj 15 276 str_link 3;
#X obj 559 767 outlet pan;
#X obj 329 30 inlet pan;
#X obj 399 134 r pan_reset;
#X obj 105 117 vsl 30 125 0 1 0 0 empty empty LVL 0 70 0 13 -262144
-1 -1 0 1;
#X floatatom 104 302 5 0 0 0 - - -, f 5;
#X obj 144 106 vsl 30 90 0 15 0 0 empty empty POS 0 40 0 14 -262144
-1 -1 0 1;
#X obj 140 301 tgl 15 0 empty empty lnk 17 7 0 10 -262144 -1 -1 0 1
;
#X floatatom 144 201 5 0 15 3 wave - -, f 5;
#X obj 139 231 tgl 15 0 empty empty link 17 7 0 10 -262144 -1 -1 0
1;
#X obj 107 279 hsl 50 15 0 1 0 0 empty empty PAN 16 8 0 10 -262144
-1 -1 2450 1;
#X obj 162 279 bng 15 250 50 0 empty empty c 4 7 0 10 -262144 -1 -1
;
#X obj 139 263 tgl 15 0 empty empty lnk 17 7 0 10 -262144 -1 -1 0 1
;
#X msg -1 211 7;
#X connect 2 0 70 0;
#X connect 3 0 2 1;
#X connect 4 0 3 0;
#X connect 5 0 2 0;
#X connect 6 0 82 0;
#X connect 7 0 4 1;
#X connect 8 0 80 0;
#X connect 9 0 40 0;
#X connect 10 0 9 0;
#X connect 13 0 14 0;
#X connect 15 0 19 0;
#X connect 15 1 18 0;
#X connect 15 2 20 0;
#X connect 15 3 21 0;
#X connect 15 4 22 0;
#X connect 15 5 23 0;
#X connect 15 6 24 0;
#X connect 15 7 25 0;
#X connect 15 8 26 0;
#X connect 15 9 27 0;
#X connect 15 10 28 0;
#X connect 15 11 29 0;
#X connect 15 12 30 0;
#X connect 15 13 31 0;
#X connect 15 14 32 0;
#X connect 16 0 17 0;
#X connect 17 0 13 0;
#X connect 18 0 16 0;
#X connect 19 0 16 0;
#X connect 20 0 16 0;
#X connect 21 0 16 0;
#X connect 22 0 16 0;
#X connect 23 0 16 0;
#X connect 24 0 16 0;
#X connect 25 0 16 0;
#X connect 26 0 16 0;
#X connect 27 0 16 0;
#X connect 28 0 16 0;
#X connect 29 0 16 0;
#X connect 30 0 16 0;
#X connect 31 0 16 0;
#X connect 32 0 16 0;
#X connect 33 0 81 0;
#X connect 35 0 4 0;
#X connect 36 0 89 0;
#X connect 36 0 37 0;
#X connect 36 0 87 0;
#X connect 37 0 58 0;
#X connect 38 0 41 0;
#X connect 39 0 59 1;
#X connect 40 0 38 0;
#X connect 57 0 39 0;
#X connect 58 0 59 0;
#X connect 59 0 69 1;
#X connect 59 0 74 1;
#X connect 60 0 38 1;
#X connect 61 0 34 0;
#X connect 61 0 66 0;
#X connect 61 1 81 0;
#X connect 61 2 83 0;
#X connect 62 0 35 0;
#X connect 62 0 12 0;
#X connect 62 1 80 0;
#X connect 62 2 85 0;
#X connect 63 0 64 0;
#X connect 64 0 0 0;
#X connect 65 0 10 0;
#X connect 66 0 65 0;
#X connect 67 0 66 1;
#X connect 69 0 68 0;
#X connect 70 0 69 0;
#X connect 70 1 74 0;
#X connect 71 0 70 1;
#X connect 72 0 71 0;
#X connect 74 0 73 0;
#X connect 75 0 86 0;
#X connect 76 0 72 0;
#X connect 76 0 77 0;
#X connect 76 1 86 0;
#X connect 76 2 88 0;
#X connect 78 0 86 0;
#X connect 79 0 87 0;
#X connect 80 0 62 0;
#X connect 81 0 61 0;
#X connect 82 0 64 1;
#X connect 83 0 61 1;
#X connect 84 0 15 0;
#X connect 85 0 62 1;
#X connect 86 0 72 0;
#X connect 87 0 75 0;
#X connect 88 0 76 1;
#X connect 89 0 84 0;
#X coords 0 -1 1 1 85 220 1 100 100;
