#N canvas 534 37 535 416 10;
#X obj 76 287 *~;
#X obj 75 160 *~ 2048;
#X obj 75 122 phasor~;
#X obj 206 135 * 2048;
#X obj 206 66 loadbang;
#X obj 75 198 +~ 0;
#X obj 206 108 f \$2;
#X obj 190 338 throw~ anivoice_\$1;
#X obj 206 197 list prepend set;
#X obj 206 218 list trim;
#X obj 206 175 r wave-receive-\$1;
#X obj 75 237 tabread4~ wave-\$1;
#X obj 75 61 receive~ ani_freq-\$1;
#X obj 336 244 str_xfade~ \$2;
#X obj 336 216 r wavepos-\$1;
#X connect 0 0 7 0;
#X connect 1 0 5 0;
#X connect 2 0 1 0;
#X connect 3 0 5 1;
#X connect 4 0 6 0;
#X connect 5 0 11 0;
#X connect 6 0 3 0;
#X connect 8 0 9 0;
#X connect 9 0 11 0;
#X connect 10 0 8 0;
#X connect 11 0 0 0;
#X connect 12 0 2 0;
#X connect 13 0 0 1;
#X connect 14 0 13 0;
