#N canvas 0 46 1274 694 10;
#X obj 131 609 outlet~;
#X obj 172 49 inlet~;
#X obj 166 372 samphold~;
#X obj 352 286 phasor~ 4400;
#N canvas 0 22 466 316 rh_scalelog 0;
#X obj 20 155 exp;
#X obj 20 107 *;
#X obj 20 130 +;
#X obj 98 87 log;
#X obj 194 84 log;
#X obj 123 123 t b f;
#X obj 123 145 -;
#X obj 20 183 outlet;
#X obj 20 19 inlet;
#X obj 98 23 inlet;
#X obj 194 24 inlet;
#X connect 0 0 7 0;
#X connect 1 0 2 0;
#X connect 2 0 0 0;
#X connect 3 0 2 1;
#X connect 3 0 5 0;
#X connect 4 0 6 0;
#X connect 5 0 6 0;
#X connect 5 1 6 1;
#X connect 6 0 1 1;
#X connect 8 0 1 0;
#X connect 9 0 3 0;
#X connect 10 0 4 0;
#X restore 350 260 pd rh_scalelog;
#X msg 468 227 44009;
#X msg 420 226 512;
#X obj 281 52 inlet samplerate;
#X obj 490 92 bng 15 250 50 0 empty empty empty 17 7 0 10 -262144 -1
-1;
#X obj 526 27 loadbang;
#X connect 1 0 2 0;
#X connect 2 0 0 0;
#X connect 3 0 2 1;
#X connect 4 0 3 0;
#X connect 5 0 4 2;
#X connect 6 0 4 1;
#X connect 7 0 4 0;
#X connect 8 0 5 0;
#X connect 8 0 6 0;
#X connect 9 0 8 0;
