#N canvas 615 70 1045 826 10;
#X obj -349 565 +~;
#X obj -323 538 *~;
#X obj -326 392 vcf~ 1;
#X obj -326 418 hip~ 100;
#X obj -327 234 *~;
#X floatatom 116 136 5 0 0 0 L - -, f 5;
#X obj 426 539 +~;
#X obj 440 512 *~;
#X obj 443 379 vcf~ 1;
#X obj 444 418 hip~ 100;
#X obj 459 280 *~;
#X floatatom 197 136 5 0 0 1 R - -, f 5;
#X obj -349 592 delwrite~ delayL 2000;
#X obj 428 564 delwrite~ delayR 2000;
#X obj -328 207 vd~ delayL;
#X obj 459 251 vd~ delayR;
#X obj 110 256 hsl 128 20 0 1 0 1 empty empty mix 50 10 0 10 -106484
-1 -1 0 1;
#N canvas 58 478 450 300 Xfade 0;
#X obj 255 28 inlet~;
#X obj 256 225 outlet~;
#X obj 251 149 *~;
#X obj 323 154 *~;
#X obj 140 49 clip~ 0 1;
#X obj 120 15 inlet~;
#X obj 161 75 *~ -1;
#X obj 276 122 +~ 1;
#X obj 335 122 *~ -1;
#X obj 333 30 inlet~;
#X connect 0 0 2 0;
#X connect 2 0 1 0;
#X connect 3 0 1 0;
#X connect 4 0 6 0;
#X connect 5 0 4 0;
#X connect 6 0 7 0;
#X connect 6 0 8 0;
#X connect 7 0 2 1;
#X connect 8 0 3 0;
#X connect 9 0 3 1;
#X restore -11 736 pd Xfade;
#X obj 67 555 line~;
#X obj 519 142 r line_time;
#X obj 462 192 line~;
#X obj -330 132 line~;
#X obj 463 165 pack f 200;
#N canvas 318 182 471 304 Xfade 0;
#X obj 255 28 inlet~;
#X obj 256 225 outlet~;
#X obj 251 149 *~;
#X obj 323 154 *~;
#X obj 140 49 clip~ 0 1;
#X obj 120 15 inlet~;
#X obj 161 75 *~ -1;
#X obj 276 122 +~ 1;
#X obj 335 122 *~ -1;
#X obj 333 30 inlet~;
#X connect 0 0 2 0;
#X connect 2 0 1 0;
#X connect 3 0 1 0;
#X connect 4 0 6 0;
#X connect 5 0 4 0;
#X connect 6 0 7 0;
#X connect 6 0 8 0;
#X connect 7 0 2 1;
#X connect 8 0 3 0;
#X connect 9 0 3 1;
#X restore 260 739 pd Xfade;
#X obj 238 108 tgl 15 0 \$0-delay-ctrl delay-ctrl CTRL 17 7 0 10 -262144
-1 -1 1 1;
#X obj -330 106 pack f 200;
#X obj 67 531 pack f 200;
#X obj -5 799 outlet~ L;
#X obj 271 796 outlet~ R;
#X obj 81 673 pan.mmb~;
#X obj 199 665 pan.mmb~;
#X obj 109 231 hsl 128 20 0 1 0 1 empty empty balance 43 10 0 10 -106484
-1 -1 12700 1;
#X obj 687 416 r ldel_time-\$0;
#X obj 700 437 r rdel_time-\$0;
#X obj 775 529 r del_pan-\$0;
#X obj -330 54 r ldel_time-\$0;
#X obj 462 107 r rdel_time-\$0;
#X obj 218 518 line~;
#X obj 219 496 pack f 200;
#X obj 203 286 str_link 1-\$0;
#X obj 242 135 tgl 15 0 empty empty lnk 17 7 0 10 -262144 -1 -1 0 1
;
#X obj 52 56 f;
#X obj -273 79 r line_time;
#X obj 239 453 r line_time;
#X obj 796 552 r del_mix-\$0;
#X obj 116 119 bng 15 250 50 0 empty empty L--> 17 7 0 10 -106484 -1
-1;
#X obj 122 56 f;
#X obj 208 119 bng 15 250 50 0 empty empty <--R -31 7 0 10 -106484
-1 -1;
#X obj 99 288 str_link 1-\$0;
#X text -182 49 copy parameters from left to right and vice versa;
#X obj 308 64 r XY;
#X obj 308 90 t b;
#X msg 308 118 0;
#X text 348 73 turn off links when touching XY;
#X obj 137 323 s ldel_time-\$0;
#X obj 234 321 s rdel_time-\$0;
#X obj 540 729 outlet;
#X obj 584 730 outlet;
#X obj 634 730 outlet;
#X obj 678 731 outlet;
#X obj 728 732 outlet;
#X obj 772 733 outlet;
#X obj 822 733 outlet;
#X obj -350 -16 inlet~ L;
#X obj -288 -15 inlet~ R;
#X obj 568 -166 spigot;
#X obj 643 -202 inlet;
#X obj 683 -202 inlet;
#X obj 737 -202 inlet;
#X obj 779 -202 inlet;
#X obj 641 -169 spigot;
#X obj 759 -26 r \$0-delay-ctrl;
#X obj 684 -169 spigot;
#X obj 729 -169 spigot;
#X obj 772 -169 spigot;
#X obj 830 -200 inlet;
#X obj 822 -167 spigot;
#X obj 878 -165 spigot;
#X obj 109 156 hsl 128 20 0 0.95 0 1 empty empty fb 50 10 0 10 -106484
-1 -1 12700 1;
#X obj 109 181 hsl 128 20 20 5000 0 1 empty empty 20_____freq_____5000
0 10 0 10 -106484 -1 -1 0 1;
#X obj 109 206 hsl 128 20 0 1.5 0 1 empty empty distortion 30 10 0
10 -106484 -1 -1 0 1;
#X obj 62 399 s del_fb-\$0;
#X obj 77 419 s del_freq-\$0;
#X obj 94 440 s del_dist-\$0;
#X obj -158 202 r del_dist-\$0;
#X obj -301 443 r del_fb-\$0;
#X obj 484 296 r del_freq-\$0;
#X obj 521 428 r del_fb-\$0;
#X obj 720 461 r del_fb-\$0;
#X obj 737 484 r del_freq-\$0;
#X obj 758 506 r del_dist-\$0;
#X obj -107 228 r line_time;
#X obj -172 250 pack f 200;
#X obj -170 274 line~;
#X obj 626 158 r del_dist-\$0;
#X obj 673 184 r line_time;
#X obj 612 206 pack f 200;
#X obj 614 230 line~;
#X obj 563 -205 inlet ltime;
#X obj 881 -199 inlet mix;
#X obj 242 234 bng 15 250 50 0 empty empty c 4 7 0 10 -106484 -1 -1
;
#X msg 307 247 0.5;
#X obj 164 364 s del_pan-\$0;
#X obj 261 362 s del_mix-\$0;
#X obj 362 181 loadbang;
#X msg 373 220 0;
#X obj -306 493 +~;
#X obj 554 382 catch~ fb-del;
#X obj 466 465 +~;
#X obj -303 467 sig~;
#X obj 523 450 sig~;
#X text 574 359 fb - mod;
#X obj 462 488 clip~ 0 0.95;
#X obj -308 518 clip~ 0 0.95;
#X text 670 273 freq mod;
#X obj 651 298 catch~ freq-del;
#X obj 484 318 sig~;
#X obj 479 342 +~;
#X obj -311 318 r del_freq-\$0;
#X obj -311 340 sig~;
#X obj -311 360 +~;
#X obj 457 358 clip~ 20 5000;
#X obj -312 374 clip~ 20 5000;
#N canvas 13 64 450 300 dist_mod 0;
#X obj 56 96 +~;
#X obj 46 166 outlet~;
#X obj 49 126 clip~ 0 1.5;
#X obj 61 37 inlet~;
#X obj 224 44 inlet~;
#X connect 0 0 2 0;
#X connect 2 0 1 0;
#X connect 3 0 0 0;
#X connect 4 0 0 1;
#X restore 571 255 pd dist_mod;
#N canvas 13 64 450 300 dist_mod 0;
#X obj 56 96 +~;
#X obj 46 166 outlet~;
#X obj 49 126 clip~ 0 1.5;
#X obj 61 37 inlet~;
#X obj 225 47 inlet~;
#X connect 0 0 2 0;
#X connect 2 0 1 0;
#X connect 3 0 0 0;
#X connect 4 0 0 1;
#X restore -154 323 pd dist_mod;
#X obj 757 233 catch~ dist-del;
#X text 782 207 dist mod;
#X obj 367 603 catch~ balance-del;
#N canvas 13 64 450 300 balance_mod 0;
#X obj 56 96 +~;
#X obj 46 166 outlet~;
#X obj 61 37 inlet~;
#X obj 224 44 inlet~;
#X obj 49 126 clip~ 0 1;
#X connect 0 0 4 0;
#X connect 2 0 0 0;
#X connect 3 0 0 1;
#X connect 4 0 1 0;
#X restore 217 549 pd balance_mod;
#N canvas 13 64 450 300 mix_mod 0;
#X obj 56 96 +~;
#X obj 46 166 outlet~;
#X obj 61 37 inlet~;
#X obj 224 44 inlet~;
#X obj 49 126 clip~ 0 1;
#X connect 0 0 4 0;
#X connect 2 0 0 0;
#X connect 3 0 0 1;
#X connect 4 0 1 0;
#X restore 67 578 pd mix_mod;
#X obj 368 648 catch~ mix-del;
#N canvas 13 64 364 264 L_time_mod 0;
#X obj 50 103 +~;
#X obj 46 166 outlet~;
#X obj 61 37 inlet~;
#X obj 169 31 inlet~;
#X obj 47 131 max~ 0;
#X obj 115 72 *~ 500;
#X connect 0 0 4 0;
#X connect 2 0 0 0;
#X connect 3 0 5 0;
#X connect 4 0 1 0;
#X connect 5 0 0 1;
#X restore -328 173 pd L_time_mod;
#X obj -95 100 catch~ L-time-del;
#N canvas 13 64 364 264 R_time_mod 0;
#X obj 50 103 +~;
#X obj 46 166 outlet~;
#X obj 61 37 inlet~;
#X obj 169 31 inlet~;
#X obj 47 131 max~ 0;
#X obj 115 72 *~ 500;
#X connect 0 0 4 0;
#X connect 2 0 0 0;
#X connect 3 0 5 0;
#X connect 4 0 1 0;
#X connect 5 0 0 1;
#X restore 462 220 pd R_time_mod;
#X obj 650 93 catch~ R-time-del;
#X floatatom 190 -29 5 0 0 0 - - -, f 5;
#X msg 107 -18 set \$1;
#X obj 251 -73 store delay-ctrl;
#N canvas 354 423 1302 441 osc_receive 0;
#X obj 196 175 route control;
#X obj 195 197 route x;
#X floatatom 196 225 5 0 0 0 - - -, f 5;
#X obj 193 265 outlet control;
#X floatatom 357 246 5 0 0 0 - - -, f 5;
#X floatatom 557 244 5 0 0 0 - - -, f 5;
#X floatatom 753 255 5 0 0 0 - - -, f 5;
#X obj 695 -4 r Instruments;
#X floatatom 1193 245 5 0 0 0 - - -, f 5;
#X obj 696 45 route Delays, f 13;
#X obj 358 169 osc-input Ldelay, f 23;
#X obj 357 190 route map;
#X obj 553 170 osc-input Rdelay;
#X obj 556 216 route map;
#X obj 750 185 osc-input Feedback;
#X obj 750 206 route x;
#X obj 750 232 clip 0 0.95;
#X obj 1199 194 osc-input Balance;
#X obj 1198 215 route x;
#X obj 1503 231 route x;
#X floatatom 1727 252 5 0 0 0 - - -, f 5;
#X obj 1732 222 route x;
#X obj 1733 201 osc-input DelayMix;
#X floatatom 908 265 5 0 0 0 - - -, f 5;
#X obj 909 193 osc-input Dumping;
#X obj 908 214 route map;
#X floatatom 1052 265 5 0 0 0 - - -, f 5;
#X obj 1052 214 route map;
#X obj 1022 177 osc-input Distortion, f 23;
#X obj 1623 232 route x;
#X obj 1347 223 route x;
#X floatatom 1348 251 5 0 0 0 - - -, f 5;
#X obj 1348 201 route link;
#X obj 1504 209 route LtoR;
#X obj 1624 210 route RtoL;
#X obj 1507 269 sel 1;
#X obj 1620 263 sel 1;
#X obj 358 285 outlet Ldelay;
#X obj 558 283 outlet Rdelay;
#X obj 750 284 outlet Feedback;
#X obj 908 292 outlet Dumping;
#X obj 1052 292 outlet Distortion;
#X obj 1192 295 outlet Balance;
#X obj 1345 291 outlet link;
#X obj 1501 299 outlet LtoR;
#X obj 1621 300 outlet RtoL;
#X obj 1726 302 outlet DelayMix, f 32;
#X connect 0 0 1 0;
#X connect 1 0 2 0;
#X connect 2 0 3 0;
#X connect 4 0 37 0;
#X connect 5 0 38 0;
#X connect 6 0 39 0;
#X connect 7 0 9 0;
#X connect 8 0 42 0;
#X connect 9 0 0 0;
#X connect 9 0 10 0;
#X connect 9 0 12 0;
#X connect 9 0 14 0;
#X connect 9 0 17 0;
#X connect 9 0 22 0;
#X connect 9 0 24 0;
#X connect 9 0 28 0;
#X connect 9 0 33 0;
#X connect 9 0 32 0;
#X connect 9 0 34 0;
#X connect 10 0 11 0;
#X connect 11 0 4 0;
#X connect 12 0 13 0;
#X connect 13 0 5 0;
#X connect 14 0 15 0;
#X connect 15 0 16 0;
#X connect 16 0 6 0;
#X connect 17 0 18 0;
#X connect 18 0 8 0;
#X connect 19 0 35 0;
#X connect 20 0 46 0;
#X connect 21 0 20 0;
#X connect 22 0 21 0;
#X connect 23 0 40 0;
#X connect 24 0 25 0;
#X connect 25 0 23 0;
#X connect 26 0 41 0;
#X connect 27 0 26 0;
#X connect 28 0 27 0;
#X connect 29 0 36 0;
#X connect 30 0 31 0;
#X connect 31 0 43 0;
#X connect 32 0 30 0;
#X connect 33 0 19 0;
#X connect 34 0 29 0;
#X connect 35 0 44 0;
#X connect 36 0 45 0;
#X restore -82 -92 pd osc_receive;
#N canvas 621 362 1324 639 osc_send 0;
#X obj -51 30 inlet control;
#X obj 64 488 s send_granulate;
#X obj -92 209 oscformat Instruments Delays control x;
#X obj 211 135 * 0.001;
#X obj 420 169 * 0.001;
#X obj 221 22 inlet Rdelay;
#X obj 391 39 inlet Ldelay;
#X obj 207 95 osc-output Ldelay;
#X obj 124 294 oscformat Instruments Delays Ldelay x;
#X obj 389 90 osc-output Rdelay;
#X obj 377 290 oscformat Instruments Delays Rdelay x, f 19;
#X obj 534 31 inlet Feedback;
#X obj 543 65 osc-output Feedback;
#X obj 668 20 inlet Dumping;
#X obj 677 54 osc-output Dumping;
#X obj 532 283 oscformat Instruments Delays Feedback x, f 16;
#X obj 815 46 inlet Distortion;
#X obj 824 80 osc-output Distortion;
#X obj 639 368 oscformat Instruments Delays Dumping x, f 21;
#X obj 804 414 oscformat Instruments Delays Distortion x;
#X obj 980 26 inlet Balance;
#X obj 989 60 osc-output Balance;
#X obj 969 394 oscformat Instruments Delays Balance x;
#X obj 1319 11 inlet DelayMix;
#X obj 1328 45 osc-output DelayMix;
#X obj 1256 340 oscformat Instruments Delays DelayMix x;
#X obj 1140 19 inlet link;
#X obj 1149 53 osc-output link;
#X obj 1065 274 oscformat Instruments Delays link x;
#X obj 653 150 - 20;
#X obj 665 187 / 4890;
#X obj 848 163 / 1.5, f 22;
#X connect 0 0 2 0;
#X connect 2 0 1 0;
#X connect 3 0 8 0;
#X connect 4 0 10 0;
#X connect 5 0 7 0;
#X connect 6 0 9 0;
#X connect 7 0 3 0;
#X connect 8 0 1 0;
#X connect 9 0 4 0;
#X connect 10 0 1 0;
#X connect 11 0 12 0;
#X connect 12 0 15 0;
#X connect 13 0 14 0;
#X connect 14 0 29 0;
#X connect 15 0 1 0;
#X connect 16 0 17 0;
#X connect 17 0 31 0;
#X connect 18 0 1 0;
#X connect 19 0 1 0;
#X connect 20 0 21 0;
#X connect 21 0 22 0;
#X connect 22 0 1 0;
#X connect 23 0 24 0;
#X connect 24 0 25 0;
#X connect 25 0 1 0;
#X connect 26 0 27 0;
#X connect 27 0 28 0;
#X connect 28 0 1 0;
#X connect 29 0 30 0;
#X connect 30 0 18 0;
#X connect 31 0 19 0;
#X restore -517 723 pd osc_send, f 63;
#X connect 0 0 12 0;
#X connect 1 0 0 1;
#X connect 2 0 3 0;
#X connect 3 0 1 0;
#X connect 4 0 2 0;
#X connect 4 0 29 0;
#X connect 5 0 41 1;
#X connect 5 0 48 0;
#X connect 6 0 13 0;
#X connect 7 0 6 1;
#X connect 8 0 9 0;
#X connect 9 0 7 0;
#X connect 10 0 8 0;
#X connect 10 0 30 0;
#X connect 11 0 46 1;
#X connect 11 0 39 0;
#X connect 14 0 4 0;
#X connect 15 0 10 0;
#X connect 16 0 26 0;
#X connect 16 0 103 0;
#X connect 16 0 139 8;
#X connect 17 0 27 0;
#X connect 18 0 129 0;
#X connect 19 0 22 1;
#X connect 20 0 133 0;
#X connect 21 0 131 0;
#X connect 22 0 20 0;
#X connect 23 0 28 0;
#X connect 24 0 136 0;
#X connect 25 0 21 0;
#X connect 26 0 18 0;
#X connect 29 0 17 2;
#X connect 29 1 23 2;
#X connect 30 0 17 2;
#X connect 30 1 23 2;
#X connect 31 0 38 0;
#X connect 31 0 102 0;
#X connect 31 0 139 6;
#X connect 32 0 56 0;
#X connect 33 0 57 0;
#X connect 34 0 61 0;
#X connect 35 0 25 0;
#X connect 36 0 22 0;
#X connect 37 0 128 0;
#X connect 38 0 37 0;
#X connect 39 0 55 0;
#X connect 39 0 139 2;
#X connect 39 1 11 0;
#X connect 40 0 48 1;
#X connect 40 0 39 1;
#X connect 40 0 139 7;
#X connect 41 0 11 0;
#X connect 42 0 25 1;
#X connect 43 0 26 1;
#X connect 43 0 38 1;
#X connect 44 0 62 0;
#X connect 45 0 41 0;
#X connect 46 0 5 0;
#X connect 47 0 46 0;
#X connect 48 0 54 0;
#X connect 48 0 139 1;
#X connect 48 1 5 0;
#X connect 50 0 51 0;
#X connect 51 0 52 0;
#X connect 52 0 40 0;
#X connect 63 0 0 0;
#X connect 63 0 17 1;
#X connect 64 0 6 0;
#X connect 64 0 23 1;
#X connect 65 0 5 0;
#X connect 66 0 70 0;
#X connect 67 0 72 0;
#X connect 68 0 73 0;
#X connect 69 0 74 0;
#X connect 70 0 11 0;
#X connect 71 0 70 1;
#X connect 71 0 72 1;
#X connect 71 0 73 1;
#X connect 71 0 74 1;
#X connect 71 0 76 1;
#X connect 71 0 77 1;
#X connect 71 0 65 1;
#X connect 72 0 78 0;
#X connect 73 0 79 0;
#X connect 74 0 80 0;
#X connect 75 0 76 0;
#X connect 76 0 31 0;
#X connect 77 0 16 0;
#X connect 78 0 81 0;
#X connect 78 0 139 3;
#X connect 79 0 82 0;
#X connect 79 0 139 4;
#X connect 80 0 83 0;
#X connect 80 0 139 5;
#X connect 84 0 92 0;
#X connect 85 0 109 0;
#X connect 86 0 116 0;
#X connect 87 0 110 0;
#X connect 88 0 58 0;
#X connect 89 0 59 0;
#X connect 90 0 60 0;
#X connect 91 0 92 1;
#X connect 92 0 93 0;
#X connect 93 0 124 0;
#X connect 94 0 96 0;
#X connect 95 0 96 1;
#X connect 96 0 97 0;
#X connect 97 0 123 0;
#X connect 98 0 65 0;
#X connect 99 0 77 0;
#X connect 100 0 101 0;
#X connect 101 0 31 0;
#X connect 104 0 105 0;
#X connect 104 0 100 0;
#X connect 105 0 16 0;
#X connect 106 0 113 0;
#X connect 107 0 106 1;
#X connect 107 0 108 0;
#X connect 108 0 112 0;
#X connect 109 0 106 0;
#X connect 110 0 108 1;
#X connect 112 0 7 1;
#X connect 113 0 1 1;
#X connect 115 0 117 1;
#X connect 115 0 120 1;
#X connect 116 0 117 0;
#X connect 117 0 121 0;
#X connect 118 0 119 0;
#X connect 119 0 120 0;
#X connect 120 0 122 0;
#X connect 121 0 8 1;
#X connect 122 0 2 1;
#X connect 123 0 10 1;
#X connect 124 0 4 1;
#X connect 125 0 123 1;
#X connect 125 0 124 1;
#X connect 127 0 128 1;
#X connect 128 0 30 1;
#X connect 128 0 29 1;
#X connect 129 0 17 0;
#X connect 129 0 23 0;
#X connect 130 0 129 1;
#X connect 131 0 14 0;
#X connect 132 0 131 1;
#X connect 133 0 15 0;
#X connect 134 0 133 1;
#X connect 135 0 137 0;
#X connect 135 0 24 0;
#X connect 135 0 139 0;
#X connect 136 0 135 0;
#X connect 137 0 135 0;
#X connect 138 0 24 0;
#X connect 138 1 5 0;
#X connect 138 2 11 0;
#X connect 138 3 78 0;
#X connect 138 4 79 0;
#X connect 138 5 80 0;
#X connect 138 6 31 0;
#X connect 138 7 40 0;
#X connect 138 8 45 0;
#X connect 138 9 47 0;
#X connect 138 10 16 0;
#X coords 0 -1 1 1 180 180 1 100 100;
