#N canvas 508 35 972 723 10;
#X obj 68 408 tanh~;
#X obj 22 465 xfade.mmb~;
#X obj 198 554 line~;
#X obj 198 528 pack f 50;
#X obj 249 501 r line_time;
#X obj 66 353 *~;
#X obj -114 3 inlet~;
#X obj 42 599 outlet~;
#X obj 100 318 line~;
#X obj 107 139 hsl 128 15 0 1 0 0 empty empty drive 7 8 0 10 -261234
-1 -1 0 1;
#X obj 100 241 + 0.2;
#X obj 134 118 tgl 15 0 empty empty extreme 17 7 0 10 -261234 -1 -1
0 1;
#X obj 100 208 * 1.3;
#X obj 74 123 *;
#X obj 666 -18 inlet drive;
#X obj 683 588 outlet drive;
#X obj 152 272 r line_time;
#X obj 100 292 pack f 50;
#X floatatom -181 286 5 0 0 0 - - -, f 5;
#X obj -181 334 line~;
#X obj -181 308 pack f 50;
#X obj -141 285 r line_time;
#X obj 35 528 *~;
#X obj -237 421 sig~;
#X msg -237 396 1;
#X obj -237 369 loadbang;
#X obj -196 458 -~;
#X obj -182 255 * 0.7;
#X obj -182 231 sqrt;
#X obj -170 4 inlet~;
#X obj -20 410 tanh~;
#X obj -66 460 xfade.mmb~;
#X obj -17 342 *~;
#X obj -46 594 outlet~;
#X obj -53 523 *~;
#N canvas 1 23 529 314 dist_mmb 0;
#X obj 69 116 distortion.mmb~;
#X msg 155 89 tone \$1;
#X floatatom 155 70 5 0 0 0 - - -, f 5;
#X obj 119 233 line~;
#X obj 118 213 pack f 50;
#X obj 169 190 r line_time;
#X obj 155 49 * 100;
#X obj 69 209 *~;
#X obj 44 13 inlet~;
#X obj 70 265 outlet~;
#X obj 155 14 inlet level;
#X obj 343 160 switch~;
#X obj 341 32 inlet;
#X text 289 207 turn on distortion.mmb (more processing power consumption)
;
#X obj 341 62 sel 0 1;
#X obj 340 91 del 7;
#X msg 340 119 0;
#X msg 396 115 1;
#X connect 0 0 7 0;
#X connect 1 0 0 1;
#X connect 2 0 1 0;
#X connect 3 0 7 1;
#X connect 4 0 3 0;
#X connect 5 0 4 1;
#X connect 6 0 2 0;
#X connect 7 0 9 0;
#X connect 8 0 0 0;
#X connect 10 0 6 0;
#X connect 10 0 4 0;
#X connect 12 0 14 0;
#X connect 14 0 15 0;
#X connect 14 1 17 0;
#X connect 15 0 16 0;
#X connect 16 0 11 0;
#X connect 17 0 11 0;
#X restore 351 240 pd dist_mmb;
#X obj 428 326 line~;
#X obj 378 302 *~;
#X text 578 232 turn on distortion.mmb (more processing power consumption)
;
#X obj 390 182 sel 0 1;
#X msg 465 289 0 5;
#X obj 460 205 del 10;
#X msg 504 287 1 5;
#N canvas 1 23 529 314 dist_mmb 0;
#X obj 69 116 distortion.mmb~;
#X msg 155 89 tone \$1;
#X floatatom 155 70 5 0 0 0 - - -, f 5;
#X obj 119 233 line~;
#X obj 118 213 pack f 50;
#X obj 169 190 r line_time;
#X obj 155 49 * 100;
#X obj 69 209 *~;
#X obj 44 13 inlet~;
#X obj 70 265 outlet~;
#X obj 155 14 inlet level;
#X obj 343 160 switch~;
#X obj 341 32 inlet;
#X text 289 207 turn on distortion.mmb (more processing power consumption)
;
#X obj 341 62 sel 0 1;
#X obj 340 91 del 7;
#X msg 340 119 0;
#X msg 396 115 1;
#X connect 0 0 7 0;
#X connect 1 0 0 1;
#X connect 2 0 1 0;
#X connect 3 0 7 1;
#X connect 4 0 3 0;
#X connect 5 0 4 1;
#X connect 6 0 2 0;
#X connect 7 0 9 0;
#X connect 8 0 0 0;
#X connect 10 0 6 0;
#X connect 10 0 4 0;
#X connect 12 0 14 0;
#X connect 14 0 15 0;
#X connect 14 1 17 0;
#X connect 15 0 16 0;
#X connect 16 0 11 0;
#X connect 17 0 11 0;
#X restore 271 240 pd dist_mmb;
#X obj 272 295 *~;
#X obj 74 -36 catch~ drive-mod;
#X obj 77 51 +;
#X obj 75 -9 unsig~ 20;
#X obj 79 25 t b f;
#X text 179 -25 drive mod;
#X obj 499 34 spigot;
#X obj 230 105 tgl 15 0 empty empty ctrl -25 7 0 10 -262144 -1 -1 1
1;
#X obj 221 37 loadbang;
#X msg 226 66 1;
#X floatatom 492 91 5 0 0 0 - - -, f 5;
#X msg 494 120 set \$1;
#X floatatom 681 172 5 0 0 0 - - -, f 5;
#X msg 662 147 set \$1;
#X obj 550 105 store drive-ctrl;
#X obj 759 198 store extreme-drive;
#N canvas 220 488 1302 441 osc_receive 0;
#X obj 372 174 route control;
#X obj 371 196 route x;
#X floatatom 372 224 5 0 0 0 - - -, f 5;
#X obj 369 264 outlet control;
#X floatatom 469 228 5 0 0 0 - - -, f 5;
#X obj 470 267 outlet level;
#X floatatom 682 230 5 0 0 0 - - -, f 5;
#X obj 683 269 outlet wave;
#X obj 695 -4 r Instruments;
#X obj 681 202 route x;
#X obj 696 45 route Drive, f 13;
#X obj 468 199 route x;
#X obj 483 176 route Extreme;
#X obj 682 181 osc-input Drive;
#X connect 0 0 1 0;
#X connect 1 0 2 0;
#X connect 2 0 3 0;
#X connect 4 0 5 0;
#X connect 6 0 7 0;
#X connect 8 0 10 0;
#X connect 9 0 6 0;
#X connect 10 0 0 0;
#X connect 10 0 12 0;
#X connect 10 0 13 0;
#X connect 11 0 4 0;
#X connect 12 0 11 0;
#X connect 13 0 9 0;
#X restore 261 -87 pd osc_receive;
#N canvas 153 341 1324 639 osc_send 0;
#X obj -51 30 inlet control;
#X obj 64 488 s send_granulate;
#X obj 78 45 inlet Extreme;
#X obj 191 44 inlet Drive;
#X obj 169 95 osc-output Drive;
#X obj 213 261 oscformat Instruments Drive Drive x;
#X obj -59 214 oscformat Instruments Drive control x;
#X obj 60 238 oscformat Instruments Drive Extreme x;
#X connect 0 0 6 0;
#X connect 2 0 7 0;
#X connect 3 0 4 0;
#X connect 4 0 5 0;
#X connect 5 0 1 0;
#X connect 6 0 1 0;
#X connect 7 0 1 0;
#X restore 315 605 pd osc_send;
#X connect 0 0 1 1;
#X connect 1 0 22 1;
#X connect 2 0 1 2;
#X connect 2 0 31 2;
#X connect 3 0 2 0;
#X connect 4 0 3 1;
#X connect 5 0 0 0;
#X connect 6 0 1 0;
#X connect 6 0 5 0;
#X connect 6 0 35 0;
#X connect 8 0 5 1;
#X connect 8 0 32 1;
#X connect 9 0 15 0;
#X connect 9 0 3 0;
#X connect 9 0 46 0;
#X connect 9 0 61 2;
#X connect 10 0 17 0;
#X connect 11 0 39 0;
#X connect 11 0 35 2;
#X connect 11 0 43 2;
#X connect 11 0 57 0;
#X connect 11 0 61 1;
#X connect 12 0 10 0;
#X connect 13 0 12 0;
#X connect 13 0 35 1;
#X connect 13 0 43 1;
#X connect 14 0 50 0;
#X connect 16 0 17 1;
#X connect 17 0 8 0;
#X connect 18 0 20 0;
#X connect 19 0 26 1;
#X connect 20 0 19 0;
#X connect 21 0 20 1;
#X connect 22 0 7 0;
#X connect 23 0 26 0;
#X connect 24 0 23 0;
#X connect 25 0 24 0;
#X connect 26 0 22 0;
#X connect 26 0 34 0;
#X connect 27 0 18 0;
#X connect 28 0 27 0;
#X connect 29 0 31 0;
#X connect 29 0 32 0;
#X connect 29 0 43 0;
#X connect 30 0 31 1;
#X connect 31 0 34 1;
#X connect 32 0 30 0;
#X connect 34 0 33 0;
#X connect 35 0 37 0;
#X connect 36 0 37 1;
#X connect 36 0 44 1;
#X connect 37 0 1 1;
#X connect 39 0 40 0;
#X connect 39 1 41 0;
#X connect 40 0 36 0;
#X connect 41 0 42 0;
#X connect 42 0 36 0;
#X connect 43 0 44 0;
#X connect 44 0 31 1;
#X connect 45 0 47 0;
#X connect 46 0 28 0;
#X connect 46 0 13 0;
#X connect 46 0 13 1;
#X connect 47 0 48 0;
#X connect 48 0 46 0;
#X connect 48 1 46 1;
#X connect 50 0 9 0;
#X connect 51 0 54 0;
#X connect 52 0 53 0;
#X connect 53 0 51 0;
#X connect 54 0 55 0;
#X connect 54 0 50 1;
#X connect 54 0 58 0;
#X connect 54 0 61 0;
#X connect 55 0 51 0;
#X connect 56 0 59 0;
#X connect 56 0 11 0;
#X connect 57 0 56 0;
#X connect 58 0 54 0;
#X connect 59 0 56 0;
#X connect 60 0 51 0;
#X connect 60 1 11 0;
#X connect 60 2 9 0;
#X coords 0 -1 1 1 150 60 1 100 100;
