#N canvas 62 59 302 397 10;
#X obj 126 159 list split 1, f 20;
#X obj 116 23 inlet;
#X obj 126 134 list;
#X obj 145 278 f;
#X obj 191 275 + 1;
#X obj 49 107 until;
#X obj 49 86 list length;
#X obj 125 183 sel 1;
#X obj 146 226 t b;
#X obj 115 59 t a a;
#X msg 188 253 1;
#X obj 83 304 f 0;
#X obj 64 230 t b b b b;
#X msg 48 266 0;
#X obj 82 346 outlet;
#X connect 0 0 7 0;
#X connect 0 1 2 1;
#X connect 1 0 9 0;
#X connect 2 0 0 0;
#X connect 3 0 4 0;
#X connect 3 0 11 1;
#X connect 4 0 3 1;
#X connect 5 0 2 0;
#X connect 6 0 5 0;
#X connect 7 0 12 0;
#X connect 7 1 8 0;
#X connect 8 0 3 0;
#X connect 9 0 6 0;
#X connect 9 1 2 1;
#X connect 10 0 3 1;
#X connect 11 0 14 0;
#X connect 12 0 13 0;
#X connect 12 1 11 0;
#X connect 12 2 10 0;
#X connect 12 3 5 1;
#X connect 13 0 11 1;
