#N canvas 674 113 1041 730 10;
#X obj 507 451 line~;
#X obj 507 415 pack f 50;
#X obj 558 384 r line_time;
#X obj 660 637 outlet level;
#X obj 105 117 vsl 25 125 0 1 0 0 empty empty LVL 0 80 0 14 -104064
-262144 -262144 672 1;
#X floatatom 104 299 4 0 0 0 - - -, f 4;
#X floatatom 56 422 5 0 0 0 - - -, f 5;
#X obj 135 298 tgl 15 0 empty empty lnk 17 7 0 10 -204786 -1 -1 0 1
;
#X obj 57 397 mtof;
#X obj 222 19 inlet pitch;
#X obj 396 639 outlet pitch;
#X obj 540 16 inlet level;
#X obj -87 656 outlet~;
#X obj 503 387 pow 2.5;
#X obj -87 623 *~, f 4;
#X obj -172 324 clip~ 0 1;
#X obj -169 364 sig~;
#X obj -168 425 -~;
#X msg -23 187 1;
#X obj -32 111 loadbang;
#X obj 134 230 tgl 15 0 empty empty lnk 17 7 0 10 -104064 -262144 -159808
0 1;
#X obj 263 288 str_link 2;
#X obj 95 342 str_link 1;
#X obj 58 443 pack f 50;
#X obj 113 405 r line_time;
#X obj 135 115 vradio 15 1 0 6 empty empty empty 0 -8 0 10 -237178
-1 -1 2;
#X obj 57 466 line~;
#X text 153 114 ~;
#X text 153 147 ^;
#X text 152 190 N;
#X text 151 176 LN;
#X text 150 130 [];
#X text 152 161 /;
#X text 154 162 |;
#X obj 29 581 pan.mmb~;
#X obj 107 273 hsl 50 15 0 1 0 0 empty empty PAN 16 8 0 10 -2112 -262144
-262144 2450 1;
#X obj 162 273 bng 15 250 50 0 empty empty c 4 7 0 10 -2112 -262144
-262144;
#X msg 195 307 0.5;
#X obj 374 19 inlet pan;
#X obj 500 639 outlet pan;
#N canvas 669 344 766 414 waveform_sel 0;
#X obj 93 351 *~;
#N canvas 492 175 321 275 osc_sel 0;
#X obj 52 107 osc~;
#X obj 52 33 inlet~;
#X obj 52 201 outlet~;
#X obj 169 213 switch~;
#X obj 137 151 del 5;
#X obj 164 30 inlet control;
#X obj 164 120 t b f;
#X obj 169 183 f;
#X obj 164 69 == 0;
#X connect 0 0 2 0;
#X connect 1 0 0 0;
#X connect 4 0 7 0;
#X connect 5 0 8 0;
#X connect 6 0 4 0;
#X connect 6 1 7 1;
#X connect 7 0 3 0;
#X connect 8 0 6 0;
#X restore 86 202 pd osc_sel;
#N canvas 492 175 308 280 square_sel 0;
#X obj 55 37 inlet~;
#X obj 55 192 outlet~;
#X obj 167 210 switch~;
#X obj 135 148 del 5;
#X obj 164 30 inlet control;
#X obj 162 117 t b f;
#X obj 167 180 f;
#X obj 55 71 osc~ 1;
#X obj 55 96 *~ 1000;
#X text 4 121 square;
#X obj 55 123 clip~ -1 1;
#X obj 164 69 == 1;
#X obj 73 160 *~ 0.3;
#X connect 0 0 7 0;
#X connect 3 0 6 0;
#X connect 4 0 11 0;
#X connect 5 0 3 0;
#X connect 5 1 6 1;
#X connect 6 0 2 0;
#X connect 7 0 8 0;
#X connect 8 0 10 0;
#X connect 10 0 12 0;
#X connect 11 0 5 0;
#X connect 12 0 1 0;
#X restore 156 202 pd square_sel;
#N canvas 492 175 280 366 tri_sel 0;
#X obj 55 37 inlet~;
#X obj 53 290 outlet~;
#X obj 169 208 switch~;
#X obj 137 146 del 5;
#X obj 163 37 inlet control;
#X obj 164 115 t b f;
#X obj 169 178 f;
#X obj 55 90 phasor~;
#X obj 74 124 *~ -1;
#X obj 74 152 +~ 1;
#X obj 53 181 min~;
#X obj 53 210 *~ 4;
#X obj 53 236 -~ 1;
#X text 92 204 traingle;
#X obj 164 69 == 2;
#X connect 0 0 7 0;
#X connect 3 0 6 0;
#X connect 4 0 14 0;
#X connect 5 0 3 0;
#X connect 5 1 6 1;
#X connect 6 0 2 0;
#X connect 7 0 8 0;
#X connect 7 0 10 0;
#X connect 8 0 9 0;
#X connect 9 0 10 1;
#X connect 10 0 11 0;
#X connect 11 0 12 0;
#X connect 12 0 1 0;
#X connect 14 0 5 0;
#X restore 249 202 pd tri_sel;
#N canvas 713 187 361 489 noise_sel 0;
#X obj 55 37 inlet~;
#X obj 51 333 outlet~;
#X obj 196 206 switch~;
#X obj 164 144 del 5;
#X obj 190 36 inlet control;
#X obj 191 113 t b f;
#X obj 196 176 f;
#X obj 53 185 noise~;
#X obj 53 247 vcf~ 1, f 7;
#X obj 92 288 *~ 3;
#X obj 193 76 == 4;
#X connect 0 0 8 1;
#X connect 3 0 6 0;
#X connect 4 0 10 0;
#X connect 5 0 3 0;
#X connect 5 1 6 1;
#X connect 6 0 2 0;
#X connect 7 0 8 0;
#X connect 8 1 9 0;
#X connect 9 0 1 0;
#X connect 10 0 5 0;
#X restore 415 206 pd noise_sel;
#X obj 635 292 line~;
#X obj 86 233 *~;
#X obj 157 231 *~;
#X obj 256 235 *~;
#X obj 416 237 *~;
#X floatatom 405 105 5 0 0 0 - - -, f 5;
#X obj 627 233 del 5;
#X obj 633 204 t b b;
#X msg 667 260 0 4;
#X msg 626 256 1 8;
#X obj 505 237 *~;
#N canvas 713 187 361 489 _bp_noise_sel 0;
#X obj 55 37 inlet~;
#X obj 53 334 outlet~;
#X obj 196 206 switch~;
#X obj 164 144 del 5;
#X obj 190 36 inlet control;
#X obj 191 113 t b f;
#X obj 196 176 f;
#X obj 53 185 noise~;
#X obj 53 247 vcf~ 1, f 7;
#X obj 194 76 == 5;
#X connect 0 0 8 1;
#X connect 3 0 6 0;
#X connect 4 0 9 0;
#X connect 5 0 3 0;
#X connect 5 1 6 1;
#X connect 6 0 2 0;
#X connect 7 0 8 0;
#X connect 8 0 1 0;
#X connect 9 0 5 0;
#X restore 504 206 pd _bp_noise_sel;
#N canvas 745 201 313 395 saw_sel 0;
#X obj 55 37 inlet~;
#X obj 55 334 outlet~;
#X obj 196 206 switch~;
#X obj 164 144 del 5;
#X obj 190 36 inlet control;
#X obj 191 113 t b f;
#X obj 196 176 f;
#X obj 55 210 *~ 2;
#X obj 55 235 -~ 1;
#X obj 55 186 phasor~;
#X obj 193 76 == 3;
#X obj 55 263 *~ -0.3;
#X connect 0 0 9 0;
#X connect 3 0 6 0;
#X connect 4 0 10 0;
#X connect 5 0 3 0;
#X connect 5 1 6 1;
#X connect 6 0 2 0;
#X connect 7 0 8 0;
#X connect 8 0 11 0;
#X connect 9 0 7 0;
#X connect 10 0 5 0;
#X connect 11 0 1 0;
#X restore 332 202 pd saw_sel;
#X obj 333 231 *~;
#X obj 89 119 inlet~;
#X obj 402 68 inlet select;
#X obj 237 70 inlet~ level;
#X obj 96 376 outlet~;
#X connect 0 0 22 0;
#X connect 1 0 6 0;
#X connect 2 0 7 0;
#X connect 3 0 8 0;
#X connect 4 0 9 0;
#X connect 5 0 6 1;
#X connect 5 0 7 1;
#X connect 5 0 8 1;
#X connect 5 0 9 1;
#X connect 5 0 15 1;
#X connect 5 0 18 1;
#X connect 6 0 0 0;
#X connect 7 0 0 0;
#X connect 8 0 0 0;
#X connect 9 0 0 0;
#X connect 10 0 1 1;
#X connect 10 0 12 0;
#X connect 10 0 2 1;
#X connect 10 0 3 1;
#X connect 10 0 4 1;
#X connect 10 0 16 1;
#X connect 10 0 17 1;
#X connect 11 0 14 0;
#X connect 12 0 11 0;
#X connect 12 1 13 0;
#X connect 13 0 5 0;
#X connect 14 0 5 0;
#X connect 15 0 0 0;
#X connect 16 0 15 0;
#X connect 17 0 18 0;
#X connect 18 0 0 0;
#X connect 19 0 1 0;
#X connect 19 0 2 0;
#X connect 19 0 3 0;
#X connect 19 0 4 0;
#X connect 19 0 16 0;
#X connect 19 0 17 0;
#X connect 20 0 10 0;
#X connect 21 0 0 1;
#X restore 67 533 pd waveform_sel;
#X obj 67 500 +~;
#X floatatom 286 327 5 0 0 0 - - -, f 5;
#X obj 135 256 tgl 15 0 empty empty lnk 17 7 0 10 -2112 -262144 -4160
0 1;
#X obj 18 341 str_link 3;
#X text -153 250 AM mod;
#X text 232 362 FM mod;
#X obj 189 563 line~;
#X obj 189 535 pack f 50;
#X obj 259 470 r line_time;
#X obj -24 655 outlet~;
#X obj -24 622 *~, f 4;
#X obj 370 162 r pan_reset;
#X obj 379 100 r vol_mute;
#X msg 379 121 0;
#X text 458 99 volume to 0;
#X obj 401 202 r freq_c;
#X msg 401 229 48;
#X text 441 233 reset note to midi 48 (ะก3);
#X text 267 185 reset links;
#X obj 255 213 r reset_links;
#X obj -173 272 catch~ amp-gens-\$1;
#X obj 232 383 catch~ freq-gens-\$1;
#X obj 94 563 +~;
#X obj 165 584 catch~ pan-gens-\$1;
#X obj 467 293 store gens-waveform-\$1;
#X obj 104 254 tgl 15 0 empty empty ctl 17 7 0 10 -262144 -1 -1 1 1
;
#X obj 234 60 spigot;
#X obj 344 68 spigot;
#X obj 503 56 spigot;
#X floatatom 362 296 5 0 0 0 - - -, f 5;
#X msg 365 329 set \$1;
#X obj 515 333 store gens-ctl-\$1;
#N canvas 58 529 1309 356 osc_receive 0;
#X obj 60 146 route control;
#X obj 59 168 route x;
#X floatatom 60 196 5 0 0 0 - - -, f 5;
#X obj 57 236 outlet control;
#X obj 156 172 route x;
#X floatatom 157 200 5 0 0 0 - - -, f 5;
#X obj 158 239 outlet level;
#X floatatom 370 202 5 0 0 0 - - -, f 5;
#X obj 370 152 route wave;
#X obj 369 174 route selection;
#X obj 479 173 route x;
#X floatatom 480 201 5 0 0 0 - - -, f 5;
#X obj 480 151 route lvl_link;
#X obj 481 240 outlet lvl_link;
#X obj 615 172 route x;
#X obj 617 239 outlet pan;
#X obj 697 170 route x;
#X obj 698 148 route pan_link;
#X obj 699 237 outlet pan_link;
#X obj 911 229 outlet freq;
#X obj 991 166 route x;
#X obj 992 144 route freq_link;
#X obj 993 233 outlet freq_link;
#X obj 1126 165 route x;
#X obj 1127 143 route freq_c;
#X obj 1128 232 outlet freq_c;
#X obj 371 241 outlet wave;
#X obj 696 45 route gens\$1, f 41;
#X obj 695 -4 r Instruments;
#X obj 157 150 osc-input level;
#X obj 602 125 osc-input pan;
#X obj 883 140 osc-input pitch;
#X connect 0 0 1 0;
#X connect 1 0 2 0;
#X connect 2 0 3 0;
#X connect 4 0 5 0;
#X connect 5 0 6 0;
#X connect 7 0 26 0;
#X connect 8 0 9 0;
#X connect 9 0 7 0;
#X connect 10 0 11 0;
#X connect 11 0 13 0;
#X connect 12 0 10 0;
#X connect 14 0 15 0;
#X connect 16 0 18 0;
#X connect 17 0 16 0;
#X connect 20 0 22 0;
#X connect 21 0 20 0;
#X connect 23 0 25 0;
#X connect 24 0 23 0;
#X connect 27 0 0 0;
#X connect 27 0 8 0;
#X connect 27 0 12 0;
#X connect 27 0 17 0;
#X connect 27 0 21 0;
#X connect 27 0 24 0;
#X connect 27 0 29 0;
#X connect 27 0 30 0;
#X connect 27 0 31 0;
#X connect 28 0 27 0;
#X connect 29 0 4 0;
#X connect 30 0 14 0;
#X connect 31 0 19 0;
#X restore -33 -41 pd osc_receive;
#N canvas 329 258 1324 639 osc_send 0;
#X obj 64 488 s send_gens;
#X obj 23 43 inlet control;
#X obj 100 48 inlet level;
#X obj 288 50 inlet wave;
#X obj 420 52 inlet lvl_link;
#X obj 510 83 inlet pan;
#X obj 606 56 inlet pan_link;
#X obj 844 49 inlet freq_link;
#X obj 765 201 / 127;
#X obj 707 95 inlet pitch, f 12;
#X obj 5 196 oscformat Instruments gens\$1 control x;
#X obj 66 233 oscformat Instruments gens\$1 level x;
#X obj 289 296 oscformat Instruments gens\$1 wave selection;
#X obj 362 195 oscformat Instruments gens\$1 lvl_link x;
#X obj 542 232 oscformat Instruments gens\$1 pan x;
#X obj 698 262 oscformat Instruments gens\$1 pan_link x;
#X obj 762 296 oscformat Instruments gens\$1 freq.x;
#X obj 792 357 oscformat Instruments gens\$1 freq_link x, f 43;
#X obj 82 133 osc-output level;
#X obj 510 138 osc-output pan;
#X obj 742 156 osc-output pitch;
#X connect 1 0 10 0;
#X connect 2 0 18 0;
#X connect 3 0 12 0;
#X connect 4 0 13 0;
#X connect 5 0 19 0;
#X connect 6 0 15 0;
#X connect 7 0 17 0;
#X connect 8 0 16 0;
#X connect 9 0 20 0;
#X connect 10 0 0 0;
#X connect 11 0 0 0;
#X connect 12 0 0 0;
#X connect 13 0 0 0;
#X connect 14 0 0 0;
#X connect 15 0 0 0;
#X connect 16 0 0 0;
#X connect 17 0 0 0;
#X connect 18 0 11 0;
#X connect 19 0 14 0;
#X connect 20 0 8 0;
#X restore -455 624 pd osc_send;
#X connect 0 0 40 1;
#X connect 1 0 0 0;
#X connect 2 0 1 1;
#X connect 4 0 21 0;
#X connect 5 0 22 0;
#X connect 6 0 23 0;
#X connect 7 0 22 1;
#X connect 7 0 74 7;
#X connect 8 0 6 0;
#X connect 9 0 67 0;
#X connect 11 0 69 0;
#X connect 13 0 1 0;
#X connect 14 0 12 0;
#X connect 15 0 17 1;
#X connect 16 0 17 0;
#X connect 17 0 14 1;
#X connect 17 0 51 1;
#X connect 18 0 16 0;
#X connect 18 0 25 0;
#X connect 18 0 66 0;
#X connect 19 0 18 0;
#X connect 19 0 36 0;
#X connect 20 0 21 1;
#X connect 20 0 74 3;
#X connect 21 0 13 0;
#X connect 21 0 3 0;
#X connect 21 0 74 1;
#X connect 21 1 4 0;
#X connect 21 2 20 0;
#X connect 22 0 10 0;
#X connect 22 0 8 0;
#X connect 22 0 74 6;
#X connect 22 1 5 0;
#X connect 22 2 7 0;
#X connect 23 0 26 0;
#X connect 24 0 23 1;
#X connect 25 0 42 0;
#X connect 25 0 65 0;
#X connect 25 0 74 2;
#X connect 26 0 41 0;
#X connect 34 0 14 0;
#X connect 34 1 51 0;
#X connect 35 0 44 0;
#X connect 36 0 37 0;
#X connect 37 0 35 0;
#X connect 38 0 68 0;
#X connect 40 0 34 0;
#X connect 41 0 40 0;
#X connect 42 0 40 2;
#X connect 43 0 44 1;
#X connect 43 0 74 5;
#X connect 44 0 39 0;
#X connect 44 0 48 0;
#X connect 44 0 74 4;
#X connect 44 1 35 0;
#X connect 44 2 43 0;
#X connect 47 0 63 1;
#X connect 48 0 47 0;
#X connect 49 0 48 1;
#X connect 51 0 50 0;
#X connect 52 0 36 0;
#X connect 53 0 54 0;
#X connect 54 0 4 0;
#X connect 56 0 57 0;
#X connect 57 0 5 0;
#X connect 60 0 20 0;
#X connect 60 0 43 0;
#X connect 60 0 7 0;
#X connect 61 0 15 0;
#X connect 62 0 41 1;
#X connect 63 0 34 1;
#X connect 64 0 63 0;
#X connect 65 0 25 0;
#X connect 66 0 70 0;
#X connect 67 0 5 0;
#X connect 68 0 35 0;
#X connect 69 0 4 0;
#X connect 70 0 71 0;
#X connect 70 0 72 0;
#X connect 70 0 67 1;
#X connect 70 0 68 1;
#X connect 70 0 69 1;
#X connect 70 0 74 0;
#X connect 71 0 66 0;
#X connect 72 0 70 0;
#X connect 73 0 66 0;
#X connect 73 1 4 0;
#X connect 73 2 25 0;
#X connect 73 3 20 0;
#X connect 73 4 35 0;
#X connect 73 5 20 0;
#X connect 73 6 5 0;
#X connect 73 7 7 0;
#X connect 73 8 57 0;
#X coords 0 -1 1 1 80 220 1 100 100;
