#N canvas 448 215 659 501 10;
#X obj -149 184 bitcrusher;
#X obj 110 138 hsl 128 15 0 1 0 0 empty empty samp 7 8 0 10 -262144
-1 -1 2200 1;
#X obj -149 158 bitcrusher~;
#X obj 110 116 hsl 128 15 0 50 0 0 empty empty bit 7 8 0 10 -262144
-1 -1 1600 1;
#X obj -124 34 inlet~;
#X obj -161 337 outlet~;
#X obj -161 310 xfade.mmb~;
#X obj 110 161 hsl 128 15 0 1 0 0 empty empty mix 7 8 0 10 -262144
-1 -1 3700 1;
#X obj 116 262 line~;
#X obj 116 236 pack f 50;
#X obj 351 197 r line_time;
#X obj 240 -49 inlet bit;
#X obj 323 -48 inlet samp;
#X obj 397 -47 inlet mix;
#X obj 129 380 outlet bit;
#X obj 212 381 outlet samp;
#X obj 296 382 outlet mix;
#X obj 58 15 r line_time;
#X obj 7 65 pack f 50;
#X obj 7 91 line 5;
#X obj 2 139 pack f 50;
#X obj 2 165 line 5;
#X connect 0 0 6 1;
#X connect 1 0 15 0;
#X connect 1 0 20 0;
#X connect 2 0 0 0;
#X connect 3 0 14 0;
#X connect 3 0 18 0;
#X connect 4 0 2 0;
#X connect 4 0 6 0;
#X connect 6 0 5 0;
#X connect 7 0 9 0;
#X connect 7 0 16 0;
#X connect 8 0 6 2;
#X connect 9 0 8 0;
#X connect 10 0 9 1;
#X connect 11 0 3 0;
#X connect 12 0 1 0;
#X connect 13 0 7 0;
#X connect 17 0 18 1;
#X connect 17 0 20 1;
#X connect 18 0 19 0;
#X connect 19 0 2 1;
#X connect 20 0 21 0;
#X connect 21 0 0 1;
#X coords 0 -1 1 1 150 90 1 100 100;
