#N canvas 259 93 812 556 10;
#X obj -155 219 bitcrusher;
#X obj 109 148 hsl 128 15 0 1 0 0 empty empty samp 7 8 0 10 -104064
-262144 -262144 10949 1;
#X obj 109 126 hsl 128 15 0 100 0 0 empty empty bit 7 8 0 10 -104064
-262144 -262144 37 1;
#X obj -124 34 inlet~;
#X obj -152 406 outlet~;
#X obj -152 379 xfade.mmb~;
#X obj 109 171 hsl 128 15 0 1 0 0 empty empty mix 7 8 0 10 -104064
-262144 -262144 0 1;
#X obj 117 269 line~;
#X obj 117 243 pack f 50;
#X obj 169 206 r line_time;
#X obj 240 -49 inlet bit;
#X obj 323 -48 inlet samp;
#X obj 397 -47 inlet mix;
#X obj 148 400 outlet bit;
#X obj 231 401 outlet samp;
#X obj 315 402 outlet mix;
#X obj 58 16 r line_time;
#X obj -3 31 pack f 50;
#X obj -3 57 line 5;
#X obj 11 126 pack f 50;
#X obj 11 149 line 5;
#X obj -233 218 bitcrusher;
#X obj -202 33 inlet~;
#X obj -230 409 outlet~;
#X obj -230 382 xfade.mmb~;
#X obj -233 192 bitcrusher~;
#X obj -3 84 sig~;
#X obj -67 -20 catch~ bit-crush;
#X obj -64 69 *~ 50;
#X obj -57 124 +~;
#X obj -155 193 bitcrusher~;
#X obj -61 250 catch~ samp-crush;
#X obj -61 271 unsig~ 20;
#X obj 4 196 + 0;
#X obj -61 296 t b f;
#X obj -101 156 clip~ 0 100;
#X text -48 -33 mod bit depth;
#X text -24 233 mod samp rate, f 15;
#X obj 300 263 catch~ mix-crush;
#X obj 117 309 +~;
#X text 300 235 mix modulation;
#X obj 221 3 spigot;
#X obj 289 15 spigot;
#X obj 366 22 spigot;
#X obj 224 106 tgl 15 0 empty empty ctrl -25 7 0 10 -262144 -1 -1 1
1;
#X obj 482 28 loadbang;
#X msg 478 54 1;
#X floatatom 400 122 5 0 0 0 - - -, f 5;
#X msg 402 151 set \$1;
#X obj 466 150 store crush-ctrl;
#N canvas 220 488 1302 441 osc_receive 0;
#X obj 372 174 route control;
#X obj 371 196 route x;
#X floatatom 372 224 5 0 0 0 - - -, f 5;
#X obj 369 264 outlet control;
#X floatatom 469 228 5 0 0 0 - - -, f 5;
#X obj 470 267 outlet level;
#X floatatom 682 230 5 0 0 0 - - -, f 5;
#X floatatom 827 234 5 0 0 0 - - -, f 5;
#X obj 834 271 outlet lvl_link;
#X obj 683 269 outlet wave;
#X obj 695 -4 r Instruments;
#X obj 696 45 route Bit, f 13;
#X obj 469 178 osc-input BitDepth, f 23;
#X obj 682 180 osc-input Samplerate;
#X obj 681 202 route x;
#X obj 832 204 route x;
#X obj 833 183 osc-input Mix;
#X obj 468 199 route map, f 52;
#X connect 0 0 1 0;
#X connect 1 0 2 0;
#X connect 2 0 3 0;
#X connect 4 0 5 0;
#X connect 6 0 9 0;
#X connect 7 0 8 0;
#X connect 10 0 11 0;
#X connect 11 0 0 0;
#X connect 11 0 12 0;
#X connect 11 0 13 0;
#X connect 11 0 16 0;
#X connect 12 0 17 0;
#X connect 13 0 14 0;
#X connect 14 0 6 0;
#X connect 15 0 7 0;
#X connect 16 0 15 0;
#X connect 17 0 4 0;
#X restore -16 -153 pd osc_receive;
#N canvas 153 341 1324 639 osc_send 0;
#X obj -51 30 inlet control;
#X obj 64 488 s send_granulate;
#X obj 68 158 * 0.01;
#X obj -60 197 oscformat Instruments Bit control x;
#X obj 60 238 oscformat Instruments Bit BitDepth x;
#X obj 213 261 oscformat Instruments Bit Samplerate x;
#X obj 307 305 oscformat Instruments Bit Mix x;
#X obj 64 118 osc-output Bit;
#X obj 78 45 inlet Bit;
#X obj 169 95 osc-output Samplerate;
#X obj 191 44 inlet Samplerate;
#X obj 334 36 inlet Mix;
#X obj 343 70 osc-output Mix;
#X connect 0 0 3 0;
#X connect 2 0 4 0;
#X connect 3 0 1 0;
#X connect 4 0 1 0;
#X connect 5 0 1 0;
#X connect 6 0 1 0;
#X connect 7 0 2 0;
#X connect 8 0 7 0;
#X connect 9 0 5 0;
#X connect 10 0 9 0;
#X connect 11 0 12 0;
#X connect 12 0 6 0;
#X restore 187 483 pd osc_send;
#X connect 0 0 5 1;
#X connect 1 0 14 0;
#X connect 1 0 19 0;
#X connect 1 0 51 2;
#X connect 2 0 13 0;
#X connect 2 0 17 0;
#X connect 2 0 51 1;
#X connect 3 0 5 0;
#X connect 3 0 30 0;
#X connect 5 0 4 0;
#X connect 6 0 8 0;
#X connect 6 0 15 0;
#X connect 6 0 51 3;
#X connect 7 0 39 0;
#X connect 8 0 7 0;
#X connect 9 0 8 1;
#X connect 10 0 41 0;
#X connect 11 0 42 0;
#X connect 12 0 43 0;
#X connect 16 0 17 1;
#X connect 16 0 19 1;
#X connect 17 0 18 0;
#X connect 18 0 26 0;
#X connect 19 0 20 0;
#X connect 20 0 33 0;
#X connect 21 0 24 1;
#X connect 22 0 24 0;
#X connect 22 0 25 0;
#X connect 24 0 23 0;
#X connect 25 0 21 0;
#X connect 26 0 29 1;
#X connect 27 0 28 0;
#X connect 28 0 29 0;
#X connect 29 0 35 0;
#X connect 30 0 0 0;
#X connect 31 0 32 0;
#X connect 32 0 34 0;
#X connect 33 0 21 1;
#X connect 33 0 0 1;
#X connect 34 0 33 0;
#X connect 34 1 33 1;
#X connect 35 0 30 1;
#X connect 35 0 25 1;
#X connect 38 0 39 1;
#X connect 39 0 24 2;
#X connect 39 0 5 2;
#X connect 41 0 2 0;
#X connect 42 0 1 0;
#X connect 43 0 6 0;
#X connect 44 0 47 0;
#X connect 45 0 46 0;
#X connect 46 0 44 0;
#X connect 47 0 48 0;
#X connect 47 0 49 0;
#X connect 47 0 41 1;
#X connect 47 0 42 1;
#X connect 47 0 43 1;
#X connect 47 0 51 0;
#X connect 48 0 44 0;
#X connect 49 0 47 0;
#X connect 50 0 44 0;
#X connect 50 1 2 0;
#X connect 50 2 1 0;
#X connect 50 3 6 0;
#X coords 0 -1 1 1 150 90 1 100 100;
