#N canvas 409 94 1159 745 12;
#X obj 326 845 outlet~;
#X obj 389 845 outlet~;
#X obj 315 317 line~;
#X obj 315 231 pack f f;
#X obj -126 413 +~ 0.5;
#X obj -126 469 *~ 0.5;
#X obj -126 497 +~ 0.5;
#X obj 331 394 samphold~;
#X obj 400 278 * 44.1;
#X obj 400 303 sig~;
#X obj 400 328 +~;
#X obj 460 227 noise~;
#X obj 464 260 abs~;
#X obj 477 295 *~ 44.1;
#X obj 529 258 * 44.1;
#X obj 315 166 * 44.1;
#X obj 315 78 inlet;
#X msg 315 284 0 \, \$1 \$2;
#X obj 314 428 +~;
#X obj 327 742 *~;
#X obj 102 564 line~;
#X msg -127 314 0 \, 1 \$1;
#X obj 314 482 tabread4~ \$1;
#X obj 513 129 random;
#X obj 520 70 t b f;
#X obj 552 97 * 2;
#X obj 518 161 -;
#X obj 520 190 * 0.01;
#X obj 352 195 +;
#X obj 315 117 unpack f f f f f f f;
#X obj 624 259 t b f;
#X obj 624 316 random;
#X obj 663 287 * 2;
#X obj 624 341 -;
#X obj 624 366 * 0.01;
#X obj 326 779 *~;
#X obj 389 779 *~;
#X obj 514 516 +~;
#X obj 514 423 line~;
#X obj 514 391 pack f 20;
#X obj 514 448 *~ -1;
#X obj 514 473 +~ 1;
#X obj 559 516 +~;
#X obj 624 429 line~;
#X obj 624 397 pack f 20;
#X obj 623 472 *~ -1;
#X obj -8 490 -~ 1;
#X obj 326 809 *~;
#X obj 389 811 *~;
#X obj 745 587 line~;
#X obj 842 181 sel 0 1;
#X obj 849 46 r grain-switch-\$1;
#X obj -8 538 *~;
#X obj 11 17 r grain-envelope-\$1;
#X obj -126 381 line~;
#X obj -126 533 *~;
#X obj 134 630 *~;
#X obj -15 577 *~;
#X obj -59 183 line~;
#X msg -62 156 \$1 10;
#X obj -59 132 str_xfade 1;
#X obj 45 123 line~;
#X msg 42 96 \$1 10;
#X obj 45 72 str_xfade 2;
#X obj 186 160 line~;
#X msg 183 133 \$1 10;
#X obj 186 109 str_xfade 3;
#X obj -8 456 line~;
#X floatatom 224 31 5 0 0 0 - - -, f 5;
#X obj 850 90 >= \$2;
#X text 285 2 1 - size;
#X text 277 37 2 - size (pitch);
#X obj 632 100 samplerate~;
#X obj 628 67 loadbang;
#X floatatom 408 8 6 0 0 0 - - -, f 6;
#X text 468 8 3 - pos;
#X text 480 30 4 - pos j;
#X floatatom 422 32 6 0 0 0 - - -, f 6;
#X floatatom 558 10 5 0 0 0 - - -, f 5;
#X floatatom 572 36 5 0 0 0 - - -, f 5;
#X obj 749 61 bng 15 250 50 0 empty empty empty 17 7 0 10 -262144 -1
-1;
#X obj 632 125 * 0.001;
#X text 612 8 5 - ptchj;
#X obj 172 215 f;
#X text 27 601 hit;
#X text 186 645 rise;
#X obj -126 441 cos~;
#X msg 836 440 1 100;
#X obj 847 129 change;
#X msg 759 443 0 50;
#X obj 156 416 f;
#X msg 166 448 1 \$1;
#X obj 104 414 f;
#X obj 48 359 del;
#X msg 100 453 0 \$1;
#X obj 90 365 * 0.1;
#X obj 152 293 t f b;
#X obj 152 367 * 0.5;
#X msg 274 373 0 3;
#X obj 214 370 del 5;
#X floatatom 240 533 5 0 0 0 - - -, f 5;
#X obj 95 694 lop~ 150;
#X connect 2 0 7 1;
#X connect 2 0 18 0;
#X connect 3 0 17 0;
#X connect 4 0 86 0;
#X connect 5 0 6 0;
#X connect 6 0 55 0;
#X connect 7 0 18 1;
#X connect 8 0 9 0;
#X connect 9 0 10 0;
#X connect 10 0 7 0;
#X connect 11 0 12 0;
#X connect 12 0 13 0;
#X connect 13 0 10 1;
#X connect 14 0 13 1;
#X connect 15 0 3 0;
#X connect 16 0 29 0;
#X connect 17 0 2 0;
#X connect 18 0 22 0;
#X connect 19 0 35 0;
#X connect 19 0 36 0;
#X connect 20 0 56 0;
#X connect 21 0 54 0;
#X connect 21 0 67 0;
#X connect 22 0 19 1;
#X connect 23 0 26 0;
#X connect 24 0 23 0;
#X connect 24 1 25 0;
#X connect 24 1 26 1;
#X connect 25 0 23 1;
#X connect 26 0 27 0;
#X connect 27 0 28 1;
#X connect 28 0 3 1;
#X connect 28 0 83 1;
#X connect 29 0 15 0;
#X connect 29 1 28 0;
#X connect 29 1 68 0;
#X connect 29 1 83 0;
#X connect 29 2 8 0;
#X connect 29 2 74 0;
#X connect 29 3 14 0;
#X connect 29 3 77 0;
#X connect 29 4 24 0;
#X connect 29 4 78 0;
#X connect 29 5 39 0;
#X connect 29 5 79 0;
#X connect 29 6 30 0;
#X connect 30 0 31 0;
#X connect 30 1 32 0;
#X connect 30 1 33 1;
#X connect 31 0 33 0;
#X connect 32 0 31 1;
#X connect 33 0 34 0;
#X connect 34 0 44 0;
#X connect 35 0 47 0;
#X connect 36 0 48 0;
#X connect 37 0 35 1;
#X connect 38 0 40 0;
#X connect 38 0 42 0;
#X connect 39 0 38 0;
#X connect 40 0 41 0;
#X connect 41 0 37 0;
#X connect 42 0 36 1;
#X connect 43 0 37 1;
#X connect 43 0 45 0;
#X connect 44 0 43 0;
#X connect 45 0 42 1;
#X connect 46 0 52 0;
#X connect 46 0 52 1;
#X connect 47 0 0 0;
#X connect 48 0 1 0;
#X connect 49 0 47 1;
#X connect 49 0 48 1;
#X connect 50 0 89 0;
#X connect 50 1 87 0;
#X connect 51 0 69 0;
#X connect 52 0 57 0;
#X connect 53 0 60 0;
#X connect 53 0 63 0;
#X connect 53 0 66 0;
#X connect 54 0 4 0;
#X connect 55 0 101 0;
#X connect 56 0 101 0;
#X connect 57 0 101 0;
#X connect 58 0 56 1;
#X connect 59 0 58 0;
#X connect 60 0 59 0;
#X connect 61 0 55 1;
#X connect 62 0 61 0;
#X connect 63 0 62 0;
#X connect 64 0 57 1;
#X connect 65 0 64 0;
#X connect 66 0 65 0;
#X connect 67 0 46 0;
#X connect 69 0 88 0;
#X connect 72 0 81 0;
#X connect 73 0 72 0;
#X connect 80 0 72 0;
#X connect 81 0 14 1;
#X connect 81 0 15 1;
#X connect 83 0 21 0;
#X connect 83 0 96 0;
#X connect 86 0 5 0;
#X connect 87 0 49 0;
#X connect 88 0 50 0;
#X connect 89 0 49 0;
#X connect 90 0 91 0;
#X connect 91 0 20 0;
#X connect 92 0 94 0;
#X connect 93 0 92 0;
#X connect 94 0 20 0;
#X connect 95 0 92 1;
#X connect 96 0 95 0;
#X connect 96 0 97 0;
#X connect 96 1 98 0;
#X connect 96 1 99 0;
#X connect 97 0 90 1;
#X connect 97 0 93 0;
#X connect 97 0 100 0;
#X connect 98 0 20 0;
#X connect 99 0 90 0;
#X connect 101 0 19 0;
