#N canvas 343 72 506 698 12;
#X obj 108 655 outlet~;
#X obj 127 374 line~;
#X obj 127 288 pack f f;
#X obj 52 455 +~ 0.5;
#X obj 52 480 cos~;
#X obj 52 505 *~ 0.5;
#X obj 52 530 +~ 0.5;
#X obj 143 451 samphold~;
#X obj 212 335 * 44.1;
#X obj 212 360 sig~;
#X obj 212 385 +~;
#X obj 290 286 noise~;
#X obj 290 311 abs~;
#X obj 289 352 *~ 44.1;
#X obj 341 315 * 44.1;
#X obj 127 222 * 44.1;
#X obj 127 135 inlet;
#X msg 127 341 0 \, \$1 \$2;
#X obj 126 485 +~;
#X obj 108 625 *~;
#X obj 51 367 line~;
#X obj 51 242 t b;
#X obj 51 303 f;
#X msg 51 342 0 \, 1 \$1;
#X obj 126 539 tabread4~ \$1;
#X obj 293 179 random;
#X obj 300 120 t b f;
#X obj 332 147 * 2;
#X obj 293 204 -;
#X obj 293 229 * 0.01;
#X obj 164 252 +;
#X obj 127 174 unpack f f f f f;
#X obj 296 533 switch~;
#X obj 358 492 tgl 15 0 empty empty empty 17 7 0 10 -262144 -1 -1 0
1;
#X obj 400 203 inlet;
#X text 23 18 1 - trig;
#X text 103 18 2 - Lsz;
#X text 181 19 3 - L_pit;
#X text 273 20 4 - noise?;
#X connect 1 0 7 1;
#X connect 1 0 18 0;
#X connect 2 0 17 0;
#X connect 3 0 4 0;
#X connect 4 0 5 0;
#X connect 5 0 6 0;
#X connect 6 0 19 0;
#X connect 7 0 18 1;
#X connect 8 0 9 0;
#X connect 9 0 10 0;
#X connect 10 0 7 0;
#X connect 11 0 12 0;
#X connect 12 0 13 0;
#X connect 13 0 10 1;
#X connect 14 0 13 1;
#X connect 15 0 2 0;
#X connect 16 0 31 0;
#X connect 17 0 1 0;
#X connect 18 0 24 0;
#X connect 19 0 0 0;
#X connect 20 0 3 0;
#X connect 21 0 22 0;
#X connect 22 0 23 0;
#X connect 23 0 20 0;
#X connect 24 0 19 1;
#X connect 25 0 28 0;
#X connect 26 0 25 0;
#X connect 26 1 27 0;
#X connect 26 1 28 1;
#X connect 27 0 25 1;
#X connect 28 0 29 0;
#X connect 29 0 30 1;
#X connect 30 0 2 1;
#X connect 30 0 22 1;
#X connect 31 0 15 0;
#X connect 31 0 21 0;
#X connect 31 1 30 0;
#X connect 31 2 8 0;
#X connect 31 3 14 0;
#X connect 31 4 26 0;
#X connect 33 0 32 0;
#X connect 34 0 33 0;
