#N canvas 245 129 996 699 10;
#N canvas 7 91 1752 988 grainstates2c 0;
#X obj -191 753 +;
#X obj -129 720 random;
#X obj -157 820 delay 0;
#X obj -218 780 metro 100;
#X obj -184 721 * 300;
#X obj -184 697 *;
#X obj -182 671 t f f;
#X obj -107 691 * 150;
#X obj -106 940 outlet~;
#X obj -86 630 abs_grainstates_2c_tables;
#X obj 102 935 outlet~;
#X obj 513 194 openpanel;
#X obj -351 -5 loadbang;
#X obj 457 220 bng 15 250 50 0 empty empty load -28 8 0 10 -262144
-1 -1;
#X obj 529 220 t b a;
#X msg 593 247 set symbol \$1;
#X obj 709 -52 inlet;
#X obj 335 -30 inlet;
#X obj 407 -30 inlet;
#X obj 473 -29 inlet;
#X obj 331 -3 / 128;
#X obj 407 -4 / 128;
#X obj 473 -4 / 128;
#X obj -130 40 inlet;
#X text -126 21 spos;
#N canvas 120 332 968 652 gs2scene_1 0;
#X obj 16 8 inlet;
#X text 15 -10 parameterlist;
#X obj 421 545 outlet;
#X obj -189 -92 inlet;
#X msg -360 233 set \$1gs1dens;
#X obj -360 264 tabwrite;
#X obj -241 300 tabwrite;
#X obj -161 361 tabwrite;
#X obj -66 374 tabwrite;
#X obj -5 437 tabwrite;
#X obj 114 462 tabwrite;
#X obj 229 462 tabwrite;
#X msg -159 337 set \$1gs1len;
#X msg -67 340 set \$1gs1lenr;
#X msg 18 410 set \$1gs1ramp;
#X msg 125 437 set \$1gs1pos;
#X msg 243 425 set \$1gs1posr;
#X obj 185 336 tabwrite;
#X msg 190 304 set \$1gs1tp;
#X obj 337 289 tabwrite;
#X msg 336 265 set \$1gs1tpr;
#X obj 463 318 tabwrite;
#X msg 463 279 set \$1gs1panr;
#X msg -243 270 set \$1gs1densr;
#X obj 297 -75 inlet;
#X obj 294 -46 t b b b;
#X obj 94 100 spigot 1;
#X msg 253 -11 1;
#X msg 330 -11 0;
#X text -196 -109 gstables_dollar0_nr (on load);
#X obj 324 121 outlet;
#X text 320 137 scene2userinterface;
#X msg 421 522 color \$1;
#X text 470 548 color;
#X obj 523 94 inlet;
#X text 526 75 tp;
#X msg 96 31 set \$1 \$2 \$3 \$4 \$5 \$6 \$7 \$8 \$9;
#X obj 90 128 unpack f f f f f f f f f;
#X text 296 -89 bang for output;
#X obj 384 465 abs_grainstates_2c_colour;
#X obj 213 102 spigot 0;
#X msg 365 -13 1;
#X msg 283 -12 0;
#X obj -188 -68 t b b f;
#X obj -214 -35 t b b;
#X obj -265 -32 t b b;
#X msg -267 10 0;
#X msg -324 8 1;
#X msg 97 64 0 0 0 0 0.121053 0.321569 0 0.389474 0.315789;
#X connect 0 0 36 0;
#X connect 0 0 37 0;
#X connect 3 0 43 0;
#X connect 4 0 5 0;
#X connect 12 0 7 0;
#X connect 13 0 8 0;
#X connect 14 0 9 0;
#X connect 15 0 10 0;
#X connect 16 0 11 0;
#X connect 18 0 17 0;
#X connect 20 0 19 0;
#X connect 22 0 21 0;
#X connect 23 0 6 0;
#X connect 24 0 25 0;
#X connect 25 0 27 0;
#X connect 25 0 42 0;
#X connect 25 1 48 0;
#X connect 25 2 28 0;
#X connect 25 2 41 0;
#X connect 26 0 37 0;
#X connect 27 0 26 1;
#X connect 28 0 26 1;
#X connect 32 0 2 0;
#X connect 34 0 17 0;
#X connect 36 0 48 0;
#X connect 37 0 5 0;
#X connect 37 0 39 0;
#X connect 37 1 6 0;
#X connect 37 1 39 1;
#X connect 37 2 7 0;
#X connect 37 2 39 2;
#X connect 37 3 8 0;
#X connect 37 3 39 3;
#X connect 37 4 9 0;
#X connect 37 4 39 4;
#X connect 37 5 10 0;
#X connect 37 5 39 5;
#X connect 37 6 11 0;
#X connect 37 6 39 6;
#X connect 37 7 19 0;
#X connect 37 7 39 7;
#X connect 37 8 21 0;
#X connect 37 8 39 8;
#X connect 39 0 32 0;
#X connect 40 0 30 0;
#X connect 41 0 40 1;
#X connect 42 0 40 1;
#X connect 43 0 45 0;
#X connect 43 1 44 0;
#X connect 43 2 4 0;
#X connect 43 2 23 0;
#X connect 43 2 12 0;
#X connect 43 2 13 0;
#X connect 43 2 14 0;
#X connect 43 2 15 0;
#X connect 43 2 16 0;
#X connect 43 2 18 0;
#X connect 43 2 20 0;
#X connect 43 2 22 0;
#X connect 44 0 48 0;
#X connect 44 1 46 0;
#X connect 45 0 48 0;
#X connect 45 1 47 0;
#X connect 46 0 5 1;
#X connect 46 0 6 1;
#X connect 46 0 7 1;
#X connect 46 0 8 1;
#X connect 46 0 9 1;
#X connect 46 0 10 1;
#X connect 46 0 11 1;
#X connect 46 0 17 1;
#X connect 46 0 19 1;
#X connect 46 0 21 1;
#X connect 47 0 5 1;
#X connect 47 0 6 1;
#X connect 47 0 7 1;
#X connect 47 0 8 1;
#X connect 47 0 9 1;
#X connect 47 0 10 1;
#X connect 47 0 11 1;
#X connect 47 0 17 1;
#X connect 47 0 19 1;
#X connect 47 0 21 1;
#X connect 48 0 26 0;
#X connect 48 0 40 0;
#X restore 240 703 pd gs2scene_1;
#X obj 111 153 hsl 256 15 0 1 0 0 empty empty length 2 8 0 10 -262144
-1 -1 625 1;
#X obj 111 171 hsl 256 8 0 1 0 0 empty empty rnd 2 4 0 10 -262144 -1
-1 200 1;
#X obj 377 163 hsl 96 15 0 0.5 0 0 empty empty ramp 2 8 0 10 -262144
-1 -1 2300 1;
#X obj 111 116 hsl 256 15 0 1 0 0 empty empty position 2 8 0 10 -262144
-1 -1 24900 1;
#X obj 377 183 hsl 96 15 0 1 0 0 empty empty pan_rnd 2 8 0 10 -262144
-1 -1 4900 1;
#X obj 377 143 hsl 96 15 0 1 0 0 empty empty pitch_rnd 2 8 0 10 -262144
-1 -1 0 1;
#X obj 111 134 hsl 256 8 0 1 0 0 empty empty rnd 2 4 0 10 -262144 -1
-1 400 1;
#X obj 111 190 hsl 256 15 0 1 0 0 empty empty density 2 8 0 10 -262144
-1 -1 8150 1;
#X obj 111 208 hsl 256 8 0 1 0 0 empty empty rnd 2 4 0 10 -262144 -1
-1 2900 1;
#X obj 154 639 route 0 1 2 3 4 5 6 7;
#X obj 126 567 int;
#X obj -12 260 delay 1;
#X obj 48 800 +;
#X obj 253 -29 inlet;
#X obj 107 222 bng 30 250 50 0 empty empty s1 10 10 0 10 -153740 -1
-262144;
#X msg -270 395 0;
#X obj 148 222 bng 30 250 50 0 empty empty s2 10 10 0 10 -127103 -1
-262144;
#X msg -241 395 1;
#N canvas 97 258 968 652 gs2scene_2 0;
#X obj 16 8 inlet;
#X text 15 -10 parameterlist;
#X obj 421 545 outlet;
#X obj -189 -92 inlet;
#X msg -360 233 set \$1gs1dens;
#X obj -360 264 tabwrite;
#X obj -241 300 tabwrite;
#X obj -161 361 tabwrite;
#X obj -188 -68 t b b f;
#X obj -66 374 tabwrite;
#X obj -5 437 tabwrite;
#X obj 114 462 tabwrite;
#X obj 229 462 tabwrite;
#X msg -159 337 set \$1gs1len;
#X msg -67 340 set \$1gs1lenr;
#X msg 18 410 set \$1gs1ramp;
#X msg 125 437 set \$1gs1pos;
#X msg 243 425 set \$1gs1posr;
#X obj 199 337 tabwrite;
#X msg 204 305 set \$1gs1tp;
#X obj 332 303 tabwrite;
#X msg 329 280 set \$1gs1tpr;
#X obj 463 318 tabwrite;
#X msg 460 291 set \$1gs1panr;
#X msg -243 270 set \$1gs1densr;
#X obj 297 -75 inlet;
#X obj 294 -46 t b b b;
#X obj 94 100 spigot 1;
#X msg 253 -11 1;
#X msg 330 -11 0;
#X text -196 -109 gstables_dollar0_nr (on load);
#X obj 313 140 outlet;
#X text 309 156 scene2userinterface;
#X msg 421 522 color \$1;
#X text 470 548 color;
#X msg -264 -19 2;
#X obj 523 91 inlet;
#X msg 96 31 set \$1 \$2 \$3 \$4 \$5 \$6 \$7 \$8 \$9;
#X obj 107 127 unpack f f f f f f f f f;
#X text 526 75 tp;
#X text 296 -89 bang for output;
#X obj 213 102 spigot 0;
#X msg 365 -13 1;
#X msg 283 -12 0;
#X obj 414 469 abs_grainstates_2c_colour;
#X msg 96 64 0.392157 0 0.780392 0 0 0.321569 0.0313726 0 0.326316
;
#X connect 0 0 37 0;
#X connect 0 0 38 0;
#X connect 3 0 8 0;
#X connect 4 0 5 0;
#X connect 8 0 45 0;
#X connect 8 1 35 0;
#X connect 8 2 4 0;
#X connect 8 2 24 0;
#X connect 8 2 13 0;
#X connect 8 2 14 0;
#X connect 8 2 15 0;
#X connect 8 2 16 0;
#X connect 8 2 17 0;
#X connect 8 2 19 0;
#X connect 8 2 21 0;
#X connect 8 2 23 0;
#X connect 13 0 7 0;
#X connect 14 0 9 0;
#X connect 15 0 10 0;
#X connect 16 0 11 0;
#X connect 17 0 12 0;
#X connect 19 0 18 0;
#X connect 21 0 20 0;
#X connect 23 0 22 0;
#X connect 24 0 6 0;
#X connect 25 0 26 0;
#X connect 26 0 28 0;
#X connect 26 0 43 0;
#X connect 26 1 45 0;
#X connect 26 2 29 0;
#X connect 26 2 42 0;
#X connect 27 0 38 0;
#X connect 28 0 27 1;
#X connect 29 0 27 1;
#X connect 33 0 2 0;
#X connect 35 0 5 1;
#X connect 35 0 6 1;
#X connect 35 0 7 1;
#X connect 35 0 9 1;
#X connect 35 0 10 1;
#X connect 35 0 11 1;
#X connect 35 0 12 1;
#X connect 35 0 18 1;
#X connect 35 0 20 1;
#X connect 35 0 22 1;
#X connect 36 0 18 0;
#X connect 37 0 45 0;
#X connect 38 0 5 0;
#X connect 38 0 44 0;
#X connect 38 1 6 0;
#X connect 38 1 44 1;
#X connect 38 2 7 0;
#X connect 38 2 44 2;
#X connect 38 3 9 0;
#X connect 38 3 44 3;
#X connect 38 4 10 0;
#X connect 38 4 44 4;
#X connect 38 5 11 0;
#X connect 38 5 44 5;
#X connect 38 6 12 0;
#X connect 38 6 44 6;
#X connect 38 7 20 0;
#X connect 38 7 44 7;
#X connect 38 8 22 0;
#X connect 38 8 44 8;
#X connect 41 0 31 0;
#X connect 42 0 41 1;
#X connect 43 0 41 1;
#X connect 44 0 33 0;
#X connect 45 0 27 0;
#X connect 45 0 41 0;
#X restore 274 736 pd gs2scene_2;
#X obj 118 259 hsl 296 8 0 7 0 0 empty empty empty -2 -8 0 10 -262144
-1 -1 8429 1;
#X obj 189 222 bng 30 250 50 0 empty empty s3 10 10 0 10 -11756 -1
-262144;
#N canvas 115 152 968 652 gs2scene_3 0;
#X obj 16 8 inlet;
#X text 15 -10 parameterlist;
#X obj 421 545 outlet;
#X obj -189 -92 inlet;
#X msg -360 233 set \$1gs1dens;
#X obj -360 264 tabwrite;
#X obj -241 300 tabwrite;
#X obj -161 361 tabwrite;
#X obj -188 -68 t b b f;
#X obj -66 374 tabwrite;
#X obj -5 437 tabwrite;
#X obj 114 462 tabwrite;
#X obj 229 462 tabwrite;
#X msg -159 337 set \$1gs1len;
#X msg -67 340 set \$1gs1lenr;
#X msg 18 410 set \$1gs1ramp;
#X msg 125 437 set \$1gs1pos;
#X msg 243 425 set \$1gs1posr;
#X obj 221 290 tabwrite;
#X msg 226 258 set \$1gs1tp;
#X obj 332 296 tabwrite;
#X msg 332 268 set \$1gs1tpr;
#X obj 463 318 tabwrite;
#X msg 463 279 set \$1gs1panr;
#X msg -243 270 set \$1gs1densr;
#X obj 297 -75 inlet;
#X obj 294 -46 t b b b;
#X obj 94 100 spigot 1;
#X msg 253 -11 1;
#X msg 330 -11 0;
#X text -196 -109 gstables_dollar0_nr (on load);
#X obj 313 140 outlet;
#X text 309 156 scene2userinterface;
#X msg 421 522 color \$1;
#X text 470 548 color;
#X msg -264 -19 3;
#X obj 523 94 inlet;
#X text 526 75 tp;
#X text 296 -89 bang for output;
#X obj 94 131 unpack f f f f f f f f f;
#X msg 96 31 set \$1 \$2 \$3 \$4 \$5 \$6 \$7 \$8 \$9;
#X obj 213 102 spigot 0;
#X msg 365 -13 1;
#X msg 283 -12 0;
#X obj 426 469 abs_grainstates_2c_colour;
#X msg 96 64 0.319608 0.113725 0.0245098 0.00784314 0.121053 0.976471
0.0156863 0 0.515789;
#X connect 0 0 40 0;
#X connect 0 0 39 0;
#X connect 3 0 8 0;
#X connect 4 0 5 0;
#X connect 8 0 45 0;
#X connect 8 1 35 0;
#X connect 8 2 4 0;
#X connect 8 2 24 0;
#X connect 8 2 13 0;
#X connect 8 2 14 0;
#X connect 8 2 15 0;
#X connect 8 2 16 0;
#X connect 8 2 17 0;
#X connect 8 2 19 0;
#X connect 8 2 21 0;
#X connect 8 2 23 0;
#X connect 13 0 7 0;
#X connect 14 0 9 0;
#X connect 15 0 10 0;
#X connect 16 0 11 0;
#X connect 17 0 12 0;
#X connect 19 0 18 0;
#X connect 21 0 20 0;
#X connect 23 0 22 0;
#X connect 24 0 6 0;
#X connect 25 0 26 0;
#X connect 26 0 28 0;
#X connect 26 0 43 0;
#X connect 26 1 45 0;
#X connect 26 2 29 0;
#X connect 26 2 42 0;
#X connect 27 0 39 0;
#X connect 28 0 27 1;
#X connect 29 0 27 1;
#X connect 33 0 2 0;
#X connect 35 0 5 1;
#X connect 35 0 6 1;
#X connect 35 0 7 1;
#X connect 35 0 9 1;
#X connect 35 0 10 1;
#X connect 35 0 11 1;
#X connect 35 0 12 1;
#X connect 35 0 18 1;
#X connect 35 0 20 1;
#X connect 35 0 22 1;
#X connect 36 0 18 0;
#X connect 39 0 5 0;
#X connect 39 0 44 0;
#X connect 39 1 6 0;
#X connect 39 1 44 1;
#X connect 39 2 7 0;
#X connect 39 2 44 2;
#X connect 39 3 9 0;
#X connect 39 3 44 3;
#X connect 39 4 10 0;
#X connect 39 4 44 4;
#X connect 39 5 11 0;
#X connect 39 5 44 5;
#X connect 39 6 12 0;
#X connect 39 6 44 6;
#X connect 39 7 20 0;
#X connect 39 7 44 7;
#X connect 39 8 22 0;
#X connect 39 8 44 8;
#X connect 40 0 45 0;
#X connect 41 0 31 0;
#X connect 42 0 41 1;
#X connect 43 0 41 1;
#X connect 44 0 33 0;
#X connect 45 0 27 0;
#X connect 45 0 41 0;
#X restore 306 763 pd gs2scene_3;
#X msg -211 395 2;
#X text 250 -43 tp;
#X text 331 -45 thinner;
#X text 405 -45 shorter;
#X text 472 -45 rand pitch;
#X obj 230 222 bng 30 250 50 0 empty empty s4 10 10 0 10 -2611 -1 -262144
;
#N canvas 133 274 968 652 gs2scene_4 0;
#X obj 16 8 inlet;
#X text 15 -10 parameterlist;
#X obj 421 545 outlet;
#X obj -189 -92 inlet;
#X msg -360 233 set \$1gs1dens;
#X obj -360 264 tabwrite;
#X obj -241 300 tabwrite;
#X obj -161 361 tabwrite;
#X obj -188 -68 t b b f;
#X obj -66 374 tabwrite;
#X obj -5 437 tabwrite;
#X obj 114 462 tabwrite;
#X obj 229 462 tabwrite;
#X msg -159 337 set \$1gs1len;
#X msg -67 340 set \$1gs1lenr;
#X msg 18 410 set \$1gs1ramp;
#X msg 125 437 set \$1gs1pos;
#X msg 243 425 set \$1gs1posr;
#X obj 221 290 tabwrite;
#X msg 226 258 set \$1gs1tp;
#X obj 335 291 tabwrite;
#X msg 332 268 set \$1gs1tpr;
#X obj 463 318 tabwrite;
#X msg 463 279 set \$1gs1panr;
#X msg -243 270 set \$1gs1densr;
#X obj 297 -75 inlet;
#X obj 294 -46 t b b b;
#X obj 94 100 spigot 1;
#X msg 253 -11 1;
#X msg 330 -11 0;
#X text -196 -109 gstables_dollar0_nr (on load);
#X obj 313 140 outlet;
#X text 309 156 scene2userinterface;
#X msg 421 522 color \$1;
#X text 470 548 color;
#X msg -264 -19 4;
#X obj 523 94 inlet;
#X text 526 75 tp;
#X text 296 -89 bang for output;
#X obj 89 128 unpack f f f f f f f f f;
#X msg 96 31 set \$1 \$2 \$3 \$4 \$5 \$6 \$7 \$8 \$9;
#X obj 213 102 spigot 0;
#X msg 365 -13 1;
#X msg 283 -12 0;
#X obj 426 469 abs_grainstates_2c_colour;
#X msg 96 64 0.358824 0.0509804 0.00392157 0.0156863 0.115789 0.0352941
0.0156863 0 0.757895;
#X connect 0 0 40 0;
#X connect 0 0 39 0;
#X connect 3 0 8 0;
#X connect 4 0 5 0;
#X connect 8 0 45 0;
#X connect 8 1 35 0;
#X connect 8 2 4 0;
#X connect 8 2 24 0;
#X connect 8 2 13 0;
#X connect 8 2 14 0;
#X connect 8 2 15 0;
#X connect 8 2 16 0;
#X connect 8 2 17 0;
#X connect 8 2 19 0;
#X connect 8 2 21 0;
#X connect 8 2 23 0;
#X connect 13 0 7 0;
#X connect 14 0 9 0;
#X connect 15 0 10 0;
#X connect 16 0 11 0;
#X connect 17 0 12 0;
#X connect 19 0 18 0;
#X connect 21 0 20 0;
#X connect 23 0 22 0;
#X connect 24 0 6 0;
#X connect 25 0 26 0;
#X connect 26 0 28 0;
#X connect 26 0 43 0;
#X connect 26 1 45 0;
#X connect 26 2 29 0;
#X connect 26 2 42 0;
#X connect 27 0 39 0;
#X connect 28 0 27 1;
#X connect 29 0 27 1;
#X connect 33 0 2 0;
#X connect 35 0 5 1;
#X connect 35 0 6 1;
#X connect 35 0 7 1;
#X connect 35 0 9 1;
#X connect 35 0 10 1;
#X connect 35 0 11 1;
#X connect 35 0 12 1;
#X connect 35 0 18 1;
#X connect 35 0 20 1;
#X connect 35 0 22 1;
#X connect 36 0 18 0;
#X connect 39 0 5 0;
#X connect 39 0 44 0;
#X connect 39 1 6 0;
#X connect 39 1 44 1;
#X connect 39 2 7 0;
#X connect 39 2 44 2;
#X connect 39 3 9 0;
#X connect 39 3 44 3;
#X connect 39 4 10 0;
#X connect 39 4 44 4;
#X connect 39 5 11 0;
#X connect 39 5 44 5;
#X connect 39 6 12 0;
#X connect 39 6 44 6;
#X connect 39 7 20 0;
#X connect 39 7 44 7;
#X connect 39 8 22 0;
#X connect 39 8 44 8;
#X connect 40 0 45 0;
#X connect 41 0 31 0;
#X connect 42 0 41 1;
#X connect 43 0 41 1;
#X connect 44 0 33 0;
#X connect 45 0 27 0;
#X connect 45 0 41 0;
#X restore 301 790 pd gs2scene_4;
#X msg -172 395 3;
#X obj 271 222 bng 30 250 50 0 empty empty s5 10 10 0 10 -206757 -1
-262144;
#N canvas 180 226 968 652 gs2scene_5 0;
#X obj 16 8 inlet;
#X text 15 -10 parameterlist;
#X obj 421 545 outlet;
#X obj -189 -92 inlet;
#X msg -360 233 set \$1gs1dens;
#X obj -360 264 tabwrite;
#X obj -241 300 tabwrite;
#X obj -161 361 tabwrite;
#X obj -188 -68 t b b f;
#X obj -66 374 tabwrite;
#X obj -5 437 tabwrite;
#X obj 114 462 tabwrite;
#X obj 229 462 tabwrite;
#X msg -159 337 set \$1gs1len;
#X msg -67 340 set \$1gs1lenr;
#X msg 18 410 set \$1gs1ramp;
#X msg 125 437 set \$1gs1pos;
#X msg 243 425 set \$1gs1posr;
#X obj 216 322 tabwrite;
#X msg 221 290 set \$1gs1tp;
#X obj 335 291 tabwrite;
#X msg 332 268 set \$1gs1tpr;
#X obj 463 318 tabwrite;
#X msg 463 279 set \$1gs1panr;
#X msg -243 270 set \$1gs1densr;
#X obj 297 -75 inlet;
#X obj 294 -46 t b b b;
#X obj 94 100 spigot 1;
#X msg 253 -11 1;
#X msg 330 -11 0;
#X text -196 -109 gstables_dollar0_nr (on load);
#X obj 305 121 outlet;
#X text 301 137 scene2userinterface;
#X msg 421 522 color \$1;
#X text 470 548 color;
#X msg -264 -19 5;
#X obj 523 94 inlet;
#X text 526 75 tp;
#X text 296 -89 bang for output;
#X msg 96 31 set \$1 \$2 \$3 \$4 \$5 \$6 \$7 \$8 \$9;
#X obj 90 129 unpack f f f f f f f f f;
#X obj 213 102 spigot 0;
#X msg 365 -13 1;
#X msg 283 -12 0;
#X obj 426 469 abs_grainstates_2c_colour;
#X msg 96 64 0.421569 0.0980392 0.0245098 0.00784314 0.121053 0.290196
0.0156863 0 0.515789;
#X connect 0 0 39 0;
#X connect 0 0 40 0;
#X connect 3 0 8 0;
#X connect 4 0 5 0;
#X connect 8 0 45 0;
#X connect 8 1 35 0;
#X connect 8 2 4 0;
#X connect 8 2 24 0;
#X connect 8 2 13 0;
#X connect 8 2 14 0;
#X connect 8 2 15 0;
#X connect 8 2 16 0;
#X connect 8 2 17 0;
#X connect 8 2 19 0;
#X connect 8 2 21 0;
#X connect 8 2 23 0;
#X connect 13 0 7 0;
#X connect 14 0 9 0;
#X connect 15 0 10 0;
#X connect 16 0 11 0;
#X connect 17 0 12 0;
#X connect 19 0 18 0;
#X connect 21 0 20 0;
#X connect 23 0 22 0;
#X connect 24 0 6 0;
#X connect 25 0 26 0;
#X connect 26 0 28 0;
#X connect 26 0 43 0;
#X connect 26 1 45 0;
#X connect 26 2 29 0;
#X connect 26 2 42 0;
#X connect 27 0 40 0;
#X connect 28 0 27 1;
#X connect 29 0 27 1;
#X connect 33 0 2 0;
#X connect 35 0 5 1;
#X connect 35 0 6 1;
#X connect 35 0 7 1;
#X connect 35 0 9 1;
#X connect 35 0 10 1;
#X connect 35 0 11 1;
#X connect 35 0 12 1;
#X connect 35 0 18 1;
#X connect 35 0 20 1;
#X connect 35 0 22 1;
#X connect 36 0 18 0;
#X connect 39 0 45 0;
#X connect 40 0 5 0;
#X connect 40 0 44 0;
#X connect 40 1 6 0;
#X connect 40 1 44 1;
#X connect 40 2 7 0;
#X connect 40 2 44 2;
#X connect 40 3 9 0;
#X connect 40 3 44 3;
#X connect 40 4 10 0;
#X connect 40 4 44 4;
#X connect 40 5 11 0;
#X connect 40 5 44 5;
#X connect 40 6 12 0;
#X connect 40 6 44 6;
#X connect 40 7 20 0;
#X connect 40 7 44 6;
#X connect 40 7 44 7;
#X connect 40 8 22 0;
#X connect 40 8 44 8;
#X connect 41 0 31 0;
#X connect 42 0 41 1;
#X connect 43 0 41 1;
#X connect 44 0 33 0;
#X connect 45 0 27 0;
#X connect 45 0 41 0;
#X restore 322 827 pd gs2scene_5;
#X msg -132 395 4;
#X obj 312 222 bng 30 250 50 0 empty empty s6 10 10 0 10 -207963 -1
-262144;
#X msg -96 393 5;
#N canvas 746 203 968 652 gs2scene_6 0;
#X obj 16 8 inlet;
#X text 15 -10 parameterlist;
#X obj 421 545 outlet;
#X obj -189 -92 inlet;
#X msg -360 233 set \$1gs1dens;
#X obj -360 264 tabwrite;
#X obj -241 300 tabwrite;
#X obj -161 361 tabwrite;
#X obj -188 -68 t b b f;
#X obj -66 374 tabwrite;
#X obj -5 437 tabwrite;
#X obj 114 462 tabwrite;
#X obj 229 462 tabwrite;
#X msg -159 337 set \$1gs1len;
#X msg -67 340 set \$1gs1lenr;
#X msg 18 410 set \$1gs1ramp;
#X msg 125 437 set \$1gs1pos;
#X msg 243 425 set \$1gs1posr;
#X obj 220 331 tabwrite;
#X msg 225 299 set \$1gs1tp;
#X obj 335 291 tabwrite;
#X msg 332 268 set \$1gs1tpr;
#X obj 463 318 tabwrite;
#X msg 463 279 set \$1gs1panr;
#X msg -243 270 set \$1gs1densr;
#X obj 297 -75 inlet;
#X obj 294 -46 t b b b;
#X obj 94 100 spigot 1;
#X msg 253 -11 1;
#X msg 330 -11 0;
#X text -196 -109 gstables_dollar0_nr (on load);
#X obj 313 140 outlet;
#X text 309 156 scene2userinterface;
#X msg 421 522 color \$1;
#X text 470 548 color;
#X msg -264 -19 6;
#X obj 523 94 inlet;
#X text 526 75 tp;
#X text 296 -89 bang for output;
#X msg 97 31 set \$1 \$2 \$3 \$4 \$5 \$6 \$7 \$8 \$9;
#X obj 89 128 unpack f f f f f f f f f;
#X msg 96 64 0.421569 0.0980392 0.0245098 0.00784314 0.121053 0.341176
0.0156863 0 0.515789;
#X obj 213 102 spigot 0;
#X msg 365 -13 1;
#X msg 283 -12 0;
#X obj 426 469 abs_grainstates_2c_colour;
#X connect 0 0 39 0;
#X connect 0 0 40 0;
#X connect 3 0 8 0;
#X connect 4 0 5 0;
#X connect 8 0 41 0;
#X connect 8 1 35 0;
#X connect 8 2 4 0;
#X connect 8 2 24 0;
#X connect 8 2 13 0;
#X connect 8 2 14 0;
#X connect 8 2 15 0;
#X connect 8 2 16 0;
#X connect 8 2 17 0;
#X connect 8 2 19 0;
#X connect 8 2 21 0;
#X connect 8 2 23 0;
#X connect 13 0 7 0;
#X connect 14 0 9 0;
#X connect 15 0 10 0;
#X connect 16 0 11 0;
#X connect 17 0 12 0;
#X connect 19 0 18 0;
#X connect 21 0 20 0;
#X connect 23 0 22 0;
#X connect 24 0 6 0;
#X connect 25 0 26 0;
#X connect 26 0 28 0;
#X connect 26 0 44 0;
#X connect 26 1 41 0;
#X connect 26 2 29 0;
#X connect 26 2 43 0;
#X connect 27 0 40 0;
#X connect 28 0 27 1;
#X connect 29 0 27 1;
#X connect 33 0 2 0;
#X connect 35 0 5 1;
#X connect 35 0 6 1;
#X connect 35 0 7 1;
#X connect 35 0 9 1;
#X connect 35 0 10 1;
#X connect 35 0 11 1;
#X connect 35 0 12 1;
#X connect 35 0 18 1;
#X connect 35 0 20 1;
#X connect 35 0 22 1;
#X connect 36 0 18 0;
#X connect 39 0 41 0;
#X connect 40 0 5 0;
#X connect 40 0 45 0;
#X connect 40 1 6 0;
#X connect 40 1 45 1;
#X connect 40 2 7 0;
#X connect 40 2 45 2;
#X connect 40 3 9 0;
#X connect 40 3 45 3;
#X connect 40 4 10 0;
#X connect 40 4 45 4;
#X connect 40 5 11 0;
#X connect 40 5 45 5;
#X connect 40 6 12 0;
#X connect 40 6 45 6;
#X connect 40 7 20 0;
#X connect 40 7 45 7;
#X connect 40 8 22 0;
#X connect 40 8 45 8;
#X connect 41 0 27 0;
#X connect 41 0 42 0;
#X connect 42 0 31 0;
#X connect 43 0 42 1;
#X connect 44 0 42 1;
#X connect 45 0 33 0;
#X restore 361 857 pd gs2scene_6;
#X obj 353 222 bng 30 250 50 0 empty empty s7 10 10 0 10 -208518 -1
-262144;
#N canvas 748 202 968 652 gs2scene_7 0;
#X obj 16 8 inlet;
#X text 15 -10 parameterlist;
#X obj 421 545 outlet;
#X obj -189 -92 inlet;
#X msg -360 233 set \$1gs1dens;
#X obj -360 264 tabwrite;
#X obj -241 300 tabwrite;
#X obj -161 361 tabwrite;
#X obj -188 -68 t b b f;
#X obj -66 374 tabwrite;
#X obj -5 437 tabwrite;
#X obj 114 462 tabwrite;
#X obj 229 462 tabwrite;
#X msg -159 337 set \$1gs1len;
#X msg -67 340 set \$1gs1lenr;
#X msg 18 410 set \$1gs1ramp;
#X msg 125 437 set \$1gs1pos;
#X msg 243 425 set \$1gs1posr;
#X obj 216 319 tabwrite;
#X msg 221 287 set \$1gs1tp;
#X obj 335 291 tabwrite;
#X msg 332 268 set \$1gs1tpr;
#X obj 463 318 tabwrite;
#X msg 463 279 set \$1gs1panr;
#X msg -243 270 set \$1gs1densr;
#X obj 297 -75 inlet;
#X obj 294 -46 t b b b;
#X obj 94 100 spigot 1;
#X msg 253 -11 1;
#X msg 330 -11 0;
#X text -196 -109 gstables_dollar0_nr (on load);
#X obj 313 140 outlet;
#X text 309 156 scene2userinterface;
#X msg 421 522 color \$1;
#X text 470 548 color;
#X msg -264 -19 7;
#X obj 523 94 inlet;
#X text 526 75 tp;
#X text 296 -89 bang for output;
#X obj 89 128 unpack f f f f f f f f f;
#X msg 97 31 set \$1 \$2 \$3 \$4 \$5 \$6 \$7 \$8 \$9;
#X msg 96 64 0.421569 0.0980392 0.0245098 0.00784314 0.121053 0.466667
0.0156863 0 0.515789;
#X obj 213 102 spigot 0;
#X msg 365 -13 1;
#X msg 283 -12 0;
#X obj 426 469 abs_grainstates_2c_colour;
#X connect 0 0 40 0;
#X connect 0 0 39 0;
#X connect 3 0 8 0;
#X connect 4 0 5 0;
#X connect 8 0 41 0;
#X connect 8 1 35 0;
#X connect 8 2 4 0;
#X connect 8 2 24 0;
#X connect 8 2 13 0;
#X connect 8 2 14 0;
#X connect 8 2 15 0;
#X connect 8 2 16 0;
#X connect 8 2 17 0;
#X connect 8 2 19 0;
#X connect 8 2 21 0;
#X connect 8 2 23 0;
#X connect 13 0 7 0;
#X connect 14 0 9 0;
#X connect 15 0 10 0;
#X connect 16 0 11 0;
#X connect 17 0 12 0;
#X connect 19 0 18 0;
#X connect 21 0 20 0;
#X connect 23 0 22 0;
#X connect 24 0 6 0;
#X connect 25 0 26 0;
#X connect 26 0 28 0;
#X connect 26 0 44 0;
#X connect 26 1 41 0;
#X connect 26 2 29 0;
#X connect 26 2 43 0;
#X connect 27 0 39 0;
#X connect 28 0 27 1;
#X connect 29 0 27 1;
#X connect 33 0 2 0;
#X connect 35 0 5 1;
#X connect 35 0 6 1;
#X connect 35 0 7 1;
#X connect 35 0 9 1;
#X connect 35 0 10 1;
#X connect 35 0 11 1;
#X connect 35 0 12 1;
#X connect 35 0 18 1;
#X connect 35 0 20 1;
#X connect 35 0 22 1;
#X connect 36 0 18 0;
#X connect 39 0 5 0;
#X connect 39 0 45 0;
#X connect 39 1 6 0;
#X connect 39 1 45 1;
#X connect 39 2 7 0;
#X connect 39 2 45 2;
#X connect 39 3 9 0;
#X connect 39 3 45 3;
#X connect 39 4 10 0;
#X connect 39 4 45 4;
#X connect 39 5 11 0;
#X connect 39 5 45 5;
#X connect 39 6 12 0;
#X connect 39 6 45 6;
#X connect 39 7 20 0;
#X connect 39 7 45 7;
#X connect 39 8 22 0;
#X connect 39 8 45 8;
#X connect 40 0 41 0;
#X connect 41 0 27 0;
#X connect 41 0 42 0;
#X connect 42 0 31 0;
#X connect 43 0 42 1;
#X connect 44 0 42 1;
#X connect 45 0 33 0;
#X restore 391 887 pd gs2scene_7;
#X obj 394 222 bng 30 250 50 0 empty empty s8 10 10 0 10 -205633 -1
-262144;
#X msg -23 396 7;
#N canvas 738 207 968 652 gs2scene_8 0;
#X obj 16 8 inlet;
#X text 15 -10 parameterlist;
#X obj 421 545 outlet;
#X obj -189 -92 inlet;
#X msg -360 233 set \$1gs1dens;
#X obj -360 264 tabwrite;
#X obj -241 300 tabwrite;
#X obj -161 361 tabwrite;
#X obj -188 -68 t b b f;
#X obj -66 374 tabwrite;
#X obj -5 437 tabwrite;
#X obj 114 462 tabwrite;
#X obj 229 462 tabwrite;
#X msg -159 337 set \$1gs1len;
#X msg -67 340 set \$1gs1lenr;
#X msg 18 410 set \$1gs1ramp;
#X msg 125 437 set \$1gs1pos;
#X msg 243 425 set \$1gs1posr;
#X obj 219 329 tabwrite;
#X msg 224 297 set \$1gs1tp;
#X obj 335 291 tabwrite;
#X msg 332 268 set \$1gs1tpr;
#X obj 463 318 tabwrite;
#X msg 463 279 set \$1gs1panr;
#X msg -243 270 set \$1gs1densr;
#X obj 297 -75 inlet;
#X obj 294 -46 t b b b;
#X obj 94 100 spigot 1;
#X msg 253 -11 1;
#X msg 330 -11 0;
#X text -196 -109 gstables_dollar0_nr (on load);
#X obj 313 140 outlet;
#X text 309 156 scene2userinterface;
#X msg 421 522 color \$1;
#X text 470 548 color;
#X msg 96 31 set \$1 \$2 \$3 \$4 \$5 \$6 \$7 \$8 \$9;
#X obj 523 94 inlet;
#X text 526 75 tp;
#X text 296 -89 bang for output;
#X obj 89 128 unpack f f f f f f f f f;
#X msg 96 64 0.421569 0.0980392 0.0245098 0.00784314 0.121053 0.592157
0.0156863 0 0.515789;
#X obj 213 102 spigot 0;
#X msg 365 -13 1;
#X msg 283 -12 0;
#X obj 426 469 abs_grainstates_2c_colour;
#X msg -264 -19 9;
#X msg -308 -18 8;
#X obj -214 -43 t b b;
#X obj -267 -48 t b b;
#X connect 0 0 35 0;
#X connect 0 0 39 0;
#X connect 3 0 8 0;
#X connect 4 0 5 0;
#X connect 8 0 48 0;
#X connect 8 1 47 0;
#X connect 8 2 4 0;
#X connect 8 2 24 0;
#X connect 8 2 13 0;
#X connect 8 2 14 0;
#X connect 8 2 15 0;
#X connect 8 2 16 0;
#X connect 8 2 17 0;
#X connect 8 2 19 0;
#X connect 8 2 21 0;
#X connect 8 2 23 0;
#X connect 13 0 7 0;
#X connect 14 0 9 0;
#X connect 15 0 10 0;
#X connect 16 0 11 0;
#X connect 17 0 12 0;
#X connect 19 0 18 0;
#X connect 21 0 20 0;
#X connect 23 0 22 0;
#X connect 24 0 6 0;
#X connect 25 0 26 0;
#X connect 26 0 28 0;
#X connect 26 0 43 0;
#X connect 26 1 40 0;
#X connect 26 2 29 0;
#X connect 26 2 42 0;
#X connect 27 0 39 0;
#X connect 28 0 27 1;
#X connect 29 0 27 1;
#X connect 33 0 2 0;
#X connect 35 0 40 0;
#X connect 36 0 18 0;
#X connect 39 0 5 0;
#X connect 39 0 44 0;
#X connect 39 1 6 0;
#X connect 39 1 44 1;
#X connect 39 2 7 0;
#X connect 39 2 44 2;
#X connect 39 3 9 0;
#X connect 39 3 44 3;
#X connect 39 4 10 0;
#X connect 39 4 44 4;
#X connect 39 5 11 0;
#X connect 39 5 44 5;
#X connect 39 6 12 0;
#X connect 39 6 44 6;
#X connect 39 7 20 0;
#X connect 39 7 44 7;
#X connect 39 8 22 0;
#X connect 39 8 44 8;
#X connect 40 0 27 0;
#X connect 40 0 41 0;
#X connect 41 0 31 0;
#X connect 42 0 41 1;
#X connect 43 0 41 1;
#X connect 44 0 33 0;
#X connect 45 0 5 1;
#X connect 45 0 6 1;
#X connect 45 0 7 1;
#X connect 45 0 9 1;
#X connect 45 0 10 1;
#X connect 45 0 11 1;
#X connect 45 0 12 1;
#X connect 45 0 18 1;
#X connect 45 0 20 1;
#X connect 45 0 22 1;
#X connect 46 0 5 1;
#X connect 46 0 6 1;
#X connect 46 0 7 1;
#X connect 46 0 9 1;
#X connect 46 0 10 1;
#X connect 46 0 11 1;
#X connect 46 0 12 1;
#X connect 46 0 18 1;
#X connect 46 0 20 1;
#X connect 46 0 22 1;
#X connect 47 0 40 0;
#X connect 47 1 45 0;
#X connect 48 0 40 0;
#X connect 48 1 46 0;
#X restore 402 917 pd gs2scene_8;
#X msg -56 395 6;
#X obj 107 271 nbx 3 14 0 256 0 1 empty empty empty 0 -8 0 10 -262144
-1 -1 1 256;
#X obj 148 271 nbx 3 14 0 256 0 1 empty empty empty 0 -8 0 10 -262144
-1 -1 13 256;
#X obj 189 271 nbx 3 14 0 256 0 1 empty empty empty 0 -8 0 10 -262144
-1 -1 25 256;
#X obj 230 271 nbx 3 14 0 256 0 1 empty empty empty 0 -8 0 10 -262144
-1 -1 52 256;
#X obj 271 271 nbx 3 14 0 256 0 1 empty empty empty 0 -8 0 10 -262144
-1 -1 45 256;
#X obj 312 271 nbx 3 14 0 256 0 1 empty empty empty 0 -8 0 10 -262144
-1 -1 0 256;
#X obj 353 271 nbx 3 14 0 256 0 1 empty empty empty 0 -8 0 10 -262144
-1 -1 0 256;
#X obj 394 271 nbx 3 14 0 256 0 1 empty empty empty 0 -8 0 10 -262144
-1 -1 0 256;
#X obj 106 288 hsl 32 8 0 1 0 1 empty empty empty -2 -6 0 8 -262144
-1 -1 0 1;
#X obj 147 288 hsl 32 8 0 1 0 1 empty empty empty -2 -6 0 8 -262144
-1 -1 2100 1;
#X obj 188 288 hsl 32 8 0 1 0 1 empty empty empty -2 -6 0 8 -262144
-1 -1 0 1;
#X obj 229 288 hsl 32 8 0 1 0 1 empty empty empty -2 -6 0 8 -262144
-1 -1 1500 1;
#X obj 271 288 hsl 32 8 0 1 0 1 empty empty empty -2 -6 0 8 -262144
-1 -1 0 1;
#X obj 312 288 hsl 32 8 0 1 0 1 empty empty empty -2 -6 0 8 -262144
-1 -1 0 1;
#X obj 353 288 hsl 32 8 0 1 0 1 empty empty empty -2 -6 0 8 -262144
-1 -1 0 1;
#X obj 394 288 hsl 32 8 0 1 0 1 empty empty empty -2 -6 0 8 -262144
-1 -1 0 1;
#X symbolatom 374 204 16 0 0 0 - - -, f 16;
#X text 710 -66 filename;
#N canvas 155 255 1217 660 sequencer_8_pos 0;
#X obj 196 -18 inlet;
#X obj 617 517 outlet;
#X obj 127 -20 inlet;
#X text 125 -39 pos;
#X obj 131 69 mod;
#X text 195 -34 len;
#X obj 239 51 inlet;
#X obj 235 110 int;
#X obj 265 111 wrap;
#X obj 220 190 ==;
#X obj 135 97 + 1;
#X obj 220 212 select 1;
#X msg 220 237 1;
#X obj 234 85 t f f;
#X obj 222 266 pack f f;
#X obj 273 188 * 10000;
#X obj 389 52 inlet;
#X obj 382 111 int;
#X obj 415 112 wrap;
#X obj 370 191 ==;
#X obj 370 213 select 1;
#X obj 384 86 t f f;
#X obj 372 267 pack f f;
#X obj 421 141 *;
#X msg 369 238 2;
#X obj 172 98 /;
#X obj 94 470 outlet;
#X obj 617 494 - 1;
#X obj 425 216 * 10000;
#X obj 419 166 *;
#X obj 272 136 *;
#X obj 270 161 *;
#X obj 509 58 inlet;
#X obj 502 117 int;
#X obj 535 118 wrap;
#X obj 490 197 ==;
#X obj 490 219 select 1;
#X obj 504 92 t f f;
#X obj 492 273 pack f f;
#X obj 541 147 *;
#X obj 545 222 * 10000;
#X obj 539 172 *;
#X msg 489 244 3;
#X obj 640 59 inlet;
#X obj 633 118 int;
#X obj 666 119 wrap;
#X obj 621 198 ==;
#X obj 621 220 select 1;
#X obj 635 93 t f f;
#X obj 623 274 pack f f;
#X obj 672 148 *;
#X obj 676 223 * 10000;
#X obj 670 173 *;
#X msg 620 245 4;
#X obj 757 58 inlet;
#X obj 750 117 int;
#X obj 783 118 wrap;
#X obj 738 197 ==;
#X obj 738 219 select 1;
#X obj 752 92 t f f;
#X obj 740 273 pack f f;
#X obj 789 147 *;
#X obj 793 222 * 10000;
#X obj 787 172 *;
#X msg 736 247 5;
#X obj 877 57 inlet;
#X obj 870 116 int;
#X obj 903 117 wrap;
#X obj 858 196 ==;
#X obj 858 218 select 1;
#X obj 872 91 t f f;
#X obj 860 272 pack f f;
#X obj 909 146 *;
#X obj 913 221 * 10000;
#X obj 907 171 *;
#X obj 997 58 inlet;
#X obj 990 117 int;
#X obj 1023 118 wrap;
#X obj 978 197 ==;
#X obj 978 219 select 1;
#X obj 992 92 t f f;
#X obj 980 273 pack f f;
#X obj 1029 147 *;
#X obj 1033 222 * 10000;
#X obj 1027 172 *;
#X obj 1114 57 inlet;
#X obj 1107 116 int;
#X obj 1140 117 wrap;
#X obj 1095 196 ==;
#X obj 1095 218 select 1;
#X obj 1109 91 t f f;
#X obj 1097 272 pack f f;
#X obj 1146 146 *;
#X obj 1150 221 * 10000;
#X obj 1144 171 *;
#X msg 856 246 6;
#X msg 976 247 7;
#X msg 1093 246 8;
#X obj 617 465 line 0 1;
#X text 92 502 pos;
#X text 616 538 nr;
#X connect 0 0 4 1;
#X connect 0 0 25 1;
#X connect 2 0 4 0;
#X connect 4 0 10 0;
#X connect 4 0 25 0;
#X connect 6 0 13 0;
#X connect 7 0 9 1;
#X connect 8 0 30 1;
#X connect 8 0 30 0;
#X connect 9 0 11 0;
#X connect 10 0 9 0;
#X connect 10 0 19 0;
#X connect 10 0 35 0;
#X connect 10 0 46 0;
#X connect 10 0 57 0;
#X connect 10 0 68 0;
#X connect 10 0 78 0;
#X connect 10 0 88 0;
#X connect 11 0 12 0;
#X connect 12 0 14 0;
#X connect 13 0 7 0;
#X connect 13 1 8 0;
#X connect 14 0 98 0;
#X connect 15 0 14 1;
#X connect 16 0 21 0;
#X connect 17 0 19 1;
#X connect 18 0 23 1;
#X connect 18 0 23 0;
#X connect 19 0 20 0;
#X connect 20 0 24 0;
#X connect 21 0 17 0;
#X connect 21 1 18 0;
#X connect 22 0 98 0;
#X connect 23 0 29 1;
#X connect 23 0 29 0;
#X connect 24 0 22 0;
#X connect 25 0 26 0;
#X connect 27 0 1 0;
#X connect 28 0 22 1;
#X connect 29 0 28 0;
#X connect 30 0 31 1;
#X connect 30 0 31 0;
#X connect 31 0 15 0;
#X connect 32 0 37 0;
#X connect 33 0 35 1;
#X connect 34 0 39 1;
#X connect 34 0 39 0;
#X connect 35 0 36 0;
#X connect 36 0 42 0;
#X connect 37 0 33 0;
#X connect 37 1 34 0;
#X connect 38 0 98 0;
#X connect 39 0 41 1;
#X connect 39 0 41 0;
#X connect 40 0 38 1;
#X connect 41 0 40 0;
#X connect 42 0 38 0;
#X connect 43 0 48 0;
#X connect 44 0 46 1;
#X connect 45 0 50 1;
#X connect 45 0 50 0;
#X connect 46 0 47 0;
#X connect 47 0 53 0;
#X connect 48 0 44 0;
#X connect 48 1 45 0;
#X connect 49 0 98 0;
#X connect 50 0 52 1;
#X connect 50 0 52 0;
#X connect 51 0 49 1;
#X connect 52 0 51 0;
#X connect 53 0 49 0;
#X connect 54 0 59 0;
#X connect 55 0 57 1;
#X connect 56 0 61 1;
#X connect 56 0 61 0;
#X connect 57 0 58 0;
#X connect 58 0 64 0;
#X connect 59 0 55 0;
#X connect 59 1 56 0;
#X connect 60 0 98 0;
#X connect 61 0 63 1;
#X connect 61 0 63 0;
#X connect 62 0 60 1;
#X connect 63 0 62 0;
#X connect 64 0 60 0;
#X connect 65 0 70 0;
#X connect 66 0 68 1;
#X connect 67 0 72 1;
#X connect 67 0 72 0;
#X connect 68 0 69 0;
#X connect 69 0 95 0;
#X connect 70 0 66 0;
#X connect 70 1 67 0;
#X connect 71 0 98 0;
#X connect 72 0 74 1;
#X connect 72 0 74 0;
#X connect 73 0 71 1;
#X connect 74 0 73 0;
#X connect 75 0 80 0;
#X connect 76 0 78 1;
#X connect 77 0 82 1;
#X connect 77 0 82 0;
#X connect 78 0 79 0;
#X connect 79 0 96 0;
#X connect 80 0 76 0;
#X connect 80 1 77 0;
#X connect 81 0 98 0;
#X connect 82 0 84 1;
#X connect 82 0 84 0;
#X connect 83 0 81 1;
#X connect 84 0 83 0;
#X connect 85 0 90 0;
#X connect 86 0 88 1;
#X connect 87 0 92 1;
#X connect 87 0 92 0;
#X connect 88 0 89 0;
#X connect 89 0 97 0;
#X connect 90 0 86 0;
#X connect 90 1 87 0;
#X connect 91 0 98 0;
#X connect 92 0 94 1;
#X connect 92 0 94 0;
#X connect 93 0 91 1;
#X connect 94 0 93 0;
#X connect 95 0 71 0;
#X connect 96 0 81 0;
#X connect 97 0 91 0;
#X connect 98 0 27 0;
#X restore -407 617 pd sequencer_8_pos;
#X obj 441 298 nbx 3 14 2 256 0 1 empty empty ls -15 8 0 10 -262144
-1 -1 56 256;
#X obj -418 554 +;
#X obj -423 529 t b f;
#X obj -376 557 +;
#X obj -381 532 t b f;
#X obj 118 300 hsl 296 8 0 1 0 0 empty empty empty -2 -8 0 10 -262144
-1 -1 13696 1;
#X obj -334 556 +;
#X obj -339 531 t b f;
#X obj -294 558 +;
#X obj -296 531 t b f;
#X obj -252 557 +;
#X obj -257 532 t b f;
#X obj -210 560 +;
#X obj -215 535 t b f;
#X obj -168 559 +;
#X obj -173 534 t b f;
#X obj -128 561 +;
#X obj -130 534 t b f;
#X obj 118 344 hsl 296 8 0 7 0 0 empty empty empty -2 -8 0 10 -262144
-1 -1 0 1;
#X obj 107 356 nbx 3 14 0 256 0 1 empty empty empty 0 -8 0 10 -262144
-1 -1 1 256;
#X obj 148 356 nbx 3 14 0 256 0 1 empty empty empty 0 -8 0 10 -262144
-1 -1 23 256;
#X obj 189 356 nbx 3 14 0 256 0 1 empty empty empty 0 -8 0 10 -262144
-1 -1 33 256;
#X obj 230 356 nbx 3 14 0 256 0 1 empty empty empty 0 -8 0 10 -262144
-1 -1 35 256;
#X obj 271 356 nbx 3 14 0 256 0 1 empty empty empty 0 -8 0 10 -262144
-1 -1 0 256;
#X obj 312 356 nbx 3 14 0 256 0 1 empty empty empty 0 -8 0 10 -262144
-1 -1 0 256;
#X obj 353 356 nbx 3 14 0 256 0 1 empty empty empty 0 -8 0 10 -262144
-1 -1 0 256;
#X obj 394 356 nbx 3 14 0 256 0 1 empty empty empty 0 -8 0 10 -262144
-1 -1 0 256;
#X obj 106 374 hsl 32 8 0 1 0 1 empty empty empty -2 -6 0 8 -262144
-1 -1 0 1;
#X obj 147 374 hsl 32 8 0 1 0 1 empty empty empty -2 -6 0 8 -262144
-1 -1 0 1;
#X obj 188 374 hsl 32 8 0 1 0 1 empty empty empty -2 -6 0 8 -262144
-1 -1 1300 1;
#X obj 229 374 hsl 32 8 0 1 0 1 empty empty empty -2 -6 0 8 -262144
-1 -1 0 1;
#X obj 271 374 hsl 32 8 0 1 0 1 empty empty empty -2 -6 0 8 -262144
-1 -1 0 1;
#X obj 312 374 hsl 32 8 0 1 0 1 empty empty empty -2 -6 0 8 -262144
-1 -1 0 1;
#X obj 353 374 hsl 32 8 0 1 0 1 empty empty empty -2 -6 0 8 -262144
-1 -1 0 1;
#X obj 394 374 hsl 32 8 0 1 0 1 empty empty empty -2 -6 0 8 -262144
-1 -1 0 1;
#N canvas 157 254 1217 660 sequencer_8_pos 0;
#X obj 196 -18 inlet;
#X obj 617 517 outlet;
#X obj 127 -20 inlet;
#X text 125 -39 pos;
#X obj 131 69 mod;
#X text 195 -34 len;
#X obj 239 51 inlet;
#X obj 235 110 int;
#X obj 265 111 wrap;
#X obj 220 190 ==;
#X obj 135 97 + 1;
#X obj 220 212 select 1;
#X msg 220 237 1;
#X obj 234 85 t f f;
#X obj 222 266 pack f f;
#X obj 273 188 * 10000;
#X obj 389 52 inlet;
#X obj 382 111 int;
#X obj 415 112 wrap;
#X obj 370 191 ==;
#X obj 370 213 select 1;
#X obj 384 86 t f f;
#X obj 372 267 pack f f;
#X obj 421 141 *;
#X msg 369 238 2;
#X obj 172 98 /;
#X obj 94 470 outlet;
#X obj 617 494 - 1;
#X obj 425 216 * 10000;
#X obj 419 166 *;
#X obj 272 136 *;
#X obj 270 161 *;
#X obj 509 58 inlet;
#X obj 502 117 int;
#X obj 535 118 wrap;
#X obj 490 197 ==;
#X obj 490 219 select 1;
#X obj 504 92 t f f;
#X obj 492 273 pack f f;
#X obj 541 147 *;
#X obj 545 222 * 10000;
#X obj 539 172 *;
#X msg 489 244 3;
#X obj 640 59 inlet;
#X obj 633 118 int;
#X obj 666 119 wrap;
#X obj 621 198 ==;
#X obj 621 220 select 1;
#X obj 635 93 t f f;
#X obj 623 274 pack f f;
#X obj 672 148 *;
#X obj 676 223 * 10000;
#X obj 670 173 *;
#X msg 620 245 4;
#X obj 757 58 inlet;
#X obj 750 117 int;
#X obj 783 118 wrap;
#X obj 738 197 ==;
#X obj 738 219 select 1;
#X obj 752 92 t f f;
#X obj 740 273 pack f f;
#X obj 789 147 *;
#X obj 793 222 * 10000;
#X obj 787 172 *;
#X msg 736 247 5;
#X obj 877 57 inlet;
#X obj 870 116 int;
#X obj 903 117 wrap;
#X obj 858 196 ==;
#X obj 858 218 select 1;
#X obj 872 91 t f f;
#X obj 860 272 pack f f;
#X obj 909 146 *;
#X obj 913 221 * 10000;
#X obj 907 171 *;
#X obj 997 58 inlet;
#X obj 990 117 int;
#X obj 1023 118 wrap;
#X obj 978 197 ==;
#X obj 978 219 select 1;
#X obj 992 92 t f f;
#X obj 980 273 pack f f;
#X obj 1029 147 *;
#X obj 1033 222 * 10000;
#X obj 1027 172 *;
#X obj 1114 57 inlet;
#X obj 1107 116 int;
#X obj 1140 117 wrap;
#X obj 1095 196 ==;
#X obj 1095 218 select 1;
#X obj 1109 91 t f f;
#X obj 1097 272 pack f f;
#X obj 1146 146 *;
#X obj 1150 221 * 10000;
#X obj 1144 171 *;
#X msg 856 246 6;
#X msg 976 247 7;
#X msg 1093 246 8;
#X obj 617 465 line 0 1;
#X text 92 502 pos;
#X text 616 538 nr;
#X connect 0 0 4 1;
#X connect 0 0 25 1;
#X connect 2 0 4 0;
#X connect 4 0 10 0;
#X connect 4 0 25 0;
#X connect 6 0 13 0;
#X connect 7 0 9 1;
#X connect 8 0 30 1;
#X connect 8 0 30 0;
#X connect 9 0 11 0;
#X connect 10 0 9 0;
#X connect 10 0 19 0;
#X connect 10 0 35 0;
#X connect 10 0 46 0;
#X connect 10 0 57 0;
#X connect 10 0 68 0;
#X connect 10 0 78 0;
#X connect 10 0 88 0;
#X connect 11 0 12 0;
#X connect 12 0 14 0;
#X connect 13 0 7 0;
#X connect 13 1 8 0;
#X connect 14 0 98 0;
#X connect 15 0 14 1;
#X connect 16 0 21 0;
#X connect 17 0 19 1;
#X connect 18 0 23 1;
#X connect 18 0 23 0;
#X connect 19 0 20 0;
#X connect 20 0 24 0;
#X connect 21 0 17 0;
#X connect 21 1 18 0;
#X connect 22 0 98 0;
#X connect 23 0 29 1;
#X connect 23 0 29 0;
#X connect 24 0 22 0;
#X connect 25 0 26 0;
#X connect 27 0 1 0;
#X connect 28 0 22 1;
#X connect 29 0 28 0;
#X connect 30 0 31 1;
#X connect 30 0 31 0;
#X connect 31 0 15 0;
#X connect 32 0 37 0;
#X connect 33 0 35 1;
#X connect 34 0 39 1;
#X connect 34 0 39 0;
#X connect 35 0 36 0;
#X connect 36 0 42 0;
#X connect 37 0 33 0;
#X connect 37 1 34 0;
#X connect 38 0 98 0;
#X connect 39 0 41 1;
#X connect 39 0 41 0;
#X connect 40 0 38 1;
#X connect 41 0 40 0;
#X connect 42 0 38 0;
#X connect 43 0 48 0;
#X connect 44 0 46 1;
#X connect 45 0 50 1;
#X connect 45 0 50 0;
#X connect 46 0 47 0;
#X connect 47 0 53 0;
#X connect 48 0 44 0;
#X connect 48 1 45 0;
#X connect 49 0 98 0;
#X connect 50 0 52 1;
#X connect 50 0 52 0;
#X connect 51 0 49 1;
#X connect 52 0 51 0;
#X connect 53 0 49 0;
#X connect 54 0 59 0;
#X connect 55 0 57 1;
#X connect 56 0 61 1;
#X connect 56 0 61 0;
#X connect 57 0 58 0;
#X connect 58 0 64 0;
#X connect 59 0 55 0;
#X connect 59 1 56 0;
#X connect 60 0 98 0;
#X connect 61 0 63 1;
#X connect 61 0 63 0;
#X connect 62 0 60 1;
#X connect 63 0 62 0;
#X connect 64 0 60 0;
#X connect 65 0 70 0;
#X connect 66 0 68 1;
#X connect 67 0 72 1;
#X connect 67 0 72 0;
#X connect 68 0 69 0;
#X connect 69 0 95 0;
#X connect 70 0 66 0;
#X connect 70 1 67 0;
#X connect 71 0 98 0;
#X connect 72 0 74 1;
#X connect 72 0 74 0;
#X connect 73 0 71 1;
#X connect 74 0 73 0;
#X connect 75 0 80 0;
#X connect 76 0 78 1;
#X connect 77 0 82 1;
#X connect 77 0 82 0;
#X connect 78 0 79 0;
#X connect 79 0 96 0;
#X connect 80 0 76 0;
#X connect 80 1 77 0;
#X connect 81 0 98 0;
#X connect 82 0 84 1;
#X connect 82 0 84 0;
#X connect 83 0 81 1;
#X connect 84 0 83 0;
#X connect 85 0 90 0;
#X connect 86 0 88 1;
#X connect 87 0 92 1;
#X connect 87 0 92 0;
#X connect 88 0 89 0;
#X connect 89 0 97 0;
#X connect 90 0 86 0;
#X connect 90 1 87 0;
#X connect 91 0 98 0;
#X connect 92 0 94 1;
#X connect 92 0 94 0;
#X connect 93 0 91 1;
#X connect 94 0 93 0;
#X connect 95 0 71 0;
#X connect 96 0 81 0;
#X connect 97 0 91 0;
#X connect 98 0 27 0;
#X restore 1031 682 pd sequencer_8_pos;
#X obj 441 383 nbx 3 14 2 256 0 1 empty empty ltp -19 8 0 10 -262144
-1 -1 48 256;
#X obj 848 626 +;
#X obj 843 601 t b f;
#X obj 890 629 +;
#X obj 885 604 t b f;
#X obj 118 386 hsl 296 8 0 1 0 0 empty empty empty -2 -8 0 10 -262144
-1 -1 15979 1;
#X obj 932 628 +;
#X obj 927 603 t b f;
#X obj 972 630 +;
#X obj 970 603 t b f;
#X obj 1014 629 +;
#X obj 1009 604 t b f;
#X obj 1056 632 +;
#X obj 1051 607 t b f;
#X obj 1098 631 +;
#X obj 1093 606 t b f;
#X obj 1138 633 +;
#X obj 1136 606 t b f;
#X obj 107 327 nbx 2 14 -24 24 0 1 empty empty empty 0 -8 0 10 -262144
-1 -1 0 256;
#X obj 148 327 nbx 2 14 -24 24 0 1 empty empty empty 0 -8 0 10 -262144
-1 -1 2 256;
#X obj 189 327 nbx 2 14 -24 24 0 1 empty empty empty 0 -8 0 10 -262144
-1 -1 -3 256;
#X obj 230 327 nbx 2 14 -24 24 0 1 empty empty empty 0 -8 0 10 -262144
-1 -1 -2 256;
#X obj 271 327 nbx 2 14 -24 24 0 1 empty empty empty 0 -8 0 10 -262144
-1 -1 0 256;
#X obj 312 327 nbx 2 14 -24 24 0 1 empty empty empty 0 -8 0 10 -262144
-1 -1 0 256;
#X obj 353 327 nbx 2 14 -24 24 0 1 empty empty empty 0 -8 0 10 -262144
-1 -1 0 256;
#X obj 394 327 nbx 2 14 -24 24 0 1 empty empty empty 0 -8 0 10 -262144
-1 -1 0 256;
#X obj -141 890 abs_granularsynthesis_particles_20;
#X obj 460 343 tgl 15 1 empty empty sq_on -32 7 0 10 -262144 -1 -1
0 1;
#X obj -44 200 spigot;
#X obj 1101 527 spigot;
#X obj 153 618 pack f f f f f f f f f f;
#X obj 315 965 unpack f f f f f f f f f;
#X obj 435 247 bng 15 250 50 0 empty empty C 5 7 0 10 -262144 -1 -1
;
#X obj 455 247 bng 15 250 50 0 empty empty P 5 7 0 10 -262144 -1 -1
;
#X text 109 306 scn sq;
#X text 389 312 tp sq;
#X obj 60 768 t b f;
#X msg 863 742 set \$1 \$2 \$3 \$4 \$5 \$6 \$7 \$8 \$9;
#X msg 850 767 0.236842 0.062335 0.0382586 0.0136321 0.225939 0.0570609
0.0156863 0 0.407018;
#X text 432 368 gld;
#X text 431 284 gld;
#X text 431 270 pos;
#X text 432 357 pos;
#X text 422 327 tp;
#N canvas 146 172 1695 875 presets 0;
#X obj 159 670 until;
#X obj 152 719 list append;
#X obj 289 753 bang;
#X obj 268 707 int;
#X obj 299 704 + 1;
#X msg 284 674 0;
#X obj 153 639 t b b l;
#X obj 160 753 list split 9;
#X obj 102 -194 inlet;
#X msg 136 -103 add2 \$1 \$2 \$3 \$4 \$5 \$6 \$7 \$8 \$9;
#X obj 15 -193 inlet;
#X obj 157 692 t b b;
#X obj 179 809 outlet;
#X obj 178 784 list prepend;
#X obj 390 -196 inlet;
#X msg 142 50 1 11 27 63 83 0 0 0 96 0.225806 0 0.580645 0 0.419355
0 0 0 0 0 0 7 -5 0 0 0 0 0 1 4 26 34 0 2 3 0 48 0 0 0.322581 0 0 0
0 0 0 0.44902 0.388235 0.0323529 0.0156863 0 0.0156863 0.00784314 0
0.694737 0.44902 0.372549 0.121647 0.054902 0.178947 0.328902 0 0 0.515789
0.42549 0.270588 0.0867451 0.0431373 0.210526 0.719255 0.0313726 0
0.484211 0.496078 0.4 0.0632157 0.0392157 0.168421 0.219961 0 0 0.410526
0.339216 0.109804 0.008 0.0313726 0.0315789 0.870588 0 0 0.578947 0.339216
0.109804 0.008 0.0313726 0.0315789 0.870588 0 0 0.578947 0.339216 0.109804
0.008 0.0313726 0.0315789 0.870588 0 0 0.578947 0.339216 0.109804 0.008
0.0313726 0.0315789 0.870588 0 0 0.578947;
#X obj 731 -97 select 0 1 2 3 4 5 6 7;
#X obj 392 -95 int;
#X obj 327 -194 inlet;
#X msg 524 49 1 17 23 29 37 44 46 0 48 0.580645 0.612903 0.322581 0.483871
0 0 0 0 0 0 3 -2 -5 0 0 0 0 0 1 25 33 45 55 0 0 0 64 0 0 0 0 0.483871
0 0 0 0 0.3 0.203922 0.0127451 0.00784314 0 0.129412 0.0156863 0 0.515789
0.456863 0.12549 0.0754902 0.00784314 0.121053 0.301961 0.0156863 0
0.515789 0.311765 0.0980392 0.0245098 0.00784314 0.236842 0.45098 0.0156863
0 0.515789 0.331373 0.435294 0.00882353 0.0352941 0.121053 0.698039
0.0156863 0 0.515789 0.296078 0.160784 0.0245098 0.0235294 0.226316
0.843137 0.0156863 0 0.515789 0.421569 0.0980392 0.0245098 0.00784314
0.121053 0.341176 0.0156863 0.221053 0.515789 0.170588 0.0980392 0.0245098
0.00784314 0.121053 0.313726 0.0156863 0 0.515789 0.421569 0.0980392
0.0245098 0.00784314 0.121053 0.592157 0.0156863 0 0.515789;
#X obj 161 -78 list prepend;
#X obj 466 -67 route 0 1 2 3 4 5 6 7;
#X msg 29 -65 \$1 set;
#X obj 29 -92 int;
#X msg 900 48 1 13 25 52 45 0 0 0 56 0 0.677419 0 0.483871 0 0 0 0
0 0 2 -3 -2 0 0 0 0 0 1 23 33 35 0 0 0 0 48 0 0 0.419355 0 0 0 0 0
0 0.103922 0.0705882 0.00392157 0.0196078 0.252632 0.517647 0.0156863
0 0.778947 0.652941 0.25098 0.0480392 0.0313726 0.121053 0.878431 0.0156863
0 0.515789 0.319608 0.113725 0.0245098 0.00784314 0.121053 0.976471
0.0156863 0 0.515789 0.358824 0.0509804 0.00392157 0.0156863 0.115789
0.0352941 0.0156863 0 0.757895 0.421569 0.0980392 0.0245098 0.00784314
0.121053 0.290196 0.0156863 0 0.515789 0.421569 0.0980392 0.0245098
0.00784314 0.121053 0.341176 0.0156863 0 0.515789 0.421569 0.0980392
0.0245098 0.00784314 0.121053 0.466667 0.0156863 0 0.515789 0.421569
0.0980392 0.0245098 0.00784314 0.121053 0.592157 0.0156863 0 0.515789
;
#X msg 1282 47 1 9 21 25 30 37 0 0 40 0.483871 0 0.387097 0 0 0 0 0
0 -5 9 -5 0 0 0 0 0 0 1 41 43 0 0 0 0 0 48 0 0 0 0 0 0 0 0 0 0.3 0.0470588
0.0245098 0.00784314 0.121053 0.258824 0.0156863 0 0.515789 0.421569
0.0980392 0.0127451 0.00784314 0.0526316 0.360784 0.0156863 0 0.515789
0.331373 0.298039 0.00882353 0.0470588 0.0684211 0.141176 0.0156863
0 0.757895 0.37451 0.211765 0.0166667 0.0156863 0 0.741176 0.0156863
0 0.789474 0.421569 0.0980392 0.0362745 0.00784314 0.378947 0.376471
0.0156863 0 0.515789 0.507843 0.243137 0.0362745 0.0470588 0.352632
0.631373 0.0156863 0 0.515789 0.421569 0.0980392 0.0245098 0.00784314
0.121053 0.466667 0.0156863 0 0.515789 0.421569 0.0980392 0.0245098
0.00784314 0.121053 0.592157 0.0156863 0 0.515789;
#X msg 142 270 1 17 29 33 45 49 0 0 56 0.548387 0.645161 0.193548 0.548387
0 0.322581 0 0 0 0 -2 1 0 0 0 0 0 0 1 29 39 43 0 0 0 0 48 0 0 0.258065
0 0 0 0 0 0 0.272549 0.164706 0.00784314 0.0012549 0.121053 0.207843
0.0156863 0 0.515789 0.119608 0.0784314 0.00882353 0.00784314 0.257895
0.356863 0.0627451 0 0.368421 0.17451 0.0980392 0.0245098 0.00784314
0.173684 0.533333 0.0156863 0 0.515789 0.429412 0.290196 0.0127451
0.00784314 0.121053 0.690196 0.207843 0 0.515789 0.339216 0.109804
0.008 0.0313726 0.163158 0.87451 0 0 0.578947 0.174549 0.0980392 0.000980392
0.00784314 0.136842 0.725451 0.0156863 0.0105263 0.515789 0.421569
0.0980392 0.0245098 0.00784314 0.121053 0.466667 0.0156863 0 0.515789
0.421569 0.0980392 0.0245098 0.00784314 0.121053 0.592157 0.0156863
0 0.515789;
#X msg 524 269 1 11 22 33 0 0 0 0 40 0 0.645161 0.419355 0 0 0 0 0
0 0 5 0 -2 0 0 0 0 0 1 11 27 31 35 0 0 0 48 0 0.387097 0.16129 0 0
0 0 0 0 0.421569 0.0980392 0.000980392 0.0313726 0.215789 0.129412
0.027451 0.178947 0.515789 0.421569 0.0980392 0.0245098 0.00784314
0.121053 0.309804 0.0156863 0 0.515789 0.401961 0.0980392 0.0676471
0.00784314 0.121053 0.521569 0.0156863 0 0.778947 0.072549 0.133333
0.00392157 0.00784314 0.0578947 0.858824 0.0156863 0 0.515789 0.421569
0.0980392 0.0245098 0.00784314 0.121053 0.290196 0.0156863 0 0.515789
0.421569 0.0980392 0.0245098 0.00784314 0.121053 0.341176 0.0156863
0 0.515789 0.421569 0.0980392 0.0245098 0.00784314 0.121053 0.466667
0.0156863 0 0.515789 0.421569 0.0980392 0.0245098 0.00784314 0.121053
0.592157 0.0156863 0 0.515789;
#X msg 900 268 1 21 29 37 45 0 0 0 64 0.516129 0.548387 0.419355 0
0.580645 0 0 0 0 0 -4 1 0 0 0 0 0 0 1 16 40 0 0 0 0 0 48 0 0 0 0 0
0 0 0 0 0.62549 0.219608 0.0166667 0.0313726 0 0.439216 0.0156863 0
0.515789 0.507843 0.0980392 0.0245098 0.00784314 0.236842 0.811765
0.0156863 0 0.515789 0.260784 0.0980392 0.00882353 0.0431373 0.121053
0.184314 0.0156863 0 0.515789 0.221569 0.184314 0.0196078 0.00784314
0.105263 0.243137 0.0156863 0.178947 0.631579 0.331373 0.168627 0.0245098
0.0431373 0.336842 0.729412 0.0156863 0 0.747368 0.421569 0.0980392
0.0245098 0.00784314 0.121053 0.341176 0.0156863 0 0.515789 0.421569
0.0980392 0.0245098 0.00784314 0.121053 0.466667 0.0156863 0 0.515789
0.421569 0.0980392 0.0245098 0.00784314 0.121053 0.592157 0.0156863
0 0.515789;
#X msg 1282 267 1 0 0 0 0 0 0 0 32 0 0 0 0 0 0 0 0 0 0 0 0 0 0 0 0
0 0 1 0 0 0 0 0 0 0 48 0 0 0 0 0 0 0 0 0 0.421569 0.0980392 0.0245098
0.00784314 0.121053 0 0.0156863 0 0.515789 0.421569 0.0980392 0.0245098
0.00784314 0.121053 0.0470588 0.0156863 0 0.515789 0.421569 0.0980392
0.0245098 0.00784314 0.121053 0.109804 0.0156863 0 0.515789 0.421569
0.0980392 0.0245098 0.00784314 0.121053 0.227451 0.0156863 0 0.515789
0.421569 0.0980392 0.0245098 0.00784314 0.121053 0.290196 0.0156863
0 0.515789 0.421569 0.0980392 0.0245098 0.00784314 0.121053 0.341176
0.0156863 0 0.515789 0.421569 0.0980392 0.0245098 0.00784314 0.121053
0.466667 0.0156863 0 0.515789 0.421569 0.0980392 0.0245098 0.00784314
0.121053 0.592157 0.0156863 0 0.515789;
#X connect 0 0 11 0;
#X connect 1 0 7 0;
#X connect 2 0 0 1;
#X connect 3 0 4 0;
#X connect 3 0 13 1;
#X connect 4 0 3 1;
#X connect 5 0 3 1;
#X connect 6 0 0 0;
#X connect 6 1 5 0;
#X connect 6 2 1 1;
#X connect 7 0 13 0;
#X connect 7 1 1 1;
#X connect 7 2 2 0;
#X connect 8 0 9 0;
#X connect 9 0 20 0;
#X connect 10 0 23 0;
#X connect 11 0 1 0;
#X connect 11 1 3 0;
#X connect 13 0 12 0;
#X connect 14 0 17 1;
#X connect 14 0 20 1;
#X connect 14 0 23 1;
#X connect 15 0 6 0;
#X connect 16 0 15 0;
#X connect 16 1 19 0;
#X connect 16 2 24 0;
#X connect 16 3 25 0;
#X connect 16 4 26 0;
#X connect 16 5 27 0;
#X connect 16 6 28 0;
#X connect 16 7 29 0;
#X connect 17 0 16 0;
#X connect 18 0 17 0;
#X connect 19 0 6 0;
#X connect 20 0 21 0;
#X connect 21 0 15 0;
#X connect 21 1 19 0;
#X connect 21 2 24 0;
#X connect 21 3 25 0;
#X connect 21 4 26 0;
#X connect 21 5 27 0;
#X connect 21 6 28 0;
#X connect 21 7 29 0;
#X connect 22 0 21 0;
#X connect 23 0 22 0;
#X connect 24 0 6 0;
#X connect 25 0 6 0;
#X connect 26 0 6 0;
#X connect 27 0 6 0;
#X connect 28 0 6 0;
#X connect 29 0 6 0;
#X restore 888 245 pd presets;
#X msg 757 160 1;
#X msg 798 158 0;
#X obj 818 113 t b b b;
#X obj 721 192 spigot 0;
#X obj 377 120 bng 15 250 50 0 empty empty empty 17 7 0 10 -258113
-1 -1;
#X obj 458 120 bng 15 250 50 0 empty empty empty 17 7 0 10 -4034 -1
-1;
#X text 971 241 8 scenes \, sequencerdata;
#X obj 638 732 pack f f f f f f f f f;
#X obj 609 732 f;
#X obj 625 15 unpack f f f f f f f f f;
#X obj 642 756 pack f f f f f f f f f;
#X obj 613 756 f;
#X text 251 831 8 scenes;
#X text 469 970 2 ui;
#X text -292 374 scene nr;
#X text 695 713 seq data 2 presets;
#X obj 648 796 pack f f f f f f f f f;
#X obj 620 793 f;
#X text 652 378 bang scenes \, seqs for preset storage;
#X text 1096 583 tp sequencer;
#X text -305 508 scene sequencer;
#X text 644 -1 seq data from preset;
#X obj 598 100 unpack f f f f f f f f f;
#X text 853 799 scene copy/paste "buffer";
#X obj 660 822 pack f f f f f f f f f;
#X obj 633 819 f;
#X obj 673 847 pack f f f f f f f f f;
#X obj 644 845 f;
#X text 869 131 presets;
#X obj 872 284 route 0 1 2 3 4 5 6 7 8 9 10 11 12;
#X obj 586 124 unpack f f f f f f f f 0;
#X obj 603 77 unpack f f f f f f f f 0;
#X obj 620 38 unpack f f f f f f f f 0;
#X obj 653 396 t b b b b b b b b b b b b b b;
#X text -163 258 2 scene after gui change;
#X msg 79 472 -1;
#X obj 377 105 hradio 12 1 1 8 empty empty empty 0 -8 0 10 -262144
-1 -1 2;
#X obj 532 351 soundfiler;
#X msg 532 331 read -resize \$1 \$2;
#X obj 543 252 t b a;
#X obj 534 307 pack s s;
#X msg 535 279 symbol /Users/vladimirderevyanko/Documents/PD/martin-brinkmann.de/grainstates2/VS-loop3.wav
;
#X connect 0 0 3 1;
#X connect 1 0 0 0;
#X connect 2 0 1 0;
#X connect 2 0 149 0;
#X connect 3 0 2 0;
#X connect 4 0 0 1;
#X connect 5 0 4 0;
#X connect 6 0 5 0;
#X connect 6 1 5 1;
#X connect 7 0 1 1;
#X connect 9 0 6 0;
#X connect 9 1 7 0;
#X connect 9 2 149 1;
#X connect 9 3 149 2;
#X connect 9 4 149 3;
#X connect 9 5 149 4;
#X connect 9 6 149 5;
#X connect 9 7 38 0;
#X connect 9 8 149 7;
#X connect 9 9 149 8;
#X connect 9 10 25 0;
#X connect 9 10 44 0;
#X connect 9 10 47 0;
#X connect 9 10 54 0;
#X connect 9 10 57 0;
#X connect 9 10 61 0;
#X connect 9 10 63 0;
#X connect 9 10 66 0;
#X connect 9 11 160 0;
#X connect 11 0 14 0;
#X connect 12 0 3 0;
#X connect 13 0 11 0;
#X connect 14 0 209 0;
#X connect 14 1 15 0;
#X connect 15 0 209 0;
#X connect 16 0 14 0;
#X connect 17 0 20 0;
#X connect 18 0 21 0;
#X connect 19 0 22 0;
#X connect 20 0 9 2;
#X connect 21 0 9 3;
#X connect 22 0 9 4;
#X connect 23 0 86 0;
#X connect 23 0 122 0;
#X connect 25 0 154 0;
#X connect 25 0 171 0;
#X connect 25 1 40 0;
#X connect 26 0 37 0;
#X connect 26 0 153 3;
#X connect 27 0 37 0;
#X connect 27 0 153 4;
#X connect 28 0 37 0;
#X connect 28 0 153 5;
#X connect 29 0 37 0;
#X connect 29 0 153 6;
#X connect 30 0 37 0;
#X connect 30 0 153 9;
#X connect 31 0 37 0;
#X connect 31 0 153 8;
#X connect 32 0 37 0;
#X connect 32 0 153 7;
#X connect 33 0 37 0;
#X connect 33 0 153 1;
#X connect 34 0 37 0;
#X connect 34 0 153 2;
#X connect 35 0 25 1;
#X connect 35 1 44 1;
#X connect 35 2 47 1;
#X connect 35 3 54 1;
#X connect 35 4 57 1;
#X connect 35 5 61 1;
#X connect 35 6 63 1;
#X connect 35 7 66 1;
#X connect 36 0 45 0;
#X connect 36 0 153 0;
#X connect 37 0 36 0;
#X connect 38 0 149 6;
#X connect 39 0 159 0;
#X connect 40 0 41 0;
#X connect 40 0 25 2;
#X connect 41 0 36 1;
#X connect 41 0 45 0;
#X connect 42 0 43 0;
#X connect 42 0 44 2;
#X connect 43 0 36 1;
#X connect 43 0 45 0;
#X connect 44 0 154 0;
#X connect 44 0 171 0;
#X connect 44 1 42 0;
#X connect 45 0 9 0;
#X connect 46 0 48 0;
#X connect 46 0 47 2;
#X connect 47 0 154 0;
#X connect 47 0 171 0;
#X connect 47 1 46 0;
#X connect 48 0 36 1;
#X connect 53 0 55 0;
#X connect 53 0 54 2;
#X connect 54 0 154 0;
#X connect 54 0 171 0;
#X connect 54 1 53 0;
#X connect 55 0 36 1;
#X connect 56 0 58 0;
#X connect 56 0 57 2;
#X connect 57 0 154 0;
#X connect 57 0 171 0;
#X connect 57 1 56 0;
#X connect 58 0 36 1;
#X connect 59 0 60 0;
#X connect 59 0 61 2;
#X connect 60 0 36 1;
#X connect 61 0 154 0;
#X connect 61 0 171 0;
#X connect 61 1 59 0;
#X connect 62 0 67 0;
#X connect 62 0 63 2;
#X connect 63 0 154 0;
#X connect 63 0 171 0;
#X connect 63 1 62 0;
#X connect 64 0 65 0;
#X connect 64 0 66 2;
#X connect 65 0 36 1;
#X connect 66 0 154 0;
#X connect 66 0 171 0;
#X connect 66 1 64 0;
#X connect 67 0 36 1;
#X connect 68 0 88 0;
#X connect 68 0 176 1;
#X connect 69 0 90 0;
#X connect 69 0 175 1;
#X connect 70 0 93 0;
#X connect 70 0 175 2;
#X connect 71 0 95 0;
#X connect 71 0 175 3;
#X connect 72 0 97 0;
#X connect 72 0 175 4;
#X connect 73 0 99 0;
#X connect 73 0 175 5;
#X connect 74 0 101 0;
#X connect 74 0 175 6;
#X connect 75 0 103 0;
#X connect 75 0 175 7;
#X connect 76 0 89 0;
#X connect 76 0 179 1;
#X connect 77 0 91 0;
#X connect 77 0 178 1;
#X connect 78 0 94 0;
#X connect 78 0 178 2;
#X connect 79 0 96 0;
#X connect 79 0 178 3;
#X connect 80 0 98 0;
#X connect 80 0 178 4;
#X connect 81 0 100 0;
#X connect 81 0 178 5;
#X connect 82 0 102 0;
#X connect 82 0 178 6;
#X connect 83 0 104 0;
#X connect 83 0 178 7;
#X connect 86 0 92 0;
#X connect 86 1 151 0;
#X connect 87 0 86 1;
#X connect 87 0 175 8;
#X connect 88 0 86 2;
#X connect 89 0 88 0;
#X connect 89 1 88 1;
#X connect 90 0 86 3;
#X connect 91 0 90 0;
#X connect 91 1 90 1;
#X connect 93 0 86 4;
#X connect 94 0 93 0;
#X connect 94 1 93 1;
#X connect 95 0 86 5;
#X connect 96 0 95 0;
#X connect 96 1 95 1;
#X connect 97 0 86 6;
#X connect 98 0 97 0;
#X connect 98 1 97 1;
#X connect 99 0 86 7;
#X connect 100 0 99 0;
#X connect 100 1 99 1;
#X connect 101 0 86 8;
#X connect 102 0 101 0;
#X connect 102 1 101 1;
#X connect 103 0 86 9;
#X connect 104 0 103 0;
#X connect 104 1 103 1;
#X connect 105 0 9 1;
#X connect 106 0 124 0;
#X connect 106 0 193 1;
#X connect 107 0 126 0;
#X connect 107 0 192 1;
#X connect 108 0 129 0;
#X connect 108 0 192 2;
#X connect 109 0 131 0;
#X connect 109 0 192 3;
#X connect 110 0 133 0;
#X connect 110 0 192 4;
#X connect 111 0 135 0;
#X connect 111 0 192 5;
#X connect 112 0 137 0;
#X connect 112 0 192 6;
#X connect 113 0 139 0;
#X connect 113 0 192 7;
#X connect 114 0 125 0;
#X connect 114 0 195 1;
#X connect 115 0 127 0;
#X connect 115 0 194 1;
#X connect 116 0 130 0;
#X connect 116 0 194 2;
#X connect 117 0 132 0;
#X connect 117 0 194 3;
#X connect 118 0 134 0;
#X connect 118 0 194 4;
#X connect 119 0 136 0;
#X connect 119 0 194 5;
#X connect 120 0 138 0;
#X connect 120 0 194 6;
#X connect 121 0 140 0;
#X connect 121 0 194 7;
#X connect 122 0 128 0;
#X connect 122 1 152 0;
#X connect 123 0 122 1;
#X connect 123 0 192 8;
#X connect 124 0 122 2;
#X connect 125 0 124 0;
#X connect 125 1 124 1;
#X connect 126 0 122 3;
#X connect 127 0 126 0;
#X connect 127 1 126 1;
#X connect 129 0 122 4;
#X connect 130 0 129 0;
#X connect 130 1 129 1;
#X connect 131 0 122 5;
#X connect 132 0 131 0;
#X connect 132 1 131 1;
#X connect 133 0 122 6;
#X connect 134 0 133 0;
#X connect 134 1 133 1;
#X connect 135 0 122 7;
#X connect 136 0 135 0;
#X connect 136 1 135 1;
#X connect 137 0 122 8;
#X connect 138 0 137 0;
#X connect 138 1 137 1;
#X connect 139 0 122 9;
#X connect 140 0 139 0;
#X connect 140 1 139 1;
#X connect 141 0 25 3;
#X connect 141 0 185 1;
#X connect 142 0 44 3;
#X connect 142 0 184 1;
#X connect 143 0 47 3;
#X connect 143 0 184 2;
#X connect 144 0 54 3;
#X connect 144 0 184 3;
#X connect 145 0 57 3;
#X connect 145 0 184 4;
#X connect 146 0 61 3;
#X connect 146 0 184 5;
#X connect 147 0 63 3;
#X connect 147 0 184 6;
#X connect 148 0 66 3;
#X connect 148 0 184 7;
#X connect 149 0 207 0;
#X connect 149 1 8 0;
#X connect 149 2 10 0;
#X connect 150 0 151 1;
#X connect 150 0 152 1;
#X connect 151 0 45 0;
#X connect 152 0 105 0;
#X connect 153 0 35 0;
#X connect 154 0 33 0;
#X connect 154 1 34 0;
#X connect 154 2 26 0;
#X connect 154 3 27 0;
#X connect 154 4 28 0;
#X connect 154 5 29 0;
#X connect 154 6 32 0;
#X connect 154 7 31 0;
#X connect 154 8 30 0;
#X connect 155 0 9 5;
#X connect 156 0 161 0;
#X connect 159 0 38 0;
#X connect 159 1 38 1;
#X connect 160 0 161 0;
#X connect 161 0 154 0;
#X connect 167 0 197 0;
#X connect 168 0 171 1;
#X connect 169 0 171 1;
#X connect 170 0 169 0;
#X connect 170 1 201 0;
#X connect 170 2 168 0;
#X connect 170 2 167 0;
#X connect 171 0 167 1;
#X connect 172 0 170 0;
#X connect 173 0 167 2;
#X connect 175 0 171 0;
#X connect 176 0 175 0;
#X connect 177 0 68 0;
#X connect 177 1 69 0;
#X connect 177 2 70 0;
#X connect 177 3 71 0;
#X connect 177 4 72 0;
#X connect 177 5 73 0;
#X connect 177 6 74 0;
#X connect 177 7 75 0;
#X connect 177 8 87 0;
#X connect 178 0 171 0;
#X connect 179 0 178 0;
#X connect 184 0 171 0;
#X connect 185 0 184 0;
#X connect 190 0 106 0;
#X connect 190 1 107 0;
#X connect 190 2 108 0;
#X connect 190 3 109 0;
#X connect 190 4 110 0;
#X connect 190 5 111 0;
#X connect 190 6 112 0;
#X connect 190 7 113 0;
#X connect 190 8 123 0;
#X connect 192 0 171 0;
#X connect 193 0 192 0;
#X connect 194 0 171 0;
#X connect 195 0 194 0;
#X connect 197 0 177 0;
#X connect 197 1 200 0;
#X connect 197 2 199 0;
#X connect 197 3 190 0;
#X connect 197 4 198 0;
#X connect 197 5 25 1;
#X connect 197 6 44 1;
#X connect 197 7 47 1;
#X connect 197 8 54 1;
#X connect 197 9 57 1;
#X connect 197 10 61 1;
#X connect 197 11 63 1;
#X connect 197 12 66 1;
#X connect 198 0 114 0;
#X connect 198 1 115 0;
#X connect 198 2 116 0;
#X connect 198 3 117 0;
#X connect 198 4 118 0;
#X connect 198 5 119 0;
#X connect 198 6 120 0;
#X connect 198 7 121 0;
#X connect 199 0 141 0;
#X connect 199 1 142 0;
#X connect 199 2 143 0;
#X connect 199 3 144 0;
#X connect 199 4 145 0;
#X connect 199 5 146 0;
#X connect 199 6 147 0;
#X connect 199 7 148 0;
#X connect 200 0 76 0;
#X connect 200 1 77 0;
#X connect 200 2 78 0;
#X connect 200 3 79 0;
#X connect 200 4 80 0;
#X connect 200 5 81 0;
#X connect 200 6 82 0;
#X connect 200 7 83 0;
#X connect 201 0 66 2;
#X connect 201 1 63 2;
#X connect 201 2 61 2;
#X connect 201 3 57 2;
#X connect 201 4 54 2;
#X connect 201 5 47 2;
#X connect 201 6 44 2;
#X connect 201 7 25 2;
#X connect 201 8 195 0;
#X connect 201 9 193 0;
#X connect 201 10 185 0;
#X connect 201 11 179 0;
#X connect 201 12 176 0;
#X connect 201 13 203 0;
#X connect 203 0 36 1;
#X connect 204 0 167 3;
#X connect 205 0 149 9;
#X connect 206 0 205 0;
#X connect 207 0 209 0;
#X connect 207 1 208 1;
#X connect 208 0 206 0;
#X connect 209 0 84 0;
#X connect 209 0 208 0;
#X coords 0 -1 1 1 380 300 1 100 100;
#X restore -47 23 pd grainstates2c;
#N canvas 218 81 1184 711 songpos96-16 0;
#X obj 318 440 + 1;
#X obj 267 436 float;
#X msg 206 296 1;
#X obj 218 321 /;
#X obj 209 273 t f f;
#X obj 228 344 * 15000;
#X obj 339 355 t b f;
#X obj 263 405 metro 125;
#X msg 340 329 -2;
#X obj 172 17 loadbang;
#X floatatom 126 113 5 30 300 0 bpm - -, f 5;
#X msg -2 85 set \$1;
#X msg 5 139 168.698;
#X obj 174 112 bng 15 250 50 0 empty empty empty 6 7 0 10 -261234 -1
-1;
#X obj 278 636 outlet;
#X obj 570 496 outlet;
#X text 618 497 bpm->;
#X obj 200 112 bng 15 50 20 0 empty empty empty 6 7 0 10 -204786 -1
-1;
#X obj 208 225 float;
#X obj 435 539 outlet;
#X text 144 343 1/16 in ms;
#X text 485 540 pos96->;
#X obj 259 373 / 6;
#X text 219 371 1/96;
#X obj 280 481 / 6;
#X obj 280 505 int;
#X obj 279 530 change;
#X obj 600 64 + 1;
#X obj 602 29 float;
#X obj 600 96 moses 2;
#X obj 600 155 timer;
#X obj 600 123 t b;
#X obj 648 122 t b b;
#X obj 653 243 /;
#X msg 623 221 60000;
#X obj 618 183 t b f;
#X obj 656 268 moses 10;
#X text 500 72 beatcounter;
#X obj 772 358 float;
#X obj 769 401 + 1;
#X obj 688 426 +;
#X obj 729 396 *;
#X obj 705 328 t f b;
#X obj 698 464 /;
#X msg 884 211 0;
#X text 499 302 mean (as seen on idafx blog);
#X obj 864 324 t f f;
#X obj 921 503 moses 0.1;
#X text 880 303 reset;
#X obj 870 366 /;
#X obj 849 431 < 0.75;
#X obj 903 435 > 1.25;
#X obj 869 391 t f f;
#X obj 877 471 ||;
#X obj 174 54 t b b b;
#X obj 43 -7 inlet;
#X obj 107 -11 inlet;
#X text 329 637 pos16->;
#X text 46 14 sync;
#X text 111 10 tap;
#X connect 0 0 1 1;
#X connect 0 0 24 0;
#X connect 0 0 19 0;
#X connect 1 0 0 0;
#X connect 2 0 3 0;
#X connect 3 0 5 0;
#X connect 4 0 2 0;
#X connect 4 1 3 1;
#X connect 5 0 22 0;
#X connect 6 0 7 0;
#X connect 6 1 1 0;
#X connect 7 0 1 0;
#X connect 8 0 6 0;
#X connect 9 0 54 0;
#X connect 10 0 11 0;
#X connect 10 0 18 1;
#X connect 11 0 12 0;
#X connect 12 0 10 0;
#X connect 13 0 8 0;
#X connect 13 0 18 0;
#X connect 17 0 28 0;
#X connect 18 0 4 0;
#X connect 18 0 15 0;
#X connect 22 0 7 1;
#X connect 24 0 25 0;
#X connect 25 0 26 0;
#X connect 26 0 14 0;
#X connect 27 0 28 1;
#X connect 27 0 29 0;
#X connect 28 0 27 0;
#X connect 29 0 31 0;
#X connect 29 1 32 0;
#X connect 30 0 35 0;
#X connect 30 0 46 0;
#X connect 31 0 30 0;
#X connect 32 0 30 0;
#X connect 32 1 30 1;
#X connect 33 0 36 0;
#X connect 34 0 33 0;
#X connect 35 0 34 0;
#X connect 35 1 33 1;
#X connect 36 1 42 0;
#X connect 38 0 39 0;
#X connect 38 0 41 0;
#X connect 39 0 38 1;
#X connect 39 0 43 1;
#X connect 40 0 43 0;
#X connect 41 0 40 1;
#X connect 42 0 40 0;
#X connect 42 1 38 0;
#X connect 43 0 41 1;
#X connect 43 0 10 0;
#X connect 44 0 38 1;
#X connect 44 0 28 1;
#X connect 46 0 49 1;
#X connect 46 1 49 0;
#X connect 47 1 44 0;
#X connect 49 0 52 0;
#X connect 50 0 53 0;
#X connect 51 0 53 1;
#X connect 52 0 50 0;
#X connect 52 1 51 0;
#X connect 53 0 47 0;
#X connect 54 0 13 0;
#X connect 54 1 13 0;
#X connect 54 2 12 0;
#X connect 55 0 13 0;
#X connect 56 0 17 0;
#X coords 0 -1 1 1 120 30 1 100 100;
#X restore -49 -53 pd songpos96-16;
#X obj 211 -47 hsl 128 8 0 128 0 0 empty empty empty -2 -8 0 10 -262144
-1 -1 0 1;
#X obj 211 -35 hsl 128 8 0 128 0 0 empty empty empty -2 -8 0 10 -262144
-1 -1 0 1;
#X obj 211 -22 hsl 128 8 0 128 0 0 empty empty empty -2 -8 0 10 -262144
-1 -1 0 1;
#X obj 127 -37 nbx 3 14 -24 24 0 0 empty empty empty 0 -8 0 10 -262144
-1 -1 0 256;
#X obj 67 355 dac~;
#X text 653 435 2013 martin brinkmann;
#X text 654 337 grainstates \, a graincloud sequencer plus fx;
#X text 654 353 made with pd 0.44 'vanilla' (except playlist);
#X text 654 407 preset management \, copy/paste for states \, improved
granulator;
#X text 208 -61 thinner \, shorter \, random pitch;
#X text 125 -52 transpose;
#X text -36 496 same crude sequencer as in the 1st version (which actually
contributes to the sound): step-sequencers scanning through a table
with values for up to 8 'states'. pattern controlled filter and dual-delay
fx.;
#X text 650 366 'turns everything into an ambient mess' \, since 2001
a more 'straightforward' version of grainstates is included with my
instruments-collection.;
#X connect 0 0 6 0;
#X connect 0 1 6 1;
#X connect 1 0 0 0;
#X connect 2 0 0 2;
#X connect 3 0 0 3;
#X connect 4 0 0 4;
#X connect 5 0 0 1;
