#N canvas 129 128 1361 546 10;
#N canvas 437 23 1440 799 guts 0;
#X obj 137 234 metro 100;
#X obj 353 909 outlet~;
#X obj 415 910 outlet~;
#X obj 137 175 r \$0-st;
#X obj 305 3 r \$0-pos;
#X obj 261 220 r \$0-posj;
#X obj 137 357 route 0 1 2 3 4 5 6 7 8 9 10 11 12 13 14 15 16 17 18
19 20 21 22 23 24 25 26 27 28 29;
#X obj 383 79 r \$0-len;
#X obj 624 -65 r \$0-sz;
#X obj 629 101 expr pow(2 \, $f1 * -1 / 12) * $f2;
#X obj 629 44 t b f;
#X obj 719 -4 r \$0-pit;
#X obj 661 253 expr pow(2 \, $f1 * -1 / 12) * $f2;
#X obj 661 224 t b f;
#X obj 781 161 / 50;
#X obj 629 183 t f f;
#X obj 647 332 -;
#X obj 629 148 f;
#X obj 781 190 t b f;
#X obj 647 359 * 100;
#X obj 647 385 i;
#X obj 863 80 r \$0-pitj;
#X obj 435 207 r \$0-pan;
#X obj 506 221 r \$0-panj;
#X obj 506 277 / 2;
#X obj 137 332 pack f f f f f f f f;
#X obj 435 268 / 100;
#X obj 305 100 *;
#X obj 136 299 % 30;
#X obj 305 78 * 0.001;
#X obj 137 260 f;
#X obj 174 261 + 1;
#X obj 162 -61 r \$0-voice;
#X obj 61 114 /;
#X obj 25 172 lin_interp0-1;
#X text 143 -79 overlap calculate;
#X floatatom 61 140 5 0 0 0 - - -, f 5;
#X obj -22 106 - 1;
#X obj 57 61 t b b f;
#X obj 136 59 t b f;
#X obj -22 81 * 0.01;
#X obj -23 135 *;
#X obj -22 58 r \$0-ovrl;
#X floatatom 215 145 5 0 0 1 time_according_to_pitch - -, f 5;
#X floatatom 572 74 5 0 0 0 - - -, f 5;
#X obj -186 44 catch~ overlap-gran-\$1;
#X obj -186 84 unsig~ 20;
#X obj -26 163 + 0;
#X obj -187 136 t b f;
#X obj -186 110 clip 0 1;
#X text -172 9 overlap mod;
#X obj -143 364 unsig~ 20;
#X obj -144 440 t b f;
#X obj -143 388 * 15;
#X obj -143 414 clip 0 30;
#X obj 380 -103 unsig~ 20;
#X obj 379 -27 t b f;
#X obj 305 41 + 0;
#X obj 380 -79 * 500;
#X obj 380 -53 clip 0 1000;
#N canvas 223 107 354 289 mod_posj 0;
#X obj 62 81 unsig~ 20;
#X obj 61 157 t b f;
#X obj 62 131 clip 0 1000;
#X obj 59 231 outlet;
#X obj 118 233 outlet;
#X obj 62 105 * 100;
#X obj 62 41 catch~ pos-j-gran-\$1;
#X connect 0 0 5 0;
#X connect 1 0 3 0;
#X connect 1 1 4 0;
#X connect 2 0 1 0;
#X connect 5 0 2 0;
#X connect 6 0 0 0;
#X restore 319 189 pd mod_posj;
#X obj -156 298 catch~ voice-gran-\$1;
#X obj 380 -143 catch~ pos-gran-\$1;
#N canvas 223 107 354 289 mod_pan 0;
#X obj 62 81 unsig~ 20;
#X obj 61 157 t b f;
#X obj 62 131 clip 0 1000;
#X obj 59 231 outlet;
#X obj 118 233 outlet;
#X obj 62 41 catch~ pan-gran-\$1;
#X obj 62 105 * 50;
#X connect 0 0 6 0;
#X connect 1 0 3 0;
#X connect 1 1 4 0;
#X connect 2 0 1 0;
#X connect 5 0 0 0;
#X connect 6 0 2 0;
#X restore 453 157 pd mod_pan;
#N canvas 223 107 354 289 mod_panj 0;
#X obj 62 81 unsig~ 20;
#X obj 61 157 t b f;
#X obj 62 131 clip 0 1000;
#X obj 59 231 outlet;
#X obj 118 233 outlet;
#X obj 62 105 * 50;
#X obj 62 41 catch~ pan-j-gran-\$1;
#X connect 0 0 5 0;
#X connect 1 0 3 0;
#X connect 1 1 4 0;
#X connect 2 0 1 0;
#X connect 5 0 2 0;
#X connect 6 0 0 0;
#X restore 523 185 pd mod_panj;
#N canvas 223 107 354 289 mod_size 0;
#X obj 62 81 unsig~ 20;
#X obj 61 157 t b f;
#X obj 62 131 clip 0 1000;
#X obj 59 231 outlet;
#X obj 118 233 outlet;
#X obj 62 41 catch~ size-gran-\$1;
#X obj 62 105 * 300;
#X connect 0 0 6 0;
#X connect 1 0 3 0;
#X connect 1 1 4 0;
#X connect 2 0 1 0;
#X connect 5 0 0 0;
#X connect 6 0 2 0;
#X restore 657 -108 pd mod_size;
#X obj 624 -20 + 0;
#X obj 506 251 + 0;
#X obj 435 239 + 0;
#X obj 261 265 + 0;
#X obj 55 226 + 0;
#N canvas 223 107 354 289 mod_pit 0;
#X obj 62 81 unsig~ 20;
#X obj 61 157 t b f;
#X obj 62 131 clip 0 1000;
#X obj 59 231 outlet;
#X obj 118 233 outlet;
#X obj 62 41 catch~ pitch-gran-\$1;
#X obj 62 105 * 12;
#X connect 0 0 6 0;
#X connect 1 0 3 0;
#X connect 1 1 4 0;
#X connect 2 0 1 0;
#X connect 5 0 0 0;
#X connect 6 0 2 0;
#X restore 753 -56 pd mod_pit;
#X obj 719 44 + 0;
#X obj 858 113 + 0;
#N canvas 223 107 354 289 mod_pitj 0;
#X obj 62 81 unsig~ 20;
#X obj 61 157 t b f;
#X obj 62 131 clip 0 1000;
#X obj 59 231 outlet;
#X obj 118 233 outlet;
#X obj 62 41 catch~ pitch-j-gran-\$1;
#X obj 62 105 * 50;
#X connect 0 0 6 0;
#X connect 1 0 3 0;
#X connect 1 1 4 0;
#X connect 2 0 1 0;
#X connect 5 0 0 0;
#X connect 6 0 2 0;
#X restore 919 5 pd mod_pitj;
#X obj 623 12 clip 0 1000;
#X obj 56 258 clip 0 30;
#X obj 135 484 grain \$0-buff 1;
#X obj 137 602 grain \$0-buff 5;
#X obj 137 512 grain \$0-buff 2;
#X obj 137 572 grain \$0-buff 4;
#X obj 137 632 grain \$0-buff 6;
#X obj 137 692 grain \$0-buff 8;
#X obj 457 482 grain \$0-buff 11;
#X obj 757 482 grain \$0-buff 21;
#X obj 137 542 grain \$0-buff 3;
#X obj 137 662 grain \$0-buff 7;
#X obj 137 722 grain \$0-buff 9;
#X obj 137 752 grain \$0-buff 10;
#X obj 457 512 grain \$0-buff 12;
#X obj 457 542 grain \$0-buff 13;
#X obj 457 572 grain \$0-buff 14;
#X obj 457 602 grain \$0-buff 15;
#X obj 457 632 grain \$0-buff 16;
#X obj 457 662 grain \$0-buff 17;
#X obj 457 692 grain \$0-buff 18;
#X obj 457 720 grain \$0-buff 19;
#X obj 456 748 grain \$0-buff 20;
#X obj 757 512 grain \$0-buff 22;
#X obj 757 542 grain \$0-buff 23;
#X obj 757 572 grain \$0-buff 24;
#X obj 757 602 grain \$0-buff 25;
#X obj 757 632 grain \$0-buff 26;
#X obj 757 662 grain \$0-buff 27;
#X obj 757 692 grain \$0-buff 28;
#X obj 757 720 grain \$0-buff 29;
#X obj 756 748 grain \$0-buff 30;
#X connect 0 0 30 0;
#X connect 3 0 0 0;
#X connect 4 0 57 0;
#X connect 5 0 69 0;
#X connect 6 0 77 0;
#X connect 6 1 79 0;
#X connect 6 2 85 0;
#X connect 6 3 80 0;
#X connect 6 4 78 0;
#X connect 6 5 81 0;
#X connect 6 6 86 0;
#X connect 6 7 82 0;
#X connect 6 8 87 0;
#X connect 6 9 88 0;
#X connect 6 10 83 0;
#X connect 6 11 89 0;
#X connect 6 12 90 0;
#X connect 6 13 91 0;
#X connect 6 14 92 0;
#X connect 6 15 93 0;
#X connect 6 16 94 0;
#X connect 6 17 95 0;
#X connect 6 18 96 0;
#X connect 6 19 97 0;
#X connect 6 20 84 0;
#X connect 6 21 98 0;
#X connect 6 22 99 0;
#X connect 6 23 100 0;
#X connect 6 24 101 0;
#X connect 6 25 102 0;
#X connect 6 26 103 0;
#X connect 6 27 104 0;
#X connect 6 28 105 0;
#X connect 6 29 106 0;
#X connect 7 0 27 1;
#X connect 8 0 66 0;
#X connect 9 0 43 0;
#X connect 9 0 17 0;
#X connect 9 0 25 2;
#X connect 10 0 9 0;
#X connect 10 1 9 1;
#X connect 10 1 44 0;
#X connect 11 0 72 0;
#X connect 12 0 16 1;
#X connect 13 0 12 0;
#X connect 13 1 12 1;
#X connect 14 0 18 0;
#X connect 15 0 16 0;
#X connect 15 1 13 0;
#X connect 16 0 19 0;
#X connect 17 0 15 0;
#X connect 18 0 17 0;
#X connect 18 1 12 0;
#X connect 19 0 20 0;
#X connect 20 0 25 5;
#X connect 21 0 73 0;
#X connect 22 0 68 0;
#X connect 23 0 67 0;
#X connect 24 0 25 7;
#X connect 25 0 6 0;
#X connect 26 0 25 6;
#X connect 27 0 25 3;
#X connect 28 0 31 0;
#X connect 28 0 25 0;
#X connect 29 0 27 0;
#X connect 30 0 28 0;
#X connect 31 0 30 1;
#X connect 32 0 38 0;
#X connect 32 0 70 0;
#X connect 33 0 36 0;
#X connect 34 0 0 1;
#X connect 36 0 34 1;
#X connect 37 0 41 0;
#X connect 37 0 41 1;
#X connect 38 0 34 0;
#X connect 38 1 33 0;
#X connect 38 2 33 1;
#X connect 39 0 34 0;
#X connect 39 1 33 0;
#X connect 40 0 37 0;
#X connect 41 0 47 0;
#X connect 42 0 40 0;
#X connect 43 0 34 2;
#X connect 43 0 39 0;
#X connect 45 0 46 0;
#X connect 46 0 49 0;
#X connect 47 0 34 0;
#X connect 48 0 47 0;
#X connect 48 1 47 1;
#X connect 49 0 48 0;
#X connect 51 0 53 0;
#X connect 52 0 70 0;
#X connect 52 1 70 1;
#X connect 53 0 54 0;
#X connect 54 0 52 0;
#X connect 55 0 58 0;
#X connect 56 0 57 0;
#X connect 56 1 57 1;
#X connect 57 0 29 0;
#X connect 58 0 59 0;
#X connect 59 0 56 0;
#X connect 60 0 69 0;
#X connect 60 1 69 1;
#X connect 61 0 51 0;
#X connect 62 0 55 0;
#X connect 63 0 68 0;
#X connect 63 1 68 1;
#X connect 64 0 67 0;
#X connect 64 1 67 1;
#X connect 65 0 66 0;
#X connect 65 1 66 1;
#X connect 66 0 75 0;
#X connect 67 0 24 0;
#X connect 68 0 26 0;
#X connect 69 0 25 4;
#X connect 70 0 76 0;
#X connect 71 0 72 0;
#X connect 71 1 72 1;
#X connect 72 0 9 0;
#X connect 73 0 14 0;
#X connect 74 0 73 0;
#X connect 74 1 73 1;
#X connect 75 0 10 0;
#X connect 75 0 25 1;
#X connect 76 0 28 1;
#X connect 77 0 1 0;
#X connect 77 1 2 0;
#X connect 78 0 1 0;
#X connect 78 1 2 0;
#X connect 79 0 1 0;
#X connect 79 1 2 0;
#X connect 80 0 1 0;
#X connect 80 1 2 0;
#X connect 81 0 1 0;
#X connect 81 1 2 0;
#X connect 82 0 1 0;
#X connect 82 1 2 0;
#X connect 83 0 1 0;
#X connect 83 1 2 0;
#X connect 84 0 1 0;
#X connect 84 1 2 0;
#X connect 85 0 1 0;
#X connect 85 1 2 0;
#X connect 86 0 1 0;
#X connect 86 1 2 0;
#X connect 87 0 1 0;
#X connect 87 1 2 0;
#X connect 88 0 1 0;
#X connect 88 1 2 0;
#X connect 89 0 1 0;
#X connect 89 1 2 0;
#X connect 90 0 1 0;
#X connect 90 1 2 0;
#X connect 91 0 1 0;
#X connect 91 1 2 0;
#X connect 92 0 1 0;
#X connect 92 1 2 0;
#X connect 93 0 1 0;
#X connect 93 1 2 0;
#X connect 94 0 1 0;
#X connect 94 1 2 0;
#X connect 95 0 1 0;
#X connect 95 1 2 0;
#X connect 96 0 1 0;
#X connect 96 1 2 0;
#X connect 97 0 1 0;
#X connect 97 1 2 0;
#X connect 98 0 1 0;
#X connect 98 1 2 0;
#X connect 99 0 1 0;
#X connect 99 1 2 0;
#X connect 100 0 1 0;
#X connect 100 1 2 0;
#X connect 101 0 1 0;
#X connect 101 1 2 0;
#X connect 102 0 1 0;
#X connect 102 1 2 0;
#X connect 103 0 1 0;
#X connect 103 1 2 0;
#X connect 104 0 1 0;
#X connect 104 1 2 0;
#X connect 105 0 1 0;
#X connect 105 1 2 0;
#X connect 106 0 1 0;
#X connect 106 1 2 0;
#X restore 325 452 pd guts;
#X obj 298 301 r \$0-lvl;
#X obj 298 326 pack f 20;
#X obj 298 351 line~;
#X obj 91 534 *~;
#X obj 136 536 *~;
#X obj 104 116 cnv 15 245 120 empty empty empty 20 12 0 14 -261682
-66577 0;
#X obj 186 140 tgl 32 0 \$0-st \$0-rst start 2 16 0 10 -260097 -1 -1
0 1;
#X floatatom 108 121 5 0 100 1 overlap #0-rovrl #0-ovrl, f 5;
#X floatatom 108 140 5 5 1000 1 size #0-rsz #0-sz, f 5;
#X floatatom 108 159 5 -36 36 1 pitch #0-rpit #0-pit, f 5;
#X floatatom 223 122 5 0 1000 1 pos #0-rpos #0-pos, f 5;
#X floatatom 223 141 5 1 1000 1 pos_j #0-rposj #0-posj, f 5;
#X floatatom 108 178 5 0 100 1 pitch_j #0-rpitj #0-pitj, f 5;
#X floatatom 223 160 5 0 100 1 pan #0-rpan #0-pan, f 5;
#X floatatom 223 179 5 0 100 1 pan_j #0-rpanj #0-panj, f 5;
#X obj 304 122 vsl 20 70 0 9 0 0 \$0-lvl \$0-rlvl empty 0 -9 0 10 -260097
-1 -1 364 1;
#X obj 652 91 s \$0-rsz;
#X obj 709 90 s \$0-rpit;
#X obj 778 87 s \$0-rpitj;
#X obj 945 94 s \$0-rpos;
#X obj 1006 94 s \$0-rposj;
#X obj 1073 95 s \$0-rpan;
#X obj 1134 95 s \$0-rpanj;
#X obj 1313 93 s \$0-rlvl;
#X obj 637 240 table \$0-buff;
#X msg 413 259 read -resize \$1 \$2-buff;
#X obj 413 284 soundfiler;
#X obj 413 309 / 44.1;
#X obj 413 334 s \$0-len;
#X obj 487 366 pack \$0;
#X obj 486 336 t b;
#X obj 413 180 list prepend open;
#X obj 82 613 outlet~;
#X obj 142 613 outlet~;
#X obj 413 142 openpanel;
#X obj 330 121 bng 15 250 50 0 empty empty O 5 8 0 10 -262144 -1 -1
;
#X obj 413 229 list trim;
#X obj 413 203 list append \$0;
#X obj 683 362 print loaded;
#X floatatom 108 197 5 1 30 1 voices #0-rvoice #0-voice, f 5;
#X obj 33 382 s grain-switch-\$0-buff;
#X obj 33 313 r \$0-voice;
#X obj 197 248 s grain-envelope-\$0-buff;
#X obj 197 200 hsl 125 15 1 3 0 0 \$0-window \$0-rwindow rise-----bell-----hit
-2 8 0 10 -262144 -1 -1 0 1;
#X obj 41 201 loadbang;
#X msg 42 226 2;
#X obj 410 -45 loadbang;
#X msg 342 54 50;
#X msg 382 30 75;
#X msg 424 39 0;
#X msg 387 51 5;
#X obj 394 677 outlet;
#X obj 474 685 outlet;
#X obj 548 691 outlet;
#X obj 599 679 outlet;
#X obj 756 686 outlet;
#X obj 830 692 outlet;
#X obj 892 685 outlet;
#X obj 959 686 outlet;
#X obj 1137 703 outlet;
#X obj 580 13 inlet;
#X obj 654 16 inlet;
#X obj 711 12 inlet;
#X obj 787 21 inlet;
#X obj 1027 17 inlet;
#X obj 1072 17 inlet;
#X obj 1127 14 inlet;
#X obj 1172 14 inlet;
#X obj 1271 16 inlet;
#X obj 1215 96 s \$0-rwindow;
#X obj 1213 12 inlet;
#X obj 990 636 r \$0-window;
#X obj 469 635 r \$0-sz;
#X obj 526 634 r \$0-pit;
#X obj 587 633 r \$0-pitj;
#X obj 734 632 r \$0-pos;
#X obj 795 632 r \$0-posj;
#X obj 862 633 r \$0-pan;
#X obj 923 633 r \$0-panj;
#X obj 1099 639 r \$0-lvl;
#X obj 1025 689 outlet;
#X obj 584 89 s \$0-rovrl;
#X obj 401 633 r \$0-ovrl;
#X msg 68 348 bang;
#X obj 777 176 split-file-name;
#X obj 777 196 list prepend set;
#X obj 777 216 list trim;
#X msg 779 289 bells_2.wav;
#X obj 602 204 list trim;
#X obj 602 184 list prepend symbol;
#X obj 566 38 spigot;
#X symbolatom 107 221 30 0 0 0 - - -, f 30;
#X obj 640 43 spigot;
#X obj 712 45 spigot;
#X obj 780 59 spigot;
#X obj 1026 55 spigot;
#X obj 1096 55 spigot;
#X obj 1152 54 spigot;
#X obj 1207 53 spigot;
#X obj 1262 58 spigot;
#X obj 1317 57 spigot;
#X obj 331 220 tgl 15 0 empty empty ctrl -25 7 0 10 -262144 -1 -1 1
1;
#X msg 34 261 1;
#X floatatom 1082 229 5 0 0 0 - - -, f 5;
#X msg 1084 279 set \$1;
#X obj 1148 278 store granulate-ctrl-\$1;
#X floatatom 17 90 5 0 0 0 - - -, f 5;
#X obj 144 61 store granulate-start-\$1;
#X msg 19 45 set \$1;
#X obj 601 164 spigot;
#X obj 634 139 r load_samples;
#X obj 278 160 bng 15 250 50 0 empty empty c 4 7 0 10 -260097 -262144
-262144;
#X msg 443 97 50;
#X obj 532 316 bng 15 250 50 0 empty empty empty 17 7 0 10 -262144
-1 -1;
#X msg 647 316 normalize;
#X msg 489 393 \; \$1-buff normalize;
#X obj 853 335 store granulate-sample-\$1;
#X msg 596 131 1;
#X obj 666 676 outlet;
#X obj 654 630 r \$0-voice;
#X obj 874 -10 inlet;
#X obj 882 22 spigot;
#X obj 863 89 s \$0-rvoice;
#X obj 181 290 t b;
#X obj 181 319 s \$0-rvoice;
#X obj 660 652 i;
#X obj 888 57 i;
#N canvas 177 261 1309 356 osc_receive 0;
#X obj 60 146 route control;
#X obj 59 168 route x;
#X floatatom 60 196 5 0 0 0 - - -, f 5;
#X obj 57 236 outlet control;
#X floatatom 157 200 5 0 0 0 - - -, f 5;
#X obj 158 239 outlet level;
#X floatatom 370 202 5 0 0 0 - - -, f 5;
#X floatatom 480 201 5 0 0 0 - - -, f 5;
#X obj 481 240 outlet lvl_link;
#X obj 617 239 outlet pan;
#X obj 723 264 outlet pan_link;
#X obj 371 241 outlet wave;
#X obj 696 45 route Granulate\$1, f 41;
#X obj 156 171 route map;
#X obj 369 174 route map;
#X obj 479 173 route map;
#X obj 615 172 route map;
#X obj 743 176 route map;
#X floatatom 763 213 5 0 0 0 - - -, f 5;
#X obj 869 265 outlet pos;
#X obj 1025 172 route map;
#X floatatom 1106 201 5 0 0 0 - - -, f 5;
#X obj 1029 277 outlet RND_position;
#X floatatom 1222 200 5 0 0 0 - - -, f 5;
#X obj 1221 172 route map;
#X obj 1219 240 outlet pan;
#X floatatom 1333 208 5 0 0 0 - - -, f 5;
#X obj 1332 180 route map;
#X floatatom 1446 173 5 0 0 0 - - -, f 5;
#X obj 1445 145 route map;
#X obj 1443 213 outlet envelope;
#X floatatom 1569 167 5 0 0 0 - - -, f 5;
#X obj 1568 139 route map;
#X obj 1697 136 route x;
#X floatatom 1698 164 5 0 0 0 - - -, f 5;
#X obj 1698 114 route play;
#X obj 1695 204 outlet play;
#X obj 1570 206 outlet level;
#X obj 1330 248 outlet RND_pan;
#X obj 869 178 route map;
#X obj 1018 134 osc-input RND_position;
#X obj 157 150 osc-input overlap, f 23;
#X obj 370 152 osc-input size;
#X obj 480 151 osc-input pitch;
#X obj 616 150 osc-input RND_pitch;
#X obj 742 149 osc-input voices;
#X obj 869 154 osc-input position;
#X obj 1222 150 osc-input pan;
#X obj 1333 158 osc-input RND_pan;
#X obj 1446 123 osc-input envelope;
#X obj 1571 117 osc-input level;
#X obj 695 -4 r Instruments;
#X connect 0 0 1 0;
#X connect 1 0 2 0;
#X connect 2 0 3 0;
#X connect 4 0 5 0;
#X connect 6 0 11 0;
#X connect 7 0 8 0;
#X connect 12 0 0 0;
#X connect 12 0 35 0;
#X connect 12 0 40 0;
#X connect 12 0 41 0;
#X connect 12 0 42 0;
#X connect 12 0 43 0;
#X connect 12 0 44 0;
#X connect 12 0 45 0;
#X connect 12 0 46 0;
#X connect 12 0 47 0;
#X connect 12 0 48 0;
#X connect 12 0 49 0;
#X connect 12 0 50 0;
#X connect 13 0 4 0;
#X connect 14 0 6 0;
#X connect 15 0 7 0;
#X connect 16 0 9 0;
#X connect 17 0 10 0;
#X connect 17 0 18 0;
#X connect 20 0 21 0;
#X connect 20 0 22 0;
#X connect 23 0 25 0;
#X connect 24 0 23 0;
#X connect 26 0 38 0;
#X connect 27 0 26 0;
#X connect 28 0 30 0;
#X connect 29 0 28 0;
#X connect 31 0 37 0;
#X connect 32 0 31 0;
#X connect 33 0 34 0;
#X connect 34 0 36 0;
#X connect 35 0 33 0;
#X connect 39 0 19 0;
#X connect 40 0 20 0;
#X connect 41 0 13 0;
#X connect 42 0 14 0;
#X connect 43 0 15 0;
#X connect 44 0 16 0;
#X connect 45 0 17 0;
#X connect 46 0 39 0;
#X connect 47 0 24 0;
#X connect 48 0 27 0;
#X connect 49 0 29 0;
#X connect 50 0 32 0;
#X connect 51 0 12 0;
#X restore 595 -47 pd osc_receive, f 41;
#X msg 319 38 2;
#X msg 342 15 1;
#N canvas 207 205 1680 647 osc_send 0;
#X obj -34 30 inlet control;
#X obj 64 544 s send_granulate;
#X obj -49 197 oscformat Instruments Granulate\$1 control x;
#X obj 78 45 inlet ovrl;
#X obj 69 231 oscformat Instruments Granulate\$1 overlap x;
#X obj 68 158 * 0.01;
#X obj 191 44 inlet size;
#X obj 171 148 * 0.001;
#X obj 213 261 oscformat Instruments Granulate\$1 size x;
#X obj 288 50 inlet pitch;
#X obj 289 296 oscformat Instruments Granulate\$1 pitch x;
#X obj 301 152 / 72;
#X obj 301 116 + 36;
#X obj 420 52 inlet RND_pitch;
#X obj 394 196 oscformat Instruments Granulate\$1 RND_pitch x;
#X obj 430 122 * 0.01;
#X obj 529 48 inlet voices;
#X obj 542 232 oscformat Instruments Granulate\$1 voices x;
#X obj 509 159 / 30;
#X obj 639 46 inlet position;
#X obj 689 263 oscformat Instruments Granulate\$1 position x;
#X obj 619 147 * 0.001, f 10;
#X obj 771 43 inlet RND_position, f 33;
#X obj 779 324 oscformat Instruments Granulate\$1 RND_position x;
#X obj 771 77 osc-output RND_position;
#X obj 853 162 log;
#X floatatom 853 216 5 0 0 0 - - -, f 5;
#X obj 853 186 / 6.9;
#X obj 853 138 clip 1 993;
#X obj 1054 43 inlet pan;
#X obj 1052 99 osc-output pan;
#X obj 1054 147 * 0.01;
#X obj 974 377 oscformat Instruments Granulate\$1 pan x;
#X obj 64 118 osc-output ovrl;
#X obj 169 95 osc-output size;
#X obj 297 84 osc-output pitch;
#X obj 426 88 osc-output RND_pitch;
#X obj 510 116 osc-output voices;
#X obj 622 99 osc-output position;
#X obj 1196 151 * 0.01;
#X obj 1196 47 inlet RND_pan;
#X obj 1194 103 osc-output RND_pan;
#X obj 1098 332 oscformat Instruments Granulate\$1 RND_pan x;
#X obj 1343 54 inlet envelope;
#X obj 1340 96 osc-output envelope;
#X obj 1308 249 oscformat Instruments Granulate\$1 envelope x;
#X obj 1340 134 - 1;
#X obj 1358 180 * 0.5;
#X obj 1583 74 inlet level;
#X obj 1581 130 osc-output level;
#X obj 1512 372 oscformat Instruments Granulate\$1 level x;
#X obj 1962 59 inlet filename;
#X obj 1974 398 oscformat Instruments Granulate\$1 Sample filename
;
#X obj 2042 170 print;
#X obj 1977 345 list trim;
#X obj 1978 322 list prepend 0;
#X obj 1613 252 sqrt;
#X obj 1629 301 / 3;
#X obj 1782 60 inlet play;
#X obj 1754 275 oscformat Instruments Granulate\$1 play x;
#X connect 0 0 2 0;
#X connect 2 0 1 0;
#X connect 3 0 33 0;
#X connect 4 0 1 0;
#X connect 5 0 4 0;
#X connect 6 0 34 0;
#X connect 7 0 8 0;
#X connect 8 0 1 0;
#X connect 9 0 35 0;
#X connect 10 0 1 0;
#X connect 11 0 10 0;
#X connect 12 0 11 0;
#X connect 13 0 36 0;
#X connect 14 0 1 0;
#X connect 15 0 14 0;
#X connect 16 0 37 0;
#X connect 17 0 1 0;
#X connect 18 0 17 0;
#X connect 19 0 38 0;
#X connect 20 0 1 0;
#X connect 21 0 20 0;
#X connect 22 0 24 0;
#X connect 23 0 1 0;
#X connect 24 0 28 0;
#X connect 25 0 27 0;
#X connect 26 0 23 0;
#X connect 27 0 26 0;
#X connect 28 0 25 0;
#X connect 29 0 30 0;
#X connect 30 0 31 0;
#X connect 31 0 32 0;
#X connect 32 0 1 0;
#X connect 33 0 5 0;
#X connect 34 0 7 0;
#X connect 35 0 12 0;
#X connect 36 0 15 0;
#X connect 37 0 18 0;
#X connect 38 0 21 0;
#X connect 39 0 42 0;
#X connect 40 0 41 0;
#X connect 41 0 39 0;
#X connect 42 0 1 0;
#X connect 43 0 44 0;
#X connect 44 0 46 0;
#X connect 45 0 1 0;
#X connect 46 0 47 0;
#X connect 47 0 45 0;
#X connect 48 0 49 0;
#X connect 49 0 56 0;
#X connect 50 0 1 0;
#X connect 51 0 53 0;
#X connect 51 0 55 0;
#X connect 52 0 1 0;
#X connect 54 0 52 0;
#X connect 55 0 54 0;
#X connect 56 0 57 0;
#X connect 57 0 50 0;
#X connect 58 0 59 0;
#X connect 59 0 1 0;
#X restore 539 766 pd osc_send, f 52;
#X connect 0 0 4 0;
#X connect 0 1 5 0;
#X connect 1 0 2 0;
#X connect 2 0 3 0;
#X connect 3 0 4 1;
#X connect 3 0 5 1;
#X connect 4 0 33 0;
#X connect 5 0 34 0;
#X connect 7 0 108 0;
#X connect 7 0 109 0;
#X connect 7 0 124 0;
#X connect 7 0 131 12;
#X connect 26 0 27 0;
#X connect 26 0 39 0;
#X connect 27 0 28 0;
#X connect 27 0 31 0;
#X connect 28 0 29 0;
#X connect 30 0 116 0;
#X connect 31 0 30 0;
#X connect 32 0 38 0;
#X connect 35 0 32 0;
#X connect 35 0 85 0;
#X connect 36 0 35 0;
#X connect 37 0 26 0;
#X connect 38 0 37 0;
#X connect 42 0 41 0;
#X connect 42 0 84 0;
#X connect 44 0 43 0;
#X connect 45 0 46 0;
#X connect 45 0 103 0;
#X connect 46 0 44 0;
#X connect 47 0 48 0;
#X connect 47 0 49 0;
#X connect 47 0 50 0;
#X connect 47 0 51 0;
#X connect 47 0 118 0;
#X connect 47 0 129 0;
#X connect 47 0 130 0;
#X connect 48 0 22 0;
#X connect 49 0 17 0;
#X connect 49 0 82 0;
#X connect 50 0 18 0;
#X connect 50 0 20 0;
#X connect 50 0 19 0;
#X connect 50 0 23 0;
#X connect 51 0 21 0;
#X connect 51 0 123 0;
#X connect 61 0 91 0;
#X connect 62 0 93 0;
#X connect 63 0 94 0;
#X connect 64 0 95 0;
#X connect 65 0 96 0;
#X connect 66 0 97 0;
#X connect 67 0 98 0;
#X connect 68 0 99 0;
#X connect 69 0 101 0;
#X connect 71 0 100 0;
#X connect 72 0 81 0;
#X connect 72 0 131 10;
#X connect 73 0 53 0;
#X connect 73 0 131 2;
#X connect 74 0 54 0;
#X connect 74 0 131 3;
#X connect 75 0 55 0;
#X connect 75 0 131 4;
#X connect 76 0 56 0;
#X connect 76 0 131 6;
#X connect 77 0 57 0;
#X connect 77 0 131 7;
#X connect 78 0 58 0;
#X connect 78 0 131 8;
#X connect 79 0 59 0;
#X connect 79 0 131 9;
#X connect 80 0 60 0;
#X connect 80 0 131 11;
#X connect 83 0 52 0;
#X connect 83 0 131 1;
#X connect 84 0 44 0;
#X connect 85 0 86 0;
#X connect 85 0 131 13;
#X connect 86 0 87 0;
#X connect 87 0 88 0;
#X connect 87 0 92 0;
#X connect 88 0 110 0;
#X connect 88 0 117 0;
#X connect 88 0 131 13;
#X connect 89 0 32 0;
#X connect 90 0 89 0;
#X connect 91 0 82 0;
#X connect 93 0 17 0;
#X connect 94 0 18 0;
#X connect 95 0 19 0;
#X connect 96 0 20 0;
#X connect 97 0 21 0;
#X connect 98 0 22 0;
#X connect 99 0 23 0;
#X connect 100 0 70 0;
#X connect 101 0 24 0;
#X connect 102 0 104 0;
#X connect 103 0 102 0;
#X connect 104 0 105 0;
#X connect 104 0 106 0;
#X connect 104 0 91 1;
#X connect 104 0 93 1;
#X connect 104 0 94 1;
#X connect 104 0 95 1;
#X connect 104 0 96 1;
#X connect 104 0 97 1;
#X connect 104 0 98 1;
#X connect 104 0 99 1;
#X connect 104 0 100 1;
#X connect 104 0 101 1;
#X connect 104 0 122 1;
#X connect 104 0 131 0;
#X connect 105 0 102 0;
#X connect 106 0 104 0;
#X connect 107 0 108 0;
#X connect 107 0 7 0;
#X connect 108 0 107 0;
#X connect 109 0 107 0;
#X connect 110 0 90 0;
#X connect 111 0 110 1;
#X connect 112 0 113 0;
#X connect 113 0 22 0;
#X connect 114 0 31 0;
#X connect 115 0 27 0;
#X connect 117 0 88 0;
#X connect 117 0 92 0;
#X connect 118 0 110 1;
#X connect 120 0 126 0;
#X connect 121 0 122 0;
#X connect 122 0 127 0;
#X connect 124 0 125 0;
#X connect 126 0 119 0;
#X connect 126 0 131 5;
#X connect 127 0 123 0;
#X connect 128 0 102 0;
#X connect 128 1 82 0;
#X connect 128 2 17 0;
#X connect 128 3 18 0;
#X connect 128 4 19 0;
#X connect 128 5 123 0;
#X connect 128 6 20 0;
#X connect 128 7 21 0;
#X connect 128 8 22 0;
#X connect 128 9 23 0;
#X connect 128 10 70 0;
#X connect 128 11 24 0;
#X connect 128 12 7 0;
#X connect 129 0 70 0;
#X connect 130 0 24 0;
#X coords 0 -1 1 1 255 140 1 100 100;
