#N canvas 51 95 1254 714 10;
#X floatatom 500 246 5 0 0 0 - - -, f 5;
#X floatatom 630 158 5 0 0 0 - - -, f 5;
#X floatatom 587 201 5 0 0 0 - - -, f 5;
#X obj 130 24 hsl 128 15 0 1.99 0 0 empty empty empty -2 -8 0 10 -262144
-1 -1 1300 0;
#X obj 77 22 vsl 15 128 0 1.99 0 0 empty empty empty 0 -9 0 10 -262144
-1 -1 2500 0;
#X msg 240 132 1 1 1 1 1 1;
#X msg 250 211 0 0 0 0 0 0;
#X msg 362 134 2 2 2 2 2 2;
#X msg 372 198 3 3 3 3 3 3 3;
#X obj 449 66 t b l;
#X obj 637 66 bng 15 250 50 0 empty empty empty 17 7 0 10 -262144 -1
-1;
#X floatatom 1154 253 5 0 0 0 - - -, f 5;
#X floatatom 1038 254 5 0 0 0 - - -, f 5;
#X floatatom 1009 124 5 0 0 0 - - -, f 5;
#X floatatom 1010 220 5 0 0 0 - - -, f 5;
#X obj 949 87 t b l;
#X obj 1137 87 bng 15 250 50 0 empty empty empty 17 7 0 10 -262144
-1 -1;
#X msg 740 153 2 2 2 2 2 2;
#X msg 750 232 3 3 3 3 3 3 3;
#X msg 862 155 10 10 10 10 10 10;
#X msg 872 234 12 12 12 12 12 12;
#X obj 947 50 r xy2;
#N canvas 351 147 280 476 check_zone 1;
#X floatatom 117 131 5 0 0 0 - - -, f 5;
#X obj 162 128 i;
#X obj 117 83 t f f;
#X floatatom 27 135 5 0 0 0 - - -, f 5;
#X obj 72 132 i;
#X obj 27 87 t f f;
#X floatatom 149 263 5 0 0 0 - - -, f 5;
#X obj 148 209 +;
#X obj 148 232 == 2;
#X obj 116 316 spigot;
#X obj 28 318 spigot;
#X obj 33 20 inlet;
#X obj 32 48 unpack;
#X obj 34 392 pack;
#X obj 33 429 outlet;
#X text 13 45 x;
#X text 78 50 y;
#X obj 71 158 == 0;
#X obj 161 156 == 1;
#X connect 0 0 9 0;
#X connect 1 0 18 0;
#X connect 2 0 0 0;
#X connect 2 1 1 0;
#X connect 3 0 10 0;
#X connect 4 0 17 0;
#X connect 5 0 3 0;
#X connect 5 1 4 0;
#X connect 6 0 9 1;
#X connect 6 0 10 1;
#X connect 7 0 8 0;
#X connect 8 0 6 0;
#X connect 9 0 13 1;
#X connect 10 0 13 0;
#X connect 11 0 12 0;
#X connect 12 0 5 0;
#X connect 12 1 2 0;
#X connect 13 0 14 0;
#X connect 17 0 7 0;
#X connect 18 0 7 1;
#X restore 71 298 pd check_zone 0;
#X obj 131 246 pack;
#X obj 173 172 t b f;
#N canvas 954 118 280 476 check_zone 0;
#X floatatom 117 131 5 0 0 0 - - -, f 5;
#X obj 162 128 i;
#X obj 117 83 t f f;
#X floatatom 27 135 5 0 0 0 - - -, f 5;
#X obj 72 132 i;
#X obj 27 87 t f f;
#X floatatom 149 263 5 0 0 0 - - -, f 5;
#X obj 148 209 +;
#X obj 148 232 == 2;
#X obj 116 316 spigot;
#X obj 28 318 spigot;
#X obj 33 20 inlet;
#X obj 32 48 unpack;
#X obj 34 392 pack;
#X obj 33 429 outlet;
#X obj 70 158 == 1;
#X obj 161 155 == 1;
#X connect 0 0 9 0;
#X connect 1 0 16 0;
#X connect 2 0 0 0;
#X connect 2 1 1 0;
#X connect 3 0 10 0;
#X connect 4 0 15 0;
#X connect 5 0 3 0;
#X connect 5 1 4 0;
#X connect 6 0 9 1;
#X connect 6 0 10 1;
#X connect 7 0 8 0;
#X connect 8 0 6 0;
#X connect 9 0 13 1;
#X connect 10 0 13 0;
#X connect 11 0 12 0;
#X connect 12 0 5 0;
#X connect 12 1 2 0;
#X connect 13 0 14 0;
#X connect 15 0 7 0;
#X connect 16 0 7 1;
#X restore 192 297 pd check_zone 0;
#X obj 81 325 s xy1;
#X obj 189 330 s xy2;
#X obj 447 29 r xy1;
#X msg 1161 122 2, f 4;
#X msg 1114 164 1;
#X floatatom 65 198 5 0 0 0 - - -, f 5;
#X floatatom 96 88 5 0 0 0 - - -, f 5;
#X floatatom 665 610 5 0 0 0 - - -, f 5;
#X floatatom 549 611 5 0 0 0 - - -, f 5;
#X floatatom 520 481 5 0 0 0 - - -, f 5;
#X floatatom 521 577 5 0 0 0 - - -, f 5;
#X obj 460 444 t b l;
#X msg 673 480 1, f 4;
#X msg 625 521 0;
#X obj 648 444 bng 15 250 50 0 empty empty empty 17 7 0 10 -262144
-1 -1;
#X floatatom 1180 593 5 0 0 0 - - -, f 5;
#X floatatom 1053 610 5 0 0 0 - - -, f 5;
#X floatatom 1024 480 5 0 0 0 - - -, f 5;
#X obj 964 443 t b l;
#X obj 1152 443 bng 15 250 50 0 empty empty empty 17 7 0 10 -262144
-1 -1;
#X msg 832 511 10 10 10 10 10 10;
#X msg 1176 478 2, f 4;
#X obj 458 407 r xy3;
#X obj 962 405 r xy4;
#X msg 251 510 0 0 0 0 0 0;
#X msg 373 512 3 3 3 3 3 3;
#X msg 217 589 100 100 100 100 100 100;
#X msg 383 591 200 200 200 200 200 200;
#X msg 711 517 3 3 3 3 3 3;
#X msg 721 596 200 200 200 200 200 200;
#X msg 910 561 1000 1000 1000 1000 1000 1000;
#X msg 576 135 1;
#X msg 662 102 2, f 4;
#X msg 525 147 0;
#X msg 1094 521 1;
#N canvas 971 116 280 476 check_zone 0;
#X floatatom 117 131 5 0 0 0 - - -, f 5;
#X obj 162 128 i;
#X obj 117 83 t f f;
#X floatatom 27 135 5 0 0 0 - - -, f 5;
#X obj 72 132 i;
#X obj 27 87 t f f;
#X floatatom 149 263 5 0 0 0 - - -, f 5;
#X obj 148 209 +;
#X obj 148 232 == 2;
#X obj 116 316 spigot;
#X obj 28 318 spigot;
#X obj 33 20 inlet;
#X obj 71 158 == 0;
#X obj 32 48 unpack;
#X obj 34 392 pack;
#X obj 33 429 outlet;
#X obj 161 156 == 0;
#X connect 0 0 9 0;
#X connect 1 0 16 0;
#X connect 2 0 0 0;
#X connect 2 1 1 0;
#X connect 3 0 10 0;
#X connect 4 0 12 0;
#X connect 5 0 3 0;
#X connect 5 1 4 0;
#X connect 6 0 9 1;
#X connect 6 0 10 1;
#X connect 7 0 8 0;
#X connect 8 0 6 0;
#X connect 9 0 14 1;
#X connect 10 0 14 0;
#X connect 11 0 13 0;
#X connect 12 0 7 0;
#X connect 13 0 5 0;
#X connect 13 1 2 0;
#X connect 14 0 15 0;
#X connect 16 0 7 1;
#X restore 78 370 pd check_zone 0;
#N canvas 954 118 280 476 check_zone 0;
#X floatatom 117 131 5 0 0 0 - - -, f 5;
#X obj 162 128 i;
#X obj 117 83 t f f;
#X floatatom 27 135 5 0 0 0 - - -, f 5;
#X obj 72 132 i;
#X obj 27 87 t f f;
#X floatatom 149 263 5 0 0 0 - - -, f 5;
#X obj 148 209 +;
#X obj 148 232 == 2;
#X obj 116 316 spigot;
#X obj 28 318 spigot;
#X obj 33 20 inlet;
#X obj 32 48 unpack;
#X obj 34 392 pack;
#X obj 33 429 outlet;
#X obj 70 158 == 1;
#X obj 161 155 == 0;
#X connect 0 0 9 0;
#X connect 1 0 16 0;
#X connect 2 0 0 0;
#X connect 2 1 1 0;
#X connect 3 0 10 0;
#X connect 4 0 15 0;
#X connect 5 0 3 0;
#X connect 5 1 4 0;
#X connect 6 0 9 1;
#X connect 6 0 10 1;
#X connect 7 0 8 0;
#X connect 8 0 6 0;
#X connect 9 0 13 1;
#X connect 10 0 13 0;
#X connect 11 0 12 0;
#X connect 12 0 5 0;
#X connect 12 1 2 0;
#X connect 13 0 14 0;
#X connect 15 0 7 0;
#X connect 16 0 7 1;
#X restore 199 369 pd check_zone 0;
#X obj 88 397 s xy3;
#X obj 196 402 s xy4;
#X obj 857 333 bng 15 250 50 0 empty empty empty 17 7 0 10 -262144
-1 -1;
#X msg 1142 581 0;
#X obj 387 288 list_bilin a b c d a2, f 30;
#X obj 531 48 print xy1;
#X obj 533 410 print xy3;
#X obj 902 666 list_bilin a b c d a4, f 30;
#X obj 398 666 list_bilin a b c d a1, f 30;
#X obj 887 309 list_bilin a b c d a3, f 30;
#X obj 1003 66 print xy2;
#X connect 0 0 67 5;
#X connect 1 0 67 8;
#X connect 2 0 67 6;
#X connect 2 0 67 7;
#X connect 3 0 23 0;
#X connect 3 0 32 0;
#X connect 4 0 24 0;
#X connect 4 0 31 0;
#X connect 5 0 67 1;
#X connect 6 0 67 0;
#X connect 7 0 67 2;
#X connect 8 0 67 3;
#X connect 9 0 5 0;
#X connect 9 0 7 0;
#X connect 9 0 6 0;
#X connect 9 0 8 0;
#X connect 9 1 67 4;
#X connect 10 0 57 0;
#X connect 10 0 58 0;
#X connect 10 0 59 0;
#X connect 11 0 72 6;
#X connect 12 0 72 5;
#X connect 13 0 72 8;
#X connect 14 0 72 7;
#X connect 15 0 17 0;
#X connect 15 0 19 0;
#X connect 15 0 18 0;
#X connect 15 0 20 0;
#X connect 15 1 72 4;
#X connect 16 0 30 0;
#X connect 16 0 29 0;
#X connect 17 0 72 1;
#X connect 18 0 72 0;
#X connect 19 0 72 2;
#X connect 20 0 72 3;
#X connect 21 0 15 0;
#X connect 21 0 73 0;
#X connect 22 0 26 0;
#X connect 23 0 22 0;
#X connect 23 0 25 0;
#X connect 23 0 61 0;
#X connect 23 0 62 0;
#X connect 24 0 23 0;
#X connect 24 1 23 1;
#X connect 25 0 27 0;
#X connect 28 0 9 0;
#X connect 28 0 68 0;
#X connect 29 0 13 0;
#X connect 29 0 11 0;
#X connect 30 0 14 0;
#X connect 30 0 12 0;
#X connect 33 0 71 6;
#X connect 34 0 71 5;
#X connect 35 0 71 8;
#X connect 36 0 71 7;
#X connect 37 0 50 0;
#X connect 37 0 51 0;
#X connect 37 0 52 0;
#X connect 37 0 53 0;
#X connect 37 1 71 4;
#X connect 38 0 35 0;
#X connect 38 0 33 0;
#X connect 39 0 36 0;
#X connect 39 0 34 0;
#X connect 40 0 39 0;
#X connect 40 0 38 0;
#X connect 42 0 70 5;
#X connect 43 0 70 8;
#X connect 44 0 54 0;
#X connect 44 0 46 0;
#X connect 44 0 55 0;
#X connect 44 0 56 0;
#X connect 44 1 70 4;
#X connect 45 0 60 0;
#X connect 45 0 47 0;
#X connect 45 0 66 0;
#X connect 46 0 70 2;
#X connect 47 0 43 0;
#X connect 47 0 41 0;
#X connect 47 0 70 6;
#X connect 48 0 37 0;
#X connect 48 0 69 0;
#X connect 49 0 44 0;
#X connect 50 0 71 1;
#X connect 51 0 71 2;
#X connect 52 0 71 0;
#X connect 53 0 71 3;
#X connect 54 0 70 1;
#X connect 55 0 70 0;
#X connect 56 0 70 3;
#X connect 57 0 2 0;
#X connect 58 0 1 0;
#X connect 59 0 0 0;
#X connect 60 0 42 0;
#X connect 60 0 70 8;
#X connect 61 0 63 0;
#X connect 62 0 64 0;
#X connect 65 0 40 0;
#X connect 65 0 45 0;
#X connect 65 0 16 0;
#X connect 65 0 10 0;
#X connect 66 0 70 7;
