#N canvas 121 141 564 354 10;
#X text 404 41 inlet 1 = $f1 = x;
#X text 405 67 inlet 2 = $f2 = x0;
#X text 406 91 inlet 3 = $f3 = x1;
#X text 409 117 inlet 4 = $f4 = y0;
#X text 411 142 inlet 5 = $f5 = y1;
#X obj 76 214 expr $f4 + ($f5 - $f4)/($f3 - $f2)*($f1 -$f2);
#X floatatom 142 191 5 0 0 0 - - -, f 5;
#X floatatom 53 145 5 0 0 0 - - -, f 5;
#X floatatom 57 294 5 0 0 0 - - -, f 5;
#X obj 142 165 f \$1;
#X floatatom 209 192 5 0 0 0 - - -, f 5;
#X floatatom 276 192 5 0 0 0 - - -, f 5;
#X floatatom 343 190 5 0 0 0 - - -, f 5;
#X obj 209 166 f \$2;
#X obj 276 166 f \$3;
#X obj 343 165 f \$4;
#X text 232 62 y1 - y0;
#X text 222 74 ------------;
#X text 231 88 x1 - x0;
#X text 297 75 (x - x0);
#X text 180 33 linear interpolation;
#X obj 57 317 outlet;
#X obj 53 103 inlet;
#X obj 142 122 inlet;
#X obj 209 122 inlet;
#X obj 276 122 inlet;
#X obj 343 122 inlet;
#X text 167 74 y = y0 +;
#X connect 5 0 8 0;
#X connect 6 0 5 1;
#X connect 7 0 5 0;
#X connect 8 0 21 0;
#X connect 9 0 6 0;
#X connect 10 0 5 2;
#X connect 11 0 5 3;
#X connect 12 0 5 4;
#X connect 13 0 10 0;
#X connect 14 0 11 0;
#X connect 15 0 12 0;
#X connect 22 0 7 0;
#X connect 23 0 9 0;
#X connect 24 0 13 0;
#X connect 25 0 14 0;
#X connect 26 0 15 0;
