#N canvas 650 248 596 396 10;
#X text 404 41 inlet 1 = $f1 = x;
#X floatatom 73 152 5 0 0 0 - - -, f 5;
#X floatatom 64 292 5 0 0 0 - - -, f 5;
#X text 167 74 y= y0 +;
#X text 221 75 ------------;
#X text 170 25 linear interpolation (x0 = 0);
#X text 246 89 x1;
#X obj 89 231 expr $f3 + $f1*($f4 - $f3)/$f2;
#X floatatom 142 191 5 0 0 0 - - -, f 5;
#X obj 142 165 f \$1;
#X floatatom 209 192 5 0 0 0 - - -, f 5;
#X floatatom 276 192 5 0 0 0 - - -, f 5;
#X obj 209 166 f \$2;
#X obj 276 166 f \$3;
#X obj 142 122 inlet;
#X obj 209 122 inlet;
#X obj 276 122 inlet;
#X text 222 65 (y1 - y0)*x;
#X obj 73 120 inlet;
#X obj 64 320 outlet;
#X text 403 68 inlet 2 = $f3 = x1;
#X text 406 94 inlet 3 = $f4 = y0;
#X text 408 119 inlet 4 = $f5 = y1;
#X connect 1 0 7 0;
#X connect 2 0 19 0;
#X connect 7 0 2 0;
#X connect 8 0 7 1;
#X connect 9 0 8 0;
#X connect 10 0 7 2;
#X connect 11 0 7 3;
#X connect 12 0 10 0;
#X connect 13 0 11 0;
#X connect 14 0 9 0;
#X connect 15 0 12 0;
#X connect 16 0 13 0;
#X connect 18 0 1 0;
