#N canvas 662 202 567 412 10;
#X text 404 41 inlet 1 = $f1 = x;
#X floatatom 73 152 5 0 0 0 - - -, f 5;
#X floatatom 64 292 5 0 0 0 - - -, f 5;
#X text 167 74 y= y0 +;
#X floatatom 165 189 5 0 0 0 - - -, f 5;
#X floatatom 241 190 5 0 0 0 - - -, f 5;
#X obj 165 119 inlet;
#X obj 241 120 inlet;
#X text 222 72 (y1 - y0)*x;
#X obj 73 120 inlet;
#X obj 64 320 outlet;
#X obj 89 231 expr $f2 + $f1*($f3 - $f2);
#X obj 165 163 f \$1;
#X obj 241 164 f \$2;
#X text 403 68 inlet 3 = $f2 = y0;
#X text 405 94 inlet 4 = $f3 = y1;
#X text 170 25 linear interpolation (x from 0 to 1);
#X connect 1 0 11 0;
#X connect 2 0 10 0;
#X connect 4 0 11 1;
#X connect 5 0 11 2;
#X connect 6 0 12 0;
#X connect 7 0 13 0;
#X connect 9 0 1 0;
#X connect 11 0 2 0;
#X connect 12 0 4 0;
#X connect 13 0 5 0;
