#N canvas 0 23 1290 797 10;
#X obj 544 388 expr ($f2 - $f1)*($f4 - $f3);
#X obj 668 133 inlet x1;
#X obj 748 130 inlet x2;
#X obj 813 149 inlet y1;
#X obj 504 619 /;
#X obj 556 617 /;
#X obj 607 612 /;
#X obj 648 600 /;
#X obj 510 681 *;
#X obj 554 682 *;
#X obj 603 682 *;
#X obj 650 681 *;
#X obj 888 131 inlet y2;
#X obj 836 344 expr ($f3 - $f1)*($f4 - $f2);
#X obj 823 367 expr ($f1 - $f3)*($f4 - $f2);
#X obj 808 391 expr ($f3 - $f1)*($f2 - $f4);
#X obj 798 412 expr ($f1 - $f3)*($f2 - $f4);
#X obj 505 711 expr $f1 + $f2 + $f3 +$f4;
#X obj 527 239 unpack;
#X obj 537 130 inlet xy;
#X obj 1132 583 t b f;
#X obj 1172 583 t b f;
#X obj 1212 584 t b f;
#X obj 70 493 list append;
#X obj 69 555 list split 1;
#X obj 96 388 until;
#X obj 165 493 list append;
#X obj 164 555 list split 1;
#X obj 258 491 list append;
#X obj 257 553 list split 1;
#X obj 358 492 list append;
#X obj 357 554 list split 1;
#X obj 96 434 t b b b b;
#X obj 63 684 list append;
#X obj 248 628 list append;
#X obj 128 656 list prepend;
#X text 495 107 current coordinates;
#X text 197 759 interpolated output;
#X text 308 83 for interpolatuion;
#X text 290 426 Q11;
#X text 293 341 Q12;
#X text 432 342 Q22;
#X text 430 425 Q21;
#X text 323 429 ----------------;
#X text 323 341 ----------------;
#X text 255 67 Lists of values for each of 4 corners;
#X text 111 97 Q11 must be the last!;
#X obj 383 126 inlet Q22;
#X obj 1176 94 r \$4;
#X obj 1221 91 r \$3;
#X obj 1075 98 r \$1;
#X obj 1127 92 r \$2;
#X obj 294 123 inlet Q12;
#X obj 200 124 inlet Q21;
#X obj 106 317 t b l;
#X obj 63 755 s interpolated_data;
#X obj 112 127 inlet Q11;
#X obj 25 594 t b b b;
#X obj 114 213 spigot;
#X obj 681 58 r close interpolation;
#X obj 218 236 spigot;
#X obj 322 234 spigot;
#X obj 391 238 spigot;
#X obj 525 216 spigot;
#X obj 12 113 loadbang;
#X msg 12 136 1;
#X text 696 106 zone for interpolation in 2D space;
#X text 657 6 close interpolation for;
#X text 659 24 prevent spots from triggering;
#X text 665 43 when saving or loading preset;
#X connect 0 0 7 1;
#X connect 0 0 6 1;
#X connect 0 0 5 1;
#X connect 0 0 4 1;
#X connect 1 0 0 0;
#X connect 1 0 14 2;
#X connect 1 0 16 2;
#X connect 2 0 13 2;
#X connect 2 0 15 2;
#X connect 2 0 20 0;
#X connect 3 0 15 3;
#X connect 3 0 16 3;
#X connect 3 0 21 0;
#X connect 4 0 8 0;
#X connect 5 0 9 0;
#X connect 6 0 10 0;
#X connect 7 0 11 0;
#X connect 8 0 17 0;
#X connect 9 0 17 1;
#X connect 10 0 17 2;
#X connect 11 0 17 3;
#X connect 12 0 13 3;
#X connect 12 0 14 3;
#X connect 12 0 22 0;
#X connect 13 0 8 1;
#X connect 14 0 9 1;
#X connect 15 0 10 1;
#X connect 16 0 11 1;
#X connect 17 0 35 0;
#X connect 18 0 13 0;
#X connect 18 0 14 0;
#X connect 18 0 15 0;
#X connect 18 0 16 0;
#X connect 18 1 13 1;
#X connect 18 1 14 1;
#X connect 18 1 15 1;
#X connect 18 1 16 1;
#X connect 19 0 63 0;
#X connect 20 0 0 0;
#X connect 20 1 0 1;
#X connect 21 0 0 0;
#X connect 21 1 0 2;
#X connect 22 0 0 0;
#X connect 22 1 0 3;
#X connect 23 0 24 0;
#X connect 24 0 4 0;
#X connect 24 1 23 1;
#X connect 24 2 57 0;
#X connect 25 0 32 0;
#X connect 26 0 27 0;
#X connect 27 0 5 0;
#X connect 27 1 26 1;
#X connect 28 0 29 0;
#X connect 29 0 6 0;
#X connect 29 1 28 1;
#X connect 30 0 31 0;
#X connect 31 0 7 0;
#X connect 31 1 30 1;
#X connect 32 0 23 0;
#X connect 32 1 26 0;
#X connect 32 2 28 0;
#X connect 32 3 30 0;
#X connect 33 0 55 0;
#X connect 34 0 35 1;
#X connect 35 0 33 1;
#X connect 35 0 34 0;
#X connect 47 0 62 0;
#X connect 48 0 21 0;
#X connect 48 0 16 3;
#X connect 48 0 15 3;
#X connect 49 0 13 3;
#X connect 49 0 14 3;
#X connect 49 0 22 0;
#X connect 50 0 0 0;
#X connect 50 0 16 2;
#X connect 50 0 14 2;
#X connect 51 0 20 0;
#X connect 51 0 15 2;
#X connect 51 0 13 2;
#X connect 52 0 61 0;
#X connect 53 0 60 0;
#X connect 54 0 25 0;
#X connect 54 1 23 1;
#X connect 56 0 58 0;
#X connect 57 0 33 0;
#X connect 57 1 35 1;
#X connect 57 2 25 1;
#X connect 58 0 54 0;
#X connect 59 0 58 1;
#X connect 59 0 60 1;
#X connect 59 0 61 1;
#X connect 59 0 62 1;
#X connect 59 0 63 1;
#X connect 60 0 28 1;
#X connect 61 0 30 1;
#X connect 62 0 26 1;
#X connect 63 0 18 0;
#X connect 64 0 65 0;
#X connect 65 0 58 1;
#X connect 65 0 60 1;
#X connect 65 0 61 1;
#X connect 65 0 62 1;
#X connect 65 0 63 1;
