#N canvas 460 41 383 339 10;
#X obj 154 64 inlet;
#X obj 61 245 outlet;
#X obj 42 21 r midi_out_speed;
#X obj 155 163 change;
#X obj 42 113 spigot;
#X obj 171 99 unpack f f f;
#X obj 156 132 f;
#X msg 155 188 1;
#X msg 116 79 0;
#X obj 42 63 t b b b;
#X obj 61 207 list;
#X connect 0 0 5 0;
#X connect 0 0 10 1;
#X connect 2 0 9 0;
#X connect 3 0 7 0;
#X connect 4 0 10 0;
#X connect 5 0 6 1;
#X connect 6 0 3 0;
#X connect 7 0 4 1;
#X connect 8 0 4 1;
#X connect 9 0 4 0;
#X connect 9 1 6 0;
#X connect 9 2 8 0;
#X connect 10 0 1 0;
