#N canvas 0 22 450 300 10;
#X obj 160 168 spigot;
#X obj 254 152 t b b;
#X msg 254 179 0;
#X obj 284 179 del 100;
#X msg 283 211 1;
#X obj 351 179 loadbang;
#X obj 201 69 inlet from_surface;
#X obj 236 266 outlet to_surface;
#X obj 56 71 inlet from_local;
#X obj 64 267 outlet to_local;
#X connect 0 0 7 0;
#X connect 1 0 2 0;
#X connect 1 1 3 0;
#X connect 2 0 0 1;
#X connect 3 0 4 0;
#X connect 4 0 0 1;
#X connect 5 0 4 0;
#X connect 6 0 1 0;
#X connect 6 0 9 0;
#X connect 8 0 0 0;
#X connect 8 0 9 0;
