#N canvas 168 349 430 374 10;
#X obj 37 173 route \$1;
#X obj 146 255 s stop-sending-\$1;
#X obj 37 12 inlet;
#X obj 37 279 outlet;
#X obj 37 200 t a b;
#X text 254 198 stop sending osc;
#X text 258 221 when receiving;
#X text 282 239 a value;
#X obj 185 64 delay 60;
#X obj 37 79 spigot;
#X msg 142 62 0;
#X msg 199 116 1;
#X obj 142 23 r stop-receiving-\$1;
#X text 325 129 a value;
#X text 297 88 stop receiving osc;
#X text 301 111 when sending;
#X obj 323 32 loadbang;
#X connect 0 0 4 0;
#X connect 2 0 9 0;
#X connect 4 0 3 0;
#X connect 4 1 1 0;
#X connect 8 0 11 0;
#X connect 9 0 0 0;
#X connect 10 0 9 1;
#X connect 11 0 9 1;
#X connect 12 0 10 0;
#X connect 12 0 8 0;
#X connect 16 0 11 0;
