#N canvas 318 384 549 420 10;
#X obj 36 54 inlet;
#X obj 36 380 outlet;
#X text 321 26 stop sending osc;
#X text 323 51 when receiving;
#X text 347 69 a value;
#X obj 194 172 r stop-sending-\$1;
#X obj 237 213 delay 60;
#X obj 36 242 spigot;
#X msg 194 211 0;
#X msg 232 269 1;
#X obj 71 124 s stop-receiving-\$1;
#X obj 36 95 t a b;
#X obj 369 176 loadbang;
#X obj 36 306 list_sp_lim;
#X connect 0 0 11 0;
#X connect 5 0 8 0;
#X connect 5 0 6 0;
#X connect 6 0 9 0;
#X connect 7 0 13 0;
#X connect 8 0 7 1;
#X connect 9 0 7 1;
#X connect 11 0 7 0;
#X connect 11 1 10 0;
#X connect 12 0 9 0;
#X connect 13 0 1 0;
