#N canvas 415 192 290 381 10;
#X obj 34 110 list split 1;
#X obj 58 211 pack f f f;
#X obj 63 171 / 255;
#X obj 104 172 / 255;
#X obj 68 140 str_rgb;
#X obj 32 37 r cp\$1;
#X obj 57 239 oscformat GRID rgb\$1;
#X obj 57 311 s send_RGB;
#X obj 150 171 / 255;
#X floatatom 154 313 5 0 0 0 - - -, f 5;
#X obj 202 291 print;
#X connect 0 1 4 0;
#X connect 1 0 6 0;
#X connect 2 0 1 0;
#X connect 3 0 1 1;
#X connect 4 0 2 0;
#X connect 4 1 3 0;
#X connect 4 2 8 0;
#X connect 5 0 0 0;
#X connect 6 0 7 0;
#X connect 6 0 9 0;
#X connect 6 0 10 0;
#X connect 8 0 1 2;
