#N canvas 9 34 430 389 10;
#X obj 62 58 r presetTrigger;
#X obj 62 130 list;
#X obj 18 53 inlet;
#X obj 62 208 s presetGetAll;
#X obj 191 50 r presetSetParam;
#X obj 191 74 route \$1;
#X obj 191 98 list;
#X obj 209 298 outlet;
#X obj 200 146 list prepend set;
#X obj 62 157 list prepend \$1;
#X obj 62 176 list trim;
#X obj 200 165 list trim;
#X obj 62 80 t b;
#X connect 0 0 12 0;
#X connect 1 0 9 0;
#X connect 2 0 1 1;
#X connect 4 0 5 0;
#X connect 5 0 6 0;
#X connect 6 0 8 0;
#X connect 8 0 11 0;
#X connect 9 0 10 0;
#X connect 10 0 3 0;
#X connect 11 0 7 0;
#X connect 12 0 1 0;
