#N canvas 721 83 908 727 10;
#X obj 201 336 osc~;
#X obj 201 443 *~;
#X obj 312 312 line~;
#X obj 312 276 pack f 50;
#X obj 373 213 r line_time;
#X obj 358 564 outlet level;
#X obj 107 119 vsl 25 125 0 1 0 0 empty empty SIN 0 80 0 14 -262144
-1 -1 0 1;
#X floatatom 107 283 4 0 0 0 - - -, f 4;
#X floatatom 24 484 5 0 0 0 - - -, f 5;
#X obj 103 302 tgl 15 0 empty empty lnk 17 7 0 10 -262144 -1 -1 0 1
;
#X obj 25 459 mtof;
#X obj 43 35 inlet pitch;
#X obj 249 563 outlet pitch;
#X obj 248 38 inlet level;
#X obj 61 566 outlet~;
#X obj 262 217 pow 2.5;
#X obj 201 289 sig~;
#X obj 201 311 +~;
#X obj 203 494 *~, f 4;
#X obj 612 241 print;
#X obj 615 182 bng 15 250 50 0 empty empty empty 17 7 0 10 -262144
-1 -1;
#X obj 467 333 catch~ sine_\$1_mod_freq;
#X obj -172 324 clip~ 0 1;
#X obj -70 371 sig~;
#X obj -69 432 -~;
#X obj -173 272 catch~ sine_\$1_mod_amp;
#X msg -48 334 1;
#X obj -29 184 loadbang;
#X obj 104 250 tgl 15 0 empty empty lnk 17 7 0 10 -262144 -1 -1 0 1
;
#X obj 203 145 str_link 2;
#X obj 25 390 str_link 1;
#X obj 25 436 line 5;
#X obj 28 414 pack f 50;
#X obj 89 351 r line_time;
#X connect 0 0 1 0;
#X connect 1 0 18 0;
#X connect 2 0 1 1;
#X connect 3 0 2 0;
#X connect 4 0 3 1;
#X connect 6 0 29 0;
#X connect 7 0 30 0;
#X connect 8 0 16 0;
#X connect 9 0 30 1;
#X connect 10 0 8 0;
#X connect 11 0 7 0;
#X connect 13 0 6 0;
#X connect 15 0 3 0;
#X connect 16 0 17 0;
#X connect 17 0 0 0;
#X connect 18 0 14 0;
#X connect 20 0 19 0;
#X connect 21 0 17 1;
#X connect 22 0 24 1;
#X connect 23 0 24 0;
#X connect 24 0 18 1;
#X connect 25 0 22 0;
#X connect 26 0 23 0;
#X connect 27 0 26 0;
#X connect 28 0 29 1;
#X connect 29 0 15 0;
#X connect 29 0 5 0;
#X connect 29 1 6 0;
#X connect 29 2 28 0;
#X connect 30 0 12 0;
#X connect 30 0 32 0;
#X connect 30 1 7 0;
#X connect 30 2 9 0;
#X connect 31 0 10 0;
#X connect 32 0 31 0;
#X connect 33 0 32 1;
#X coords 0 -1 1 1 40 220 1 100 100;
