#N canvas 126 138 564 450 10;
#X obj 194 32 inlet;
#X obj 234 405 outlet;
#X obj 42 21 r midi_out_speed;
#X obj 151 279 change;
#X obj 38 229 spigot;
#X obj 152 248 f;
#X msg 151 304 1;
#X msg 112 195 0;
#X obj 38 179 t b b b;
#X obj 57 323 f;
#X obj 41 72 del;
#X obj 42 46 random 100;
#X obj 277 150 pack;
#X obj 270 97 t b f;
#X obj 406 82 r sp_lim_control;
#X obj 273 185 route 1 0;
#X obj 356 32 loadbang;
#X msg 356 59 0;
#X connect 0 0 13 0;
#X connect 2 0 11 0;
#X connect 3 0 6 0;
#X connect 4 0 9 0;
#X connect 5 0 3 0;
#X connect 6 0 4 1;
#X connect 7 0 4 1;
#X connect 8 0 4 0;
#X connect 8 1 5 0;
#X connect 8 2 7 0;
#X connect 9 0 1 0;
#X connect 10 0 8 0;
#X connect 11 0 10 0;
#X connect 12 0 15 0;
#X connect 13 0 12 0;
#X connect 13 1 12 1;
#X connect 14 0 12 0;
#X connect 15 0 9 1;
#X connect 15 0 5 1;
#X connect 15 1 1 0;
#X connect 16 0 17 0;
#X connect 17 0 12 0;
