#N canvas 367 177 433 319 10;
#X obj 38 61 list fromsymbol;
#N canvas 0 22 481 472 list_reverse 0;
#X obj 86 164 list length;
#X obj 86 191 until;
#X obj 215 249 list;
#X obj 125 382 list append;
#X obj 366 333 list;
#X obj 184 94 t l l b;
#X msg 293 195 bang;
#X obj 218 329 list;
#X obj 215 287 list split 1;
#X obj 186 63 inlet;
#X obj 138 431 outlet;
#X connect 0 0 1 0;
#X connect 1 0 2 0;
#X connect 2 0 8 0;
#X connect 3 0 10 0;
#X connect 4 0 7 1;
#X connect 5 0 0 0;
#X connect 5 1 2 0;
#X connect 5 2 6 0;
#X connect 6 0 4 1;
#X connect 6 0 2 1;
#X connect 6 0 7 1;
#X connect 7 0 3 1;
#X connect 7 0 4 0;
#X connect 8 0 7 0;
#X connect 8 1 2 1;
#X connect 8 2 3 0;
#X connect 9 0 5 0;
#X restore 38 88 pd list_reverse;
#N canvas 0 22 481 472 list_reverse 0;
#X obj 86 164 list length;
#X obj 86 191 until;
#X obj 215 249 list;
#X obj 125 382 list append;
#X obj 366 333 list;
#X obj 184 94 t l l b;
#X msg 293 195 bang;
#X obj 218 329 list;
#X obj 215 287 list split 1;
#X obj 186 63 inlet;
#X obj 138 431 outlet;
#X connect 0 0 1 0;
#X connect 1 0 2 0;
#X connect 2 0 8 0;
#X connect 3 0 10 0;
#X connect 4 0 7 1;
#X connect 5 0 0 0;
#X connect 5 1 2 0;
#X connect 5 2 6 0;
#X connect 6 0 4 1;
#X connect 6 0 2 1;
#X connect 6 0 7 1;
#X connect 7 0 3 1;
#X connect 7 0 4 0;
#X connect 8 0 7 0;
#X connect 8 1 2 1;
#X connect 8 2 3 0;
#X connect 9 0 5 0;
#X restore 38 138 pd list_reverse;
#X obj 38 164 list tosymbol;
#X obj 38 26 inlet;
#X obj 38 191 outlet;
#N canvas 189 121 782 632 list_separate 1;
#X obj 171 198 list;
#X obj 164 246 list split 1;
#X obj 165 16 inlet;
#X obj 271 581 outlet;
#X obj 76 98 list length;
#X obj 76 125 until;
#X msg 328 137 bang;
#X obj 330 321 f;
#X obj 367 321 + 1;
#X msg 333 276 bang;
#X obj 286 521 list split;
#X obj 244 440 list;
#X obj 164 62 t l l b l;
#X obj 315 369 f;
#X obj 197 384 t b b;
#X msg 379 180 0;
#X obj 162 331 sel 47 92;
#X obj 334 432 + 0;
#X connect 0 0 1 0;
#X connect 1 0 9 0;
#X connect 1 0 16 0;
#X connect 1 1 0 1;
#X connect 2 0 12 0;
#X connect 4 0 5 0;
#X connect 5 0 0 0;
#X connect 6 0 0 1;
#X connect 6 0 15 0;
#X connect 7 0 8 0;
#X connect 7 0 13 1;
#X connect 8 0 7 1;
#X connect 9 0 7 0;
#X connect 10 0 3 0;
#X connect 11 0 10 0;
#X connect 12 0 4 0;
#X connect 12 1 0 0;
#X connect 12 2 6 0;
#X connect 12 3 11 1;
#X connect 13 0 17 0;
#X connect 14 0 11 0;
#X connect 14 1 13 0;
#X connect 15 0 7 1;
#X connect 16 0 5 1;
#X connect 16 0 14 0;
#X connect 16 1 14 0;
#X connect 17 0 10 1;
#X restore 38 114 pd list_separate;
#X text 206 207 vanilla's way;
#X text 211 259 must work on windows too;
#X text 222 281 but not tested yet;
#X text 206 233 to separate file name from path;
#X text 145 60 symbol to keycodes;
#X text 157 90 reverse list;
#X text 155 114 cut all after first slash/backward slash;
#X text 155 143 reverse to initial state;
#X text 140 169 convert to symbol;
#X connect 0 0 1 0;
#X connect 1 0 6 0;
#X connect 2 0 3 0;
#X connect 3 0 5 0;
#X connect 4 0 0 0;
#X connect 6 0 2 0;
