#N canvas 216 326 450 300 10;
#X obj 33 78 value store-spot-color;
#X msg 91 182 color \$1;
#X obj 55 37 inlet;
#X obj 119 241 s \$1;
#X obj 307 104 store color-\$1;
#X floatatom 231 147 8 0 0 0 - - -, f 8;
#X msg 190 121 set \$1;
#X obj 32 225 outlet;
#X connect 0 0 1 0;
#X connect 0 0 6 0;
#X connect 1 0 3 0;
#X connect 1 0 7 0;
#X connect 2 0 0 0;
#X connect 4 0 5 0;
#X connect 5 0 4 0;
#X connect 5 0 1 0;
#X connect 6 0 5 0;
