#N canvas 731 77 1044 724 10;
#X obj 31 54 inlet;
#X obj 30 88 route get recall save;
#X obj 219 62 inlet;
#X msg 140 210 rewind;
#X obj 34 427 s presetTrigger;
#X obj 32 237 t b b;
#X obj 85 262 until;
#X obj 72 133 t b b b;
#X obj 167 401 textfile;
#X msg 78 356 clear;
#X obj 167 438 s presetSetParam;
#X obj 262 296 r presetGetAll;
#X msg 208 222 read gesture-12.txt;
#X msg 254 253 write gesture-12.txt;
#X obj 221 97 makefilename gesture-%i.txt;
#X obj 567 91 savepanel;
#X obj 890 160 openpanel;
#X msg 727 308 rewind;
#X obj 688 348 until;
#X obj 684 188 t b b a;
#X obj 886 45 r loadFromFile;
#X msg 372 19 get;
#X obj 471 297 t a b;
#X obj 226 157 list prepend set read;
#X obj 361 156 list prepend set write;
#X obj 742 232 list prepend read;
#X obj 262 321 list prepend add;
#X obj 570 144 list prepend write;
#X obj 742 254 list trim;
#X obj 569 171 list trim;
#X obj 361 173 list trim;
#X obj 226 174 list trim;
#X obj 565 18 r saveToFile;
#X obj 262 338 list trim;
#X obj 628 451 split-file-name;
#X obj 744 521 s saved_file_name;
#X connect 0 0 1 0;
#X connect 1 0 5 0;
#X connect 1 1 7 0;
#X connect 1 2 13 0;
#X connect 2 0 14 0;
#X connect 3 0 8 0;
#X connect 5 0 4 0;
#X connect 5 1 9 0;
#X connect 6 0 8 0;
#X connect 7 0 6 0;
#X connect 7 1 3 0;
#X connect 7 2 12 0;
#X connect 8 0 10 0;
#X connect 8 1 6 1;
#X connect 8 1 18 1;
#X connect 9 0 8 0;
#X connect 11 0 26 0;
#X connect 12 0 8 0;
#X connect 13 0 8 0;
#X connect 14 0 23 0;
#X connect 14 0 24 0;
#X connect 15 0 27 0;
#X connect 15 0 34 0;
#X connect 16 0 19 0;
#X connect 17 0 8 0;
#X connect 18 0 8 0;
#X connect 19 0 18 0;
#X connect 19 1 17 0;
#X connect 19 2 25 0;
#X connect 20 0 16 0;
#X connect 21 0 1 0;
#X connect 22 0 8 0;
#X connect 22 1 21 0;
#X connect 23 0 31 0;
#X connect 24 0 30 0;
#X connect 25 0 28 0;
#X connect 26 0 33 0;
#X connect 27 0 29 0;
#X connect 28 0 8 0;
#X connect 29 0 22 0;
#X connect 30 0 13 0;
#X connect 31 0 12 0;
#X connect 32 0 15 0;
#X connect 33 0 8 0;
#X connect 34 0 35 0;
