#N canvas 630 143 544 333 10;
#X obj 78 98 f;
#X obj 95 42 inlet;
#X obj 135 42 inlet;
#X obj 177 41 inlet;
#X obj 217 41 inlet;
#X obj 256 42 inlet;
#X obj 96 202 s store_spot_\$1;
#X obj 6 56 r grab_params;
#X obj 96 166 list prepend \$1;
#X obj 295 42 inlet;
#X obj 334 43 inlet;
#X obj 374 43 inlet;
#X obj 413 43 inlet;
#X obj 452 44 inlet;
#X obj 491 44 inlet;
#X obj 96 134 pack f f f f f f f f f f f;
#X connect 0 0 15 0;
#X connect 1 0 0 1;
#X connect 2 0 15 1;
#X connect 3 0 15 2;
#X connect 4 0 15 3;
#X connect 5 0 15 4;
#X connect 7 0 0 0;
#X connect 8 0 6 0;
#X connect 9 0 15 5;
#X connect 10 0 15 6;
#X connect 11 0 15 7;
#X connect 12 0 15 8;
#X connect 13 0 15 9;
#X connect 14 0 15 10;
#X connect 15 0 8 0;
