#N canvas 791 191 361 359 10;
#X obj 62 58 r presetTrigger;
#X obj 62 80 t b b;
#X obj 62 130 list;
#X obj 18 53 inlet;
#X obj 62 208 s presetGetAll;
#X obj 191 50 r presetSetParam;
#X obj 191 74 route \$1;
#X obj 191 98 list;
#X obj 191 122 t b l;
#X obj 209 298 outlet;
#X obj 218 147 list prepend set;
#X obj 62 157 list prepend \$1;
#X obj 62 176 list trim;
#X obj 218 166 list trim;
#X connect 0 0 1 0;
#X connect 1 0 2 0;
#X connect 1 1 9 0;
#X connect 2 0 11 0;
#X connect 3 0 2 1;
#X connect 5 0 6 0;
#X connect 6 0 7 0;
#X connect 7 0 8 0;
#X connect 8 0 9 0;
#X connect 8 1 10 0;
#X connect 10 0 13 0;
#X connect 11 0 12 0;
#X connect 12 0 4 0;
#X connect 13 0 9 0;
