#N canvas 326 159 976 643 10;
#X msg 483 292 start;
#X msg 255 404 stop;
#X obj 566 367 list prepend open;
#X obj 566 392 list trim;
#X obj 196 105 vu 13 80 empty empty -1 -8 0 10 -66577 -1 0 0;
#X obj 117 107 tgl 40 0 empty empty REC 7 15 0 15 -262144 -258113 -33289
0 1;
#X obj 591 326 list prepend -bytes 3;
#X obj 566 268 pack f s;
#X obj 566 293 route 0 1;
#X obj 103 155 tgl 15 0 empty empty 24_bit 17 7 0 10 -262144 -1 -1
1 1;
#X obj 566 243 t b a;
#X msg 638 185 \$1.wav;
#X obj 638 213 print File name;
#X obj 204 216 print 24_bit;
#X text 694 549 strangy 2015;
#X obj 94 17 loadbang;
#X msg 94 42 1;
#X obj 6 269 metro 1000;
#X obj 103 172 bng 15 500 50 0 empty empty empty 17 7 0 10 -262144
-258113 -258113;
#X obj 334 45 *~;
#X obj 546 88 line~;
#X msg 546 67 \$1 50;
#X obj 195 105 bng 15 2000 50 0 empty empty empty -25 7 0 10 -66577
-258113 -1;
#X obj 195 113 tgl 15 0 empty empty empty 17 7 0 10 -66577 -258113
-1 0 1;
#X obj 6 292 f;
#X obj 41 291 + 1;
#X floatatom 121 173 6 0 0 0 - - -, f 6;
#X obj 50 151 sel 0;
#X msg 21 204 0;
#X msg 134 355 hit.wav;
#X msg 134 329 set \$1.wav;
#X obj 52 405 list append;
#X msg 58 338 bang;
#X msg 118 274 \$1 sec;
#X obj 52 482 list trim;
#X obj 52 431 list prepend <-----;
#X obj 52 505 print O;
#X obj 52 459 list append <-----:O;
#X obj 334 15 inlet~ signal L;
#X obj 464 11 inlet~ signal R;
#X obj 464 49 *~;
#X obj 383 501 writesf~ 2;
#X obj 344 579 outlet~ thru L;
#X obj 471 582 outlet~ thru R;
#X obj 213 105 vu 13 80 empty empty -1 -8 0 10 -66577 -1 0 0;
#N canvas 789 87 341 281 peak_hold 0;
#X obj 50 112 sel 1;
#X msg 50 133 1;
#X obj 50 28 inlet~;
#X obj 50 208 outlet hold;
#X obj 126 208 outlet peak;
#X obj 203 208 outlet meter;
#X obj 50 51 env~;
#X obj 203 97 - 100;
#X obj 50 91 >= 100;
#X connect 0 0 1 0;
#X connect 0 0 4 0;
#X connect 1 0 3 0;
#X connect 2 0 6 0;
#X connect 6 0 7 0;
#X connect 6 0 8 0;
#X connect 7 0 5 0;
#X connect 8 0 0 0;
#X restore 220 32 pd peak_hold;
#X obj 212 105 bng 15 2000 50 0 empty empty empty -25 7 0 10 -66577
-258113 -1;
#X obj 212 113 tgl 15 0 empty empty empty 17 7 0 10 -66577 -258113
-1 0 1;
#N canvas 868 455 333 245 peak_hold 0;
#X obj 50 28 inlet~;
#X obj 50 190 outlet hold;
#X obj 126 190 outlet peak;
#X obj 204 190 outlet meter;
#X obj 50 112 sel 1;
#X msg 50 133 1;
#X obj 50 51 env~;
#X obj 203 97 - 100;
#X obj 50 91 >= 100;
#X connect 0 0 6 0;
#X connect 4 0 5 0;
#X connect 4 0 2 0;
#X connect 5 0 1 0;
#X connect 6 0 7 0;
#X connect 6 0 8 0;
#X connect 7 0 3 0;
#X connect 8 0 4 0;
#X restore 357 69 pd peak_hold;
#X obj 774 74 text_input;
#X text 611 18 stereo recorder;
#N canvas 278 373 693 92 recorder-file-name 0;
#X obj 22 49 cnv 5 500 25 empty text_field empty 20 12 0 25 -261234
-258113 0;
#X obj 26 54 bng 15 250 50 0 text_input_clear empty x 4 7 0 13 -262144
-1 -1;
#X obj 26 12 cnv 15 100 20 empty empty NAME 20 12 0 20 -233017 -66577
0;
#X obj 386 11 cnv 15 100 20 empty empty ESC=CANCEL 20 12 0 20 -261338
-66577 0;
#X obj 233 11 cnv 15 100 20 empty empty ENTER=OK 20 12 0 20 -105728
-66577 0;
#X restore 770 247 pd recorder-file-name;
#X obj 255 355 sel 0;
#X msg 710 503 \; pd-recorder-file-name vis 1;
#X msg 740 463 \; pd-recorder-file-name vis 0;
#X obj 170 105 vsl 23 80 0.015 1.5 1 0 empty empty lvl 0 15 0 10 -262144
-1 -1 7000 1;
#X obj 203 248 s recorder-text-ctrl;
#X obj 704 369 r recorder-text-ctrl;
#X obj 637 139 symbol;
#X obj 651 37 key;
#X obj 632 96 sel 10 27;
#X obj 686 40 r recorder-text-ctrl;
#X obj 700 430 sel 1 0;
#X obj 651 66 spigot;
#X obj 777 202 s recorder-text-ctrl;
#X msg 809 133 0;
#X obj 839 173 s record-\$0;
#X obj 593 119 t b b;
#X msg 498 219 1;
#X msg 744 152 0;
#X obj 30 69 r record-\$0;
#X connect 0 0 41 0;
#X connect 1 0 41 0;
#X connect 2 0 3 0;
#X connect 3 0 41 0;
#X connect 5 0 27 0;
#X connect 5 0 52 0;
#X connect 5 0 56 0;
#X connect 6 0 2 0;
#X connect 7 0 8 0;
#X connect 8 0 2 0;
#X connect 8 1 6 0;
#X connect 9 0 7 0;
#X connect 9 0 13 0;
#X connect 10 0 7 0;
#X connect 10 1 7 1;
#X connect 11 0 12 0;
#X connect 15 0 16 0;
#X connect 16 0 9 0;
#X connect 16 0 55 0;
#X connect 17 0 18 0;
#X connect 17 0 24 0;
#X connect 19 0 41 0;
#X connect 19 0 42 0;
#X connect 19 0 45 0;
#X connect 20 0 19 1;
#X connect 20 0 40 1;
#X connect 21 0 20 0;
#X connect 24 0 25 0;
#X connect 24 0 26 0;
#X connect 25 0 24 1;
#X connect 26 0 33 0;
#X connect 27 0 32 0;
#X connect 27 0 28 0;
#X connect 28 0 24 1;
#X connect 28 0 17 0;
#X connect 29 0 31 0;
#X connect 30 0 29 0;
#X connect 31 0 35 0;
#X connect 32 0 29 0;
#X connect 33 0 31 1;
#X connect 34 0 36 0;
#X connect 35 0 37 0;
#X connect 37 0 34 0;
#X connect 38 0 19 0;
#X connect 39 0 40 0;
#X connect 40 0 43 0;
#X connect 40 0 41 1;
#X connect 40 0 48 0;
#X connect 45 0 23 0;
#X connect 45 1 22 0;
#X connect 45 2 4 0;
#X connect 48 0 47 0;
#X connect 48 1 46 0;
#X connect 48 2 44 0;
#X connect 49 0 58 1;
#X connect 52 0 1 0;
#X connect 55 0 21 0;
#X connect 57 0 62 0;
#X connect 58 0 30 0;
#X connect 58 0 10 0;
#X connect 58 0 11 0;
#X connect 59 0 63 0;
#X connect 60 0 67 0;
#X connect 60 0 69 0;
#X connect 60 1 65 0;
#X connect 61 0 63 1;
#X connect 61 0 49 0;
#X connect 62 0 53 0;
#X connect 62 1 54 0;
#X connect 63 0 60 0;
#X connect 65 0 64 0;
#X connect 65 0 66 0;
#X connect 65 0 63 1;
#X connect 67 0 0 0;
#X connect 67 0 68 0;
#X connect 67 1 58 0;
#X connect 68 0 17 0;
#X connect 69 0 64 0;
#X connect 69 0 63 1;
#X connect 69 0 49 0;
#X connect 70 0 5 0;
#X coords 0 -1 1 1 130 90 2 100 100;
