#N canvas 292 78 1003 526 10;
#X obj 120 21 tgl 15 0 empty empty empty 17 7 0 10 -262144 -1 -1 0
1;
#X floatatom 88 347 5 0 0 0 - - -, f 5;
#X floatatom 89 243 5 0 0 0 - - -, f 5;
#X obj 145 240 tgl 15 0 empty empty link 17 7 0 10 -262144 -1 -1 0
1;
#X floatatom 215 349 5 0 0 0 - - -, f 5;
#X floatatom 218 245 5 0 0 0 - - -, f 5;
#X obj 272 242 tgl 15 0 empty empty link 17 7 0 10 -262144 -1 -1 1
1;
#X floatatom 348 347 5 0 0 0 - - -, f 5;
#X floatatom 351 243 5 0 0 0 - - -, f 5;
#X obj 405 240 tgl 15 0 empty empty link 17 7 0 10 -262144 -1 -1 1
1;
#X text 157 20 <---- toggle to enable all links;
#X text 459 235 <---- enable individual link;
#X text 662 212 inlets;
#X text 668 233 1 - value to link;
#X text 665 251 2 - link control (1 - on \, 0 -off);
#X text 659 282 outlets;
#X text 665 303 1 - linked value;
#X text 662 321 2 - set inlet value (to monitor);
#X text 436 22 str_link - object that adds linking feature;
#X text 435 42 It can be used as a control option for example for changing
pitch and maintain musical interval.;
#X text 662 341 3 - set link status (to monitor);
#X floatatom 96 203 5 0 0 0 - - -, f 5;
#X floatatom 97 99 5 0 0 0 - - -, f 5;
#X obj 159 100 tgl 15 0 empty empty link 17 7 0 10 -262144 -1 -1 0
1;
#X floatatom 223 205 5 0 0 0 - - -, f 5;
#X floatatom 226 101 5 0 0 0 - - -, f 5;
#X obj 296 99 tgl 15 0 empty empty link 17 7 0 10 -262144 -1 -1 0 1
;
#X floatatom 356 203 5 0 0 0 - - -, f 5;
#X floatatom 359 99 5 0 0 0 - - -, f 5;
#X obj 448 103 tgl 15 0 empty empty link 17 7 0 10 -262144 -1 -1 0
1;
#X obj 97 152 str_link 1;
#X obj 228 160 str_link 1;
#X obj 357 152 str_link 1;
#X obj 120 48 s link-ctrl-1;
#X obj 89 296 str_link 1;
#X obj 216 298 str_link 1;
#X obj 349 296 str_link 1;
#X text 460 137 <---click enable all to see what happens;
#X floatatom 90 487 5 0 0 0 - - -, f 5;
#X floatatom 91 383 5 0 0 0 - - -, f 5;
#X obj 147 380 tgl 15 0 empty empty link 17 7 0 10 -262144 -1 -1 0
1;
#X floatatom 217 489 5 0 0 0 - - -, f 5;
#X floatatom 220 385 5 0 0 0 - - -, f 5;
#X obj 274 382 tgl 15 0 empty empty link 17 7 0 10 -262144 -1 -1 1
1;
#X floatatom 350 487 5 0 0 0 - - -, f 5;
#X floatatom 353 383 5 0 0 0 - - -, f 5;
#X obj 407 380 tgl 15 0 empty empty link 17 7 0 10 -262144 -1 -1 1
1;
#X obj 91 436 str_link 2;
#X obj 218 438 str_link 2;
#X obj 351 436 str_link 2;
#X text 661 369 arguments;
#X text 671 393 1 - link group;
#X text 437 438 <----link group 2 not connected with group 1;
#X connect 0 0 33 0;
#X connect 2 0 34 0;
#X connect 3 0 34 1;
#X connect 5 0 35 0;
#X connect 6 0 35 1;
#X connect 8 0 36 0;
#X connect 9 0 36 1;
#X connect 22 0 30 0;
#X connect 23 0 30 1;
#X connect 25 0 31 0;
#X connect 26 0 31 1;
#X connect 28 0 32 0;
#X connect 29 0 32 1;
#X connect 30 0 21 0;
#X connect 30 1 22 0;
#X connect 30 2 23 0;
#X connect 31 0 24 0;
#X connect 31 1 25 0;
#X connect 31 2 26 0;
#X connect 32 0 27 0;
#X connect 32 1 28 0;
#X connect 32 2 29 0;
#X connect 34 0 1 0;
#X connect 34 1 2 0;
#X connect 35 0 4 0;
#X connect 35 1 5 0;
#X connect 36 0 7 0;
#X connect 36 1 8 0;
#X connect 39 0 47 0;
#X connect 40 0 47 1;
#X connect 42 0 48 0;
#X connect 43 0 48 1;
#X connect 45 0 49 0;
#X connect 46 0 49 1;
#X connect 47 0 38 0;
#X connect 47 1 39 0;
#X connect 48 0 41 0;
#X connect 48 1 42 0;
#X connect 49 0 44 0;
#X connect 49 1 45 0;
