#N canvas 686 274 837 593 10;
#X msg 271 290 start;
#X msg 232 290 stop;
#X symbolatom 137 117 24 0 0 2 file_name - -, f 24;
#X obj 530 320 list prepend open;
#X obj 530 345 list trim;
#X obj 286 105 vu 13 80 empty empty -1 -8 0 10 -66577 -1 0 0;
#X obj 103 103 tgl 30 0 empty empty REC 7 15 0 10 -262144 -258113 -33289
0 1;
#X obj 234 268 sel 0 1;
#X obj 555 279 list prepend -bytes 3;
#X obj 530 221 pack f s;
#X obj 530 246 route 0 1;
#X obj 223 171 tgl 15 0 empty empty 24_bit 17 7 0 10 -262144 -1 -1
1 1;
#X obj 530 196 t b a;
#X msg 633 164 \$1.wav;
#X obj 633 192 print File name;
#X obj 227 232 print 24_bit;
#X text 699 522 strangy 2015;
#X obj 94 17 loadbang;
#X msg 94 42 1;
#X obj 14 200 metro 1000;
#X obj 103 145 bng 15 500 50 0 empty empty empty 17 7 0 10 -262144
-258113 -258113;
#X obj 334 45 *~;
#X obj 166 146 hsl 114 15 0.015 1.5 1 0 empty empty level 5 7 0 10
-262144 -1 -1 11300 1;
#X obj 546 88 line~;
#X msg 546 67 \$1 50;
#X obj 285 106 bng 15 2000 50 0 empty empty empty -25 7 0 10 -66577
-258113 -1;
#X obj 285 114 tgl 15 0 empty empty empty 17 7 0 10 -66577 -258113
-1 0 1;
#X obj 14 223 f;
#X obj 49 222 + 1;
#X floatatom 122 145 6 0 0 0 - - -, f 6;
#X obj 29 135 sel 0;
#X msg 29 158 0;
#X msg 142 317 futur hipas.wav;
#X msg 142 291 set \$1.wav;
#X obj 60 367 list append;
#X msg 66 300 bang;
#X msg 123 236 \$1 sec;
#X obj 60 444 list trim;
#X obj 60 393 list prepend <-----;
#X obj 60 467 print O;
#X obj 60 421 list append <-----:O;
#X text 107 169 mono recorder;
#X obj 334 15 inlet~ signal L;
#X obj 464 11 inlet~ signal R;
#X obj 464 49 *~;
#X obj 378 423 writesf~ 2;
#X obj 339 501 outlet~ thru L;
#X obj 466 504 outlet~ thru R;
#X obj 303 105 vu 13 80 empty empty -1 -8 0 10 -66577 -1 0 0;
#N canvas 789 87 341 281 peak_hold 1;
#X obj 50 112 sel 1;
#X msg 50 133 1;
#X obj 50 28 inlet~;
#X obj 50 208 outlet hold;
#X obj 126 208 outlet peak;
#X obj 203 208 outlet meter;
#X obj 50 51 env~;
#X obj 203 97 - 100;
#X obj 50 91 >= 100;
#X connect 0 0 1 0;
#X connect 0 0 4 0;
#X connect 1 0 3 0;
#X connect 2 0 6 0;
#X connect 6 0 7 0;
#X connect 6 0 8 0;
#X connect 7 0 5 0;
#X connect 8 0 0 0;
#X restore 220 32 pd peak_hold;
#X obj 302 106 bng 15 2000 50 0 empty empty empty -25 7 0 10 -66577
-258113 -1;
#X obj 302 114 tgl 15 0 empty empty empty 17 7 0 10 -66577 -258113
-1 0 1;
#N canvas 868 455 333 245 peak_hold 0;
#X obj 50 28 inlet~;
#X obj 50 190 outlet hold;
#X obj 126 190 outlet peak;
#X obj 204 190 outlet meter;
#X obj 50 112 sel 1;
#X msg 50 133 1;
#X obj 50 51 env~;
#X obj 203 97 - 100;
#X obj 50 91 >= 100;
#X connect 0 0 6 0;
#X connect 4 0 5 0;
#X connect 4 0 2 0;
#X connect 5 0 1 0;
#X connect 6 0 7 0;
#X connect 6 0 8 0;
#X connect 7 0 3 0;
#X connect 8 0 4 0;
#X restore 357 69 pd peak_hold;
#X connect 0 0 45 0;
#X connect 1 0 45 0;
#X connect 2 0 12 0;
#X connect 2 0 13 0;
#X connect 2 0 33 0;
#X connect 3 0 4 0;
#X connect 4 0 45 0;
#X connect 6 0 7 0;
#X connect 6 0 19 0;
#X connect 6 0 30 0;
#X connect 7 0 1 0;
#X connect 7 1 0 0;
#X connect 8 0 3 0;
#X connect 9 0 10 0;
#X connect 10 0 3 0;
#X connect 10 1 8 0;
#X connect 11 0 9 0;
#X connect 11 0 15 0;
#X connect 12 0 9 0;
#X connect 12 1 9 1;
#X connect 13 0 14 0;
#X connect 17 0 18 0;
#X connect 18 0 11 0;
#X connect 18 0 22 0;
#X connect 19 0 20 0;
#X connect 19 0 27 0;
#X connect 21 0 45 0;
#X connect 21 0 46 0;
#X connect 21 0 49 0;
#X connect 22 0 24 0;
#X connect 23 0 21 1;
#X connect 23 0 44 1;
#X connect 24 0 23 0;
#X connect 27 0 28 0;
#X connect 27 0 29 0;
#X connect 28 0 27 1;
#X connect 29 0 36 0;
#X connect 30 0 31 0;
#X connect 30 0 35 0;
#X connect 31 0 27 1;
#X connect 32 0 34 0;
#X connect 33 0 32 0;
#X connect 34 0 38 0;
#X connect 35 0 32 0;
#X connect 36 0 34 1;
#X connect 37 0 39 0;
#X connect 38 0 40 0;
#X connect 40 0 37 0;
#X connect 42 0 21 0;
#X connect 43 0 44 0;
#X connect 44 0 47 0;
#X connect 44 0 45 1;
#X connect 44 0 52 0;
#X connect 49 0 26 0;
#X connect 49 1 25 0;
#X connect 49 2 5 0;
#X connect 52 0 51 0;
#X connect 52 1 50 0;
#X connect 52 2 48 0;
#X coords 0 -1 1 1 220 90 2 100 100;
