#N canvas 339 255 918 602 10;
#X obj 106 147 hsl 100 15 0.01 6.01 0 0 empty empty LFO-rate 7 8 0
10 -261338 -1 -1 8276 1;
#X obj 11 485 *~ 1;
#X floatatom 203 127 5 0 0 0 FM - -, f 5;
#X obj 12 525 outlet~ amp;
#X obj 98 537 outlet~ freq;
#X obj 98 498 *~ 1;
#X obj 132 128 hsl 40 15 0 1 0 0 empty empty AM -18 8 0 10 -261338
-1 -1 0 1;
#X msg 867 425 -1;
#X obj 837 382 sel 0 1;
#X obj 160 105 tgl 15 0 empty empty AM/FM_phase 17 7 0 10 -262144 -1
-1 0 1;
#X msg 810 428 1;
#X obj 94 458 *~ 1;
#X floatatom 208 147 5 0 0 0 - - -, f 5;
#X msg 205 31 set \$1;
#X obj 26 235 +~;
#N canvas 492 175 321 275 osc_sel 0;
#X obj 52 107 osc~;
#X obj 52 33 inlet~;
#X obj 52 201 outlet~;
#X obj 169 213 switch~;
#X obj 137 151 del 5;
#X obj 164 30 inlet control;
#X obj 164 120 t b f;
#X obj 169 183 f;
#X obj 164 69 == 0;
#X connect 0 0 2 0;
#X connect 1 0 0 0;
#X connect 4 0 7 0;
#X connect 5 0 8 0;
#X connect 6 0 4 0;
#X connect 6 1 7 1;
#X connect 7 0 3 0;
#X connect 8 0 6 0;
#X restore 25 321 pd osc_sel;
#N canvas 643 196 308 280 square_sel 0;
#X obj 55 37 inlet~;
#X obj 55 192 outlet~;
#X obj 167 210 switch~;
#X obj 135 148 del 5;
#X obj 164 30 inlet control;
#X obj 162 117 t b f;
#X obj 167 180 f;
#X obj 55 71 osc~ 1;
#X obj 55 96 *~ 1000;
#X text 4 121 square;
#X obj 164 69 == 1;
#X obj 55 159 lop~ 1000;
#X obj 55 123 clip~ 0 1;
#X connect 0 0 7 0;
#X connect 3 0 6 0;
#X connect 4 0 10 0;
#X connect 5 0 3 0;
#X connect 5 1 6 1;
#X connect 6 0 2 0;
#X connect 7 0 8 0;
#X connect 8 0 12 0;
#X connect 10 0 5 0;
#X connect 11 0 1 0;
#X connect 12 0 11 0;
#X restore 95 321 pd square_sel;
#N canvas 571 181 280 366 tri_sel 0;
#X obj 55 37 inlet~;
#X obj 53 290 outlet~;
#X obj 169 208 switch~;
#X obj 137 146 del 5;
#X obj 163 37 inlet control;
#X obj 164 115 t b f;
#X obj 169 178 f;
#X obj 55 90 phasor~;
#X obj 74 124 *~ -1;
#X obj 74 152 +~ 1;
#X obj 53 181 min~;
#X obj 53 210 *~ 4;
#X obj 53 236 -~ 1;
#X text 92 204 traingle;
#X obj 164 69 == 2;
#X connect 0 0 7 0;
#X connect 3 0 6 0;
#X connect 4 0 14 0;
#X connect 5 0 3 0;
#X connect 5 1 6 1;
#X connect 6 0 2 0;
#X connect 7 0 8 0;
#X connect 7 0 10 0;
#X connect 8 0 9 0;
#X connect 9 0 10 1;
#X connect 10 0 11 0;
#X connect 11 0 12 0;
#X connect 12 0 1 0;
#X connect 14 0 5 0;
#X restore 188 321 pd tri_sel;
#N canvas 772 189 361 489 noise_sel 0;
#X obj 55 37 inlet~;
#X obj 51 333 outlet~;
#X obj 196 206 switch~;
#X obj 164 144 del 5;
#X obj 190 36 inlet control;
#X obj 191 113 t b f;
#X obj 196 176 f;
#X obj 53 185 noise~;
#X obj 54 236 vcf~ 6, f 7;
#X obj 88 293 *~ 100;
#X obj 193 76 == 3;
#X connect 0 0 8 1;
#X connect 3 0 6 0;
#X connect 4 0 10 0;
#X connect 5 0 3 0;
#X connect 5 1 6 1;
#X connect 6 0 2 0;
#X connect 7 0 8 0;
#X connect 8 1 9 0;
#X connect 9 0 1 0;
#X connect 10 0 5 0;
#X restore 262 320 pd noise_sel;
#X obj 539 403 line~;
#X obj 25 352 *~;
#X obj 96 350 *~;
#X obj 184 358 *~;
#X obj 262 358 *~;
#X floatatom 341 233 5 0 0 0 - - -, f 5;
#X obj 531 344 del 5;
#X obj 537 315 t b b;
#X msg 571 371 0 4;
#X msg 530 367 1 8;
#X obj 359 348 *~;
#N canvas 713 187 313 395 rise_sel 0;
#X obj 55 37 inlet~;
#X obj 55 334 outlet~;
#X obj 196 206 switch~;
#X obj 164 144 del 5;
#X obj 190 36 inlet control;
#X obj 191 113 t b f;
#X obj 196 176 f;
#X obj 193 76 == 4;
#X obj 55 262 lop~ 75;
#X obj 55 210 *~ 2;
#X obj 55 235 -~ 1;
#X obj 55 186 phasor~;
#X connect 0 0 11 0;
#X connect 3 0 6 0;
#X connect 4 0 7 0;
#X connect 5 0 3 0;
#X connect 5 1 6 1;
#X connect 6 0 2 0;
#X connect 7 0 5 0;
#X connect 8 0 1 0;
#X connect 9 0 10 0;
#X connect 10 0 8 0;
#X connect 11 0 9 0;
#X restore 351 320 pd rise_sel;
#X obj 454 349 *~;
#N canvas 745 201 313 395 down_sel 0;
#X obj 55 37 inlet~;
#X obj 55 334 outlet~;
#X obj 196 206 switch~;
#X obj 164 144 del 5;
#X obj 190 36 inlet control;
#X obj 191 113 t b f;
#X obj 196 176 f;
#X obj 55 290 lop~ 75;
#X obj 55 210 *~ 2;
#X obj 55 235 -~ 1;
#X obj 55 186 phasor~;
#X obj 55 263 *~ -1;
#X obj 193 76 == 5;
#X connect 0 0 10 0;
#X connect 3 0 6 0;
#X connect 4 0 12 0;
#X connect 5 0 3 0;
#X connect 5 1 6 1;
#X connect 6 0 2 0;
#X connect 7 0 1 0;
#X connect 8 0 9 0;
#X connect 9 0 11 0;
#X connect 10 0 8 0;
#X connect 11 0 7 0;
#X connect 12 0 5 0;
#X restore 425 320 pd down_sel;
#X obj 103 166 hradio 15 1 0 6 empty empty empty 0 -8 0 10 -261338
-1 -1 2;
#X text 105 182 ~;
#X text 117 182 [];
#X text 136 184 ^;
#X text 152 182 N;
#X text 181 183 /;
#X text 165 183 v;
#X floatatom 35 125 5 0 0 0 - - -, f 5;
#X floatatom 65 219 5 0 0 0 - - -, f 5;
#X obj 17 180 *;
#X obj 314 -16 loadbang;
#X msg 340 48 0;
#X obj 443 9 inlet AM;
#X obj 527 14 inlet RATE;
#X obj 656 12 inlet FM;
#X obj 490 569 outlet AM;
#X obj 559 570 outlet RATE;
#X obj 668 568 outlet FM;
#X floatatom 319 149 5 0 0 0 - - -, f 5;
#X obj 700 98 store LFO-am-fm-phase-\$1;
#X msg 556 129 set \$1;
#X obj 399 216 store LFO-waveform-\$1;
#X obj 235 180 tgl 15 0 empty empty ctrl -25 7 0 10 -262144 -1 -1 0
1;
#X floatatom 588 177 5 0 0 0 - - -, f 5;
#X msg 663 187 set \$1;
#X obj 807 156 store LFO-ctrl-\$1;
#X msg 374 33 1, f 4;
#X obj 428 63 spigot;
#X obj 519 63 spigot;
#X obj 620 67 spigot;
#N canvas 34 268 1302 441 osc_receive 0;
#X obj 215 166 route control;
#X obj 214 188 route x;
#X floatatom 215 216 5 0 0 0 - - -, f 5;
#X floatatom 357 246 5 0 0 0 - - -, f 5;
#X floatatom 557 244 5 0 0 0 - - -, f 5;
#X floatatom 871 222 5 0 0 0 - - -, f 5;
#X obj 695 -4 r Instruments;
#X obj 876 192 route map;
#X floatatom 1001 224 5 0 0 0 - - -, f 5;
#X obj 1006 194 route map;
#X obj 697 45 route LFO\$1, f 13;
#X obj 358 169 osc-input AM, f 23;
#X obj 553 170 osc-input FM;
#X obj 212 256 outlet;
#X obj 358 285 outlet;
#X obj 558 283 outlet;
#X obj 870 272 outlet;
#X obj 1000 274 outlet;
#X obj 358 197 route x;
#X obj 556 217 route map;
#X obj 711 196 route x;
#X floatatom 712 224 5 0 0 0 - - -, f 5;
#X obj 709 264 outlet;
#X obj 713 174 route Phase;
#X obj 877 171 osc-input Rate;
#X obj 1007 173 osc-input waveform;
#X connect 0 0 1 0;
#X connect 1 0 2 0;
#X connect 2 0 13 0;
#X connect 3 0 14 0;
#X connect 4 0 15 0;
#X connect 5 0 16 0;
#X connect 6 0 10 0;
#X connect 7 0 5 0;
#X connect 8 0 17 0;
#X connect 9 0 8 0;
#X connect 10 0 0 0;
#X connect 10 0 11 0;
#X connect 10 0 12 0;
#X connect 10 0 23 0;
#X connect 10 0 24 0;
#X connect 10 0 25 0;
#X connect 11 0 18 0;
#X connect 12 0 19 0;
#X connect 18 0 3 0;
#X connect 19 0 4 0;
#X connect 20 0 21 0;
#X connect 21 0 22 0;
#X connect 23 0 20 0;
#X connect 24 0 7 0;
#X connect 25 0 9 0;
#X restore -75 -45 pd osc_receive;
#N canvas 56 239 1324 639 osc_send 1;
#X obj -51 30 inlet control;
#X obj 64 488 s send_granulate;
#X obj -60 197 oscformat Instruments LFO\$1 control x;
#X obj 199 285 oscformat Instruments LFO\$1 AM x;
#X obj 264 113 osc-output AM;
#X obj 278 40 inlet AM;
#X obj 391 39 inlet FM;
#X obj 389 90 osc-output FM;
#X obj 437 302 oscformat Instruments LFO\$1 FM x;
#X obj 402 150 sqrt;
#X obj 413 193 / 15.2;
#X obj 534 31 inlet Phase;
#X obj 543 65 osc-output Phase;
#X obj 530 347 oscformat Instruments LFO\$1 Phase x;
#X obj 650 41 inlet Rate;
#X obj 659 75 osc-output Rate;
#X obj 665 370 oscformat Instruments LFO\$1 Rate x;
#X obj 653 150 - 0.01;
#X obj 665 187 / 6, f 8;
#X obj 815 46 inlet waveform;
#X obj 824 80 osc-output waveform;
#X obj 804 415 oscformat Instruments LFO\$1 waveform x;
#N canvas 534 274 593 523 in-to-array 0;
#X obj 105 100 sel 0 1 2 3 4 5 6 7 8 9 10 11, f 40;
#X msg 106 152 1 0 0 0 0 0 0 0 0 0 0 0;
#X obj 16 458 outlet;
#X obj 104 49 inlet;
#X msg 106 180 0 1 0 0 0 0 0 0 0 0 0 0;
#X msg 106 202 0 0 1 0 0 0 0 0 0 0 0 0;
#X msg 107 225 0 0 0 1 0 0 0 0 0 0 0 0;
#X msg 108 248 0 0 0 0 1 0 0 0 0 0 0 0;
#X msg 109 272 0 0 0 0 0 1 0 0 0 0 0 0;
#X msg 109 296 0 0 0 0 0 0 1 0 0 0 0 0;
#X msg 116 416 0 0 0 0 0 0 0 0 0 0 0 1;
#X msg 114 389 0 0 0 0 0 0 0 0 0 0 1 0;
#X msg 112 367 0 0 0 0 0 0 0 0 0 1 0 0;
#X msg 109 344 0 0 0 0 0 0 0 0 1 0 0 0;
#X msg 110 321 0 0 0 0 0 0 0 1 0 0 0 0;
#X connect 0 0 1 0;
#X connect 0 1 4 0;
#X connect 0 2 5 0;
#X connect 0 3 6 0;
#X connect 0 4 7 0;
#X connect 0 5 8 0;
#X connect 0 6 9 0;
#X connect 0 7 14 0;
#X connect 0 8 13 0;
#X connect 0 9 12 0;
#X connect 0 10 11 0;
#X connect 0 11 10 0;
#X connect 1 0 2 0;
#X connect 3 0 0 0;
#X connect 4 0 2 0;
#X connect 5 0 2 0;
#X connect 6 0 2 0;
#X connect 7 0 2 0;
#X connect 8 0 2 0;
#X connect 9 0 2 0;
#X connect 10 0 2 0;
#X connect 11 0 2 0;
#X connect 12 0 2 0;
#X connect 13 0 2 0;
#X connect 14 0 2 0;
#X restore 840 218 pd in-to-array;
#X connect 0 0 2 0;
#X connect 2 0 1 0;
#X connect 3 0 1 0;
#X connect 4 0 3 0;
#X connect 5 0 4 0;
#X connect 6 0 7 0;
#X connect 7 0 9 0;
#X connect 8 0 1 0;
#X connect 9 0 10 0;
#X connect 10 0 8 0;
#X connect 11 0 12 0;
#X connect 12 0 13 0;
#X connect 13 0 1 0;
#X connect 14 0 15 0;
#X connect 15 0 17 0;
#X connect 16 0 1 0;
#X connect 17 0 18 0;
#X connect 18 0 16 0;
#X connect 19 0 20 0;
#X connect 20 0 22 0;
#X connect 21 0 1 0;
#X connect 22 0 21 0;
#X restore -158 317 pd osc_send, f 22;
#X connect 0 0 40 0;
#X connect 0 0 42 0;
#X connect 0 0 42 1;
#X connect 0 0 49 0;
#X connect 0 0 64 4;
#X connect 1 0 3 0;
#X connect 2 0 5 1;
#X connect 2 0 50 0;
#X connect 2 0 64 2;
#X connect 5 0 4 0;
#X connect 6 0 1 1;
#X connect 6 0 48 0;
#X connect 6 0 64 1;
#X connect 7 0 11 1;
#X connect 8 0 10 0;
#X connect 8 1 7 0;
#X connect 9 0 51 0;
#X connect 10 0 11 1;
#X connect 11 0 5 0;
#X connect 13 0 12 0;
#X connect 14 0 15 0;
#X connect 14 0 16 0;
#X connect 14 0 17 0;
#X connect 14 0 18 0;
#X connect 14 0 30 0;
#X connect 14 0 32 0;
#X connect 15 0 20 0;
#X connect 16 0 21 0;
#X connect 17 0 22 0;
#X connect 18 0 23 0;
#X connect 19 0 20 1;
#X connect 19 0 21 1;
#X connect 19 0 22 1;
#X connect 19 0 23 1;
#X connect 19 0 29 1;
#X connect 19 0 31 1;
#X connect 20 0 11 0;
#X connect 20 0 1 0;
#X connect 21 0 11 0;
#X connect 21 0 1 0;
#X connect 22 0 1 0;
#X connect 22 0 11 0;
#X connect 23 0 11 0;
#X connect 23 0 1 0;
#X connect 24 0 15 1;
#X connect 24 0 26 0;
#X connect 24 0 16 1;
#X connect 24 0 17 1;
#X connect 24 0 18 1;
#X connect 24 0 30 1;
#X connect 24 0 32 1;
#X connect 25 0 28 0;
#X connect 26 0 25 0;
#X connect 26 1 27 0;
#X connect 27 0 19 0;
#X connect 28 0 19 0;
#X connect 29 0 1 0;
#X connect 29 0 11 0;
#X connect 30 0 29 0;
#X connect 31 0 1 0;
#X connect 31 0 11 0;
#X connect 32 0 31 0;
#X connect 33 0 24 0;
#X connect 33 0 54 0;
#X connect 33 0 64 5;
#X connect 42 0 13 0;
#X connect 42 0 14 0;
#X connect 42 0 41 0;
#X connect 43 0 44 0;
#X connect 43 0 59 0;
#X connect 44 0 33 0;
#X connect 44 0 0 0;
#X connect 44 0 6 0;
#X connect 45 0 60 0;
#X connect 46 0 61 0;
#X connect 47 0 62 0;
#X connect 51 0 8 0;
#X connect 51 0 52 0;
#X connect 51 0 53 0;
#X connect 51 0 64 3;
#X connect 52 0 51 0;
#X connect 53 0 9 0;
#X connect 54 0 33 0;
#X connect 55 0 56 0;
#X connect 56 0 57 0;
#X connect 56 0 58 0;
#X connect 56 0 60 1;
#X connect 56 0 61 1;
#X connect 56 0 62 1;
#X connect 56 0 64 0;
#X connect 57 0 55 0;
#X connect 58 0 56 0;
#X connect 59 0 55 0;
#X connect 60 0 6 0;
#X connect 61 0 0 0;
#X connect 62 0 2 0;
#X connect 63 0 55 0;
#X connect 63 1 6 0;
#X connect 63 2 2 0;
#X connect 63 3 9 0;
#X connect 63 4 0 0;
#X connect 63 5 33 0;
#X coords 0 -1 1 1 150 100 1 100 100;
