#N canvas 7 318 404 396 10;
#X obj 139 168 abs, f 5;
#X floatatom 137 234 5 0 0 0 - - -, f 5;
#X obj 185 144 > 0;
#X obj 185 169 sel 1;
#X msg 185 191 0;
#X obj 154 124 - 1;
#X obj 108 94 moses 0;
#X obj 99 126 + 1;
#X obj 56 151 < 0;
#X obj 55 174 sel 1;
#X msg 55 196 0;
#X obj 115 32 inlet;
#X obj 115 61 - \$1;
#X obj 138 359 outlet~;
#X obj 218 256 sig~;
#X msg 225 227 0.75;
#X obj 136 285 pow~;
#X obj 250 165 loadbang;
#X obj 139 315 lop~ 10;
#X connect 0 0 1 0;
#X connect 1 0 16 0;
#X connect 2 0 3 0;
#X connect 3 0 4 0;
#X connect 4 0 1 0;
#X connect 5 0 0 0;
#X connect 5 0 2 0;
#X connect 6 0 7 0;
#X connect 6 1 5 0;
#X connect 7 0 1 0;
#X connect 7 0 8 0;
#X connect 8 0 9 0;
#X connect 9 0 10 0;
#X connect 10 0 1 0;
#X connect 11 0 12 0;
#X connect 12 0 6 0;
#X connect 14 0 16 1;
#X connect 15 0 14 0;
#X connect 16 0 18 0;
#X connect 17 0 15 0;
#X connect 18 0 13 0;
