#N canvas 516 78 769 652 10;
#X obj 158 64 / -65536;
#X obj 151 127 div;
#X floatatom 46 407 5 0 0 0 - - -, f 5;
#X obj 158 95 t f f;
#X obj 174 190 -;
#X floatatom 130 390 5 0 0 0 - - -, f 5;
#X obj 153 275 div;
#X obj 175 238 t f f;
#X obj 200 330 -;
#X floatatom 202 393 5 0 0 0 - - -, f 5;
#X obj 175 215 * -256;
#X obj 200 357 * -256;
#X obj 158 40 + 1;
#X obj 158 13 inlet;
#X text 284 45 decode color from single value;
#X text 291 60 to RGB;
#X obj 52 515 outlet R;
#X obj 140 518 outlet G;
#X obj 216 523 outlet B;
#X obj 40 471 f;
#X obj 128 475 f;
#X obj 202 424 t b b f;
#X obj 127 160 t f f;
#X obj 150 306 t f f;
#X connect 0 0 3 0;
#X connect 1 0 22 0;
#X connect 2 0 19 1;
#X connect 3 0 1 0;
#X connect 3 1 4 1;
#X connect 4 0 10 0;
#X connect 5 0 20 1;
#X connect 6 0 23 0;
#X connect 7 0 6 0;
#X connect 7 1 8 1;
#X connect 8 0 11 0;
#X connect 9 0 21 0;
#X connect 10 0 7 0;
#X connect 11 0 9 0;
#X connect 12 0 0 0;
#X connect 13 0 12 0;
#X connect 19 0 16 0;
#X connect 20 0 17 0;
#X connect 21 0 19 0;
#X connect 21 1 20 0;
#X connect 21 2 18 0;
#X connect 22 0 4 0;
#X connect 22 1 2 0;
#X connect 23 0 8 0;
#X connect 23 1 5 0;
