#N canvas 427 126 701 654 10;
#X obj 105 107 tgl 15 0 empty empty empty 17 7 0 10 -262144 -1 -1 0
1;
#X msg 427 548 set \$1;
#X text 140 104 link;
#X obj 45 62 loadbang;
#X msg 45 120 0;
#X floatatom 429 363 5 0 0 0 - - -, f 5;
#X obj 429 396 t f f;
#X floatatom 335 419 5 0 0 0 - - -, f 5;
#X obj 354 209 spigot;
#X msg 387 182 0;
#X msg 419 182 1;
#X obj 391 153 del 20;
#X obj 251 126 t f b;
#X floatatom 251 422 5 0 0 0 - - -, f 5;
#X obj 341 309 +;
#X obj 306 309 f;
#X obj 354 232 t b f;
#X obj 430 453 spigot;
#X obj 354 88 spigot;
#X obj 305 153 spigot;
#X obj 387 66 r \$0-rlink_ctrl;
#X obj 105 168 s \$0-rlink_ctrl;
#X obj 463 429 r \$0-rlink_ctrl;
#X obj 338 127 r \$0-rlink_ctrl;
#X obj 430 426 - 0;
#X obj 481 123 loadbang;
#X obj 181 16 inlet value;
#X obj 277 15 inlet link;
#X obj 430 480 s linking-\$1;
#X obj 354 30 r linking-\$1;
#X obj 105 62 r link-ctrl-\$1;
#X obj 573 516 r link-ctrl-\$1;
#X msg 573 545 set \$1;
#X obj 573 576 outlet link_ctrl_monitor;
#X obj 428 577 outlet value_monitor;
#X obj 251 539 outlet value;
#X connect 0 0 21 0;
#X connect 1 0 34 0;
#X connect 3 0 4 0;
#X connect 4 0 0 0;
#X connect 4 0 12 0;
#X connect 5 0 6 0;
#X connect 6 0 24 1;
#X connect 6 1 24 0;
#X connect 7 0 1 0;
#X connect 7 0 14 1;
#X connect 7 0 24 1;
#X connect 7 0 35 0;
#X connect 8 0 16 0;
#X connect 9 0 8 1;
#X connect 10 0 8 1;
#X connect 11 0 10 0;
#X connect 12 0 13 0;
#X connect 12 0 5 0;
#X connect 12 0 14 1;
#X connect 12 1 19 0;
#X connect 13 0 1 0;
#X connect 13 0 35 0;
#X connect 14 0 15 1;
#X connect 15 0 7 0;
#X connect 15 0 14 1;
#X connect 16 0 15 0;
#X connect 16 1 14 0;
#X connect 17 0 28 0;
#X connect 18 0 8 0;
#X connect 19 0 11 0;
#X connect 19 0 9 0;
#X connect 20 0 18 1;
#X connect 22 0 17 1;
#X connect 23 0 19 1;
#X connect 24 0 17 0;
#X connect 25 0 10 0;
#X connect 26 0 12 0;
#X connect 27 0 0 0;
#X connect 29 0 18 0;
#X connect 30 0 0 0;
#X connect 31 0 32 0;
#X connect 32 0 33 0;
#X coords 0 654 1 653 85 50 0;
