#N canvas 131 244 381 359 10;
#X obj 139 168 abs, f 5;
#X floatatom 137 234 5 0 0 0 - - -, f 5;
#X obj 185 144 > 0;
#X obj 185 169 sel 1;
#X msg 185 191 0;
#X obj 154 124 - 1;
#X obj 108 94 moses 0;
#X obj 99 126 + 1;
#X obj 56 151 < 0;
#X obj 55 174 sel 1;
#X msg 55 196 0;
#X obj 115 32 inlet;
#X obj 137 297 outlet;
#X obj 115 61 - \$1;
#X obj 137 264 pow 0.75;
#X connect 0 0 1 0;
#X connect 1 0 14 0;
#X connect 2 0 3 0;
#X connect 3 0 4 0;
#X connect 4 0 1 0;
#X connect 5 0 0 0;
#X connect 5 0 2 0;
#X connect 6 0 7 0;
#X connect 6 1 5 0;
#X connect 7 0 1 0;
#X connect 7 0 8 0;
#X connect 8 0 9 0;
#X connect 9 0 10 0;
#X connect 10 0 1 0;
#X connect 11 0 13 0;
#X connect 13 0 6 0;
#X connect 14 0 12 0;
