#N canvas 42 25 1227 805 10;
#X obj 102 581 hip.mmb~;
#X obj 440 290 str_xfade 0;
#X obj 521 291 str_xfade 1;
#X obj 622 290 str_xfade 2;
#X floatatom 622 313 5 0 0 0 - - -, f 5;
#X floatatom 521 313 5 0 0 0 - - -, f 5;
#X floatatom 440 312 5 0 0 0 - - -, f 5;
#X obj 109 161 hsl 128 15 0 2 0 0 empty empty LP______BP______HP 8
8 0 10 -104064 -262144 -262144 6350 1;
#X obj 760 330 pack f 50;
#X obj 762 353 line~;
#X obj 349 689 *~;
#X obj 440 337 pack f 50;
#X obj 442 360 line~;
#X obj 521 336 pack f 50;
#X obj 523 359 line~;
#X obj 622 334 pack f 50;
#X obj 624 357 line~;
#X obj 389 691 *~;
#X obj 437 693 *~;
#X obj 33 602 *~ 4.5;
#N canvas 63 172 500 556 bp 0;
#X obj 40 31 inlet~ sig;
#X obj 209 33 inlet res;
#X obj 61 390 outlet~ sig;
#X obj 44 168 vcf~;
#X floatatom 206 130 5 1 60 0 - - -, f 5;
#X obj 201 192 abs;
#X floatatom 208 245 5 0 0 0 - - -, f 5;
#X obj 51 291 *~;
#X obj 213 295 pack f 50;
#X obj 212 318 line~;
#X obj 212 265 * 1;
#X obj 203 169 - 1;
#X obj 203 216 + 1;
#X obj 208 92 + 1;
#X obj 208 68 * 10;
#X obj 117 32 inlet~ freq;
#X obj 297 229 r line_time, f 14;
#X connect 0 0 3 0;
#X connect 1 0 14 0;
#X connect 3 0 7 0;
#X connect 4 0 3 2;
#X connect 4 0 11 0;
#X connect 5 0 12 0;
#X connect 6 0 10 0;
#X connect 7 0 2 0;
#X connect 8 0 9 0;
#X connect 9 0 7 1;
#X connect 10 0 8 0;
#X connect 11 0 5 0;
#X connect 12 0 6 0;
#X connect 13 0 4 0;
#X connect 14 0 13 0;
#X connect 15 0 3 1;
#X connect 16 0 8 1;
#X restore 33 579 pd bp;
#N canvas 592 333 915 727 lp 0;
#X obj 267 393 bob~, f 6;
#X floatatom 499 231 5 0.07 9.99 0 - - -, f 5;
#X msg 479 354 saturation \$1;
#X floatatom 30 260 5 1 10 0 - - -, f 5;
#X msg 30 283 oversample \$1;
#X obj 30 208 loadbang;
#X msg 36 385 clear;
#X msg 112 388 print;
#X msg 30 233 3;
#X floatatom 622 406 5 0 0 0 - - -, f 5;
#X obj 620 303 - 1;
#X obj 619 336 abs;
#X obj 622 384 * 10;
#X obj 526 270 moses 0.7;
#X obj 622 426 pack f 50;
#X obj 640 168 - 10;
#X obj 640 202 abs;
#X floatatom 640 145 5 0.07 9.99 0 - - -, f 5;
#X obj 268 490 *~;
#X obj 535 439 pack f 50;
#X obj 577 360 abs;
#X obj 493 306 pack f 50;
#X floatatom 574 404 5 0 0 0 - - -, f 5;
#X obj 578 338 - 5;
#X obj 494 333 line 5;
#X obj 535 463 line~;
#X obj 622 450 line~;
#X obj 40 31 inlet~ sig;
#X obj 273 602 outlet~ sig;
#X obj 499 45 inlet drive;
#X obj 117 32 inlet~ freq, f 12;
#X obj 267 431 *~;
#X msg 78 233 3.1;
#X obj 775 227 r line_time;
#X obj 789 276 r line_time;
#X obj 262 51 inlet~ res, f 8;
#X connect 0 0 31 0;
#X connect 1 0 13 0;
#X connect 1 0 21 0;
#X connect 2 0 0 0;
#X connect 3 0 4 0;
#X connect 4 0 0 0;
#X connect 5 0 8 0;
#X connect 5 0 32 0;
#X connect 6 0 0 0;
#X connect 7 0 0 0;
#X connect 8 0 3 0;
#X connect 9 0 14 0;
#X connect 10 0 11 0;
#X connect 11 0 12 0;
#X connect 12 0 9 0;
#X connect 13 0 10 0;
#X connect 13 1 23 0;
#X connect 14 0 26 0;
#X connect 15 0 16 0;
#X connect 16 0 1 0;
#X connect 17 0 15 0;
#X connect 18 0 28 0;
#X connect 19 0 25 0;
#X connect 20 0 19 0;
#X connect 20 0 22 0;
#X connect 21 0 24 0;
#X connect 23 0 20 0;
#X connect 24 0 2 0;
#X connect 25 0 18 1;
#X connect 26 0 31 1;
#X connect 27 0 0 0;
#X connect 29 0 17 0;
#X connect 30 0 0 1;
#X connect 31 0 18 0;
#X connect 32 0 26 0;
#X connect 33 0 21 1;
#X connect 34 0 14 1;
#X connect 34 0 19 1;
#X connect 35 0 0 2;
#X restore -45 580 pd lp;
#X obj -177 225 mtof;
#X obj -174 275 pack f 50;
#X obj 110 122 hsl 128 15 0 127 0 0 empty empty freq 7 8 0 10 -104064
-262144 -262144 19 1;
#X floatatom -158 250 5 0 0 0 - - -, f 5;
#X obj 110 141 hsl 128 15 0 1 0 0 empty empty resonanse 7 8 0 10 -104064
-262144 -262144 12700 1;
#X obj 109 181 hsl 128 15 5 9.7 0 0 empty empty low_drive 7 8 0 10
-104064 -262144 -262144 9700 1;
#X obj -174 301 line~;
#X obj 264 122 vsl 30 70 0 1 0 0 empty empty MIX 4 40 0 14 -104064
-262144 -262144 0 1;
#X obj -40 712 xfade.mmb~;
#X obj 432 737 *~ 0.2;
#X obj -12 23 loadbang;
#X msg -43 70 8;
#X msg -7 70 0;
#X msg 27 69 30;
#X obj 102 603 *~ 5;
#X obj 452 -15 inlet freq;
#X obj 543 -15 inlet res;
#X obj 628 -13 inlet type;
#X obj 719 -13 inlet lowdrive;
#X obj 828 -16 inlet mix;
#X obj 718 745 outlet freq;
#X obj 809 746 outlet res;
#X obj 894 747 outlet type;
#X obj 985 747 outlet lowdrive;
#X obj 1094 744 outlet mix;
#X obj -1 334 inlet~ sig;
#X obj -37 757 outlet~ sig;
#X text 61 68 init;
#X obj 843 310 r line_time;
#X obj -120 197 r line_time;
#X obj -188 443 +~;
#X obj -180 470 max~ 0;
#X obj -162 399 *~;
#X obj -162 421 *~ 2;
#X obj -135 327 catch~ filter_freq;
#X obj -179 491 min~ 20000;
#X obj 357 573 hip.mmb~;
#X obj 291 594 *~ 4.5;
#N canvas 63 172 500 556 bp 0;
#X obj 40 31 inlet~ sig;
#X obj 209 33 inlet res;
#X obj 61 390 outlet~ sig;
#X obj 44 168 vcf~;
#X floatatom 206 142 5 1 60 0 - - -, f 5;
#X obj 201 192 abs;
#X floatatom 208 245 5 0 0 0 - - -, f 5;
#X obj 51 291 *~;
#X obj 213 295 pack f 50;
#X obj 212 318 line~;
#X obj 212 265 * 1;
#X obj 200 164 - 1;
#X obj 203 216 + 1;
#X obj 211 120 + 1;
#X obj 212 94 * 10;
#X obj 117 32 inlet~ freq;
#X obj 291 230 r line_time, f 8;
#X connect 0 0 3 0;
#X connect 1 0 14 0;
#X connect 3 0 7 0;
#X connect 4 0 3 2;
#X connect 4 0 11 0;
#X connect 5 0 12 0;
#X connect 6 0 10 0;
#X connect 7 0 2 0;
#X connect 8 0 9 0;
#X connect 9 0 7 1;
#X connect 10 0 8 0;
#X connect 11 0 5 0;
#X connect 12 0 6 0;
#X connect 13 0 4 0;
#X connect 14 0 13 0;
#X connect 15 0 3 1;
#X connect 16 0 8 1;
#X restore 291 571 pd bp;
#N canvas 320 234 915 727 lp 0;
#X obj 267 393 bob~, f 6;
#X floatatom 392 231 5 0.07 9.99 0 - - -, f 5;
#X msg 372 354 saturation \$1;
#X floatatom 30 260 5 1 10 0 - - -, f 5;
#X msg 30 283 oversample \$1;
#X obj 30 208 loadbang;
#X msg 36 385 clear;
#X msg 112 388 print;
#X msg 30 233 3;
#X floatatom 515 406 5 0 0 0 - - -, f 5;
#X obj 513 303 - 1;
#X obj 512 336 abs;
#X obj 515 384 * 10;
#X obj 419 270 moses 0.7;
#X obj 515 426 pack f 50;
#X obj 533 168 - 10;
#X obj 533 202 abs;
#X floatatom 533 145 5 0.07 9.99 0 - - -, f 5;
#X obj 268 490 *~;
#X obj 428 439 pack f 50;
#X obj 470 360 abs;
#X obj 386 306 pack f 50;
#X floatatom 467 404 5 0 0 0 - - -, f 5;
#X obj 471 338 - 5;
#X obj 387 333 line 5;
#X obj 428 463 line~;
#X obj 515 450 line~;
#X obj 40 31 inlet~ sig;
#X obj 273 602 outlet~ sig;
#X obj 499 45 inlet drive;
#X obj 117 32 inlet~ freq, f 12;
#X obj 267 431 *~;
#X msg 78 233 3.1;
#X obj 668 227 r line_time;
#X obj 682 276 r line_time;
#X obj 276 41 inlet~ res, f 9;
#X connect 0 0 31 0;
#X connect 1 0 13 0;
#X connect 1 0 21 0;
#X connect 2 0 0 0;
#X connect 3 0 4 0;
#X connect 4 0 0 0;
#X connect 5 0 8 0;
#X connect 5 0 32 0;
#X connect 6 0 0 0;
#X connect 7 0 0 0;
#X connect 8 0 3 0;
#X connect 9 0 14 0;
#X connect 10 0 11 0;
#X connect 11 0 12 0;
#X connect 12 0 9 0;
#X connect 13 0 10 0;
#X connect 13 1 23 0;
#X connect 14 0 26 0;
#X connect 15 0 16 0;
#X connect 16 0 1 0;
#X connect 17 0 15 0;
#X connect 18 0 28 0;
#X connect 19 0 25 0;
#X connect 20 0 19 0;
#X connect 20 0 22 0;
#X connect 21 0 24 0;
#X connect 23 0 20 0;
#X connect 24 0 2 0;
#X connect 25 0 18 1;
#X connect 26 0 31 1;
#X connect 27 0 0 0;
#X connect 29 0 17 0;
#X connect 30 0 0 1;
#X connect 31 0 18 0;
#X connect 32 0 26 0;
#X connect 33 0 21 1;
#X connect 34 0 14 1;
#X connect 34 0 19 1;
#X connect 35 0 0 2;
#X restore 205 575 pd lp;
#X obj 199 711 xfade.mmb~;
#X obj 357 594 *~ 5;
#X obj 212 343 inlet~ sig;
#X obj 202 756 outlet~ sig;
#X obj 513 687 *~;
#X obj 553 689 *~;
#X obj 601 691 *~;
#X obj 596 735 *~ 0.2;
#N canvas 199 123 567 501 reso_calc_LP 0;
#X floatatom 317 113 5 0 4 0 - - -, f 5;
#X obj 317 91 * 3.99;
#X obj 317 28 inlet res;
#X obj 316 188 sig~;
#X obj 310 239 +~;
#X obj 315 270 min~ 4;
#X obj 315 296 max~ 0, f 9;
#X obj 318 140 pack f 50;
#X obj 318 164 line 5;
#X obj 384 79 r line_time, f 12;
#X obj 301 423 outlet~ res;
#X obj 58 50 inlet~ mod;
#X msg 181 165 1;
#X obj 89 231 sig~;
#X obj 117 265 -~;
#X obj 214 72 loadbang;
#X obj 127 421 tester;
#X obj 55 150 clip~ -1 1;
#X obj 119 291 -~ 1;
#X obj 118 314 *~ 2;
#X connect 0 0 7 0;
#X connect 1 0 0 0;
#X connect 2 0 1 0;
#X connect 3 0 4 1;
#X connect 4 0 5 0;
#X connect 5 0 6 0;
#X connect 6 0 10 0;
#X connect 7 0 8 0;
#X connect 8 0 3 0;
#X connect 9 0 7 1;
#X connect 11 0 17 0;
#X connect 12 0 13 0;
#X connect 13 0 14 0;
#X connect 14 0 18 0;
#X connect 15 0 12 0;
#X connect 17 0 14 1;
#X connect 18 0 19 0;
#X connect 19 0 4 0;
#X restore 96 439 pd reso_calc_LP;
#X obj 86 302 catch~ filter_res;
#X text 95 275 q modulation;
#N canvas 20 429 530 350 mod_q_nonsig 0;
#X obj 339 59 inlet~;
#X obj 146 45 inlet;
#X obj 194 163 + 0;
#X obj 173 233 outlet;
#X floatatom 298 235 5 0 0 0 - - -, f 5;
#X obj 221 109 t b f;
#X obj 177 201 clip 0 1;
#X obj 340 89 str_unsig~ 20;
#X connect 0 0 7 0;
#X connect 1 0 2 0;
#X connect 2 0 6 0;
#X connect 2 0 4 0;
#X connect 5 0 2 0;
#X connect 5 1 2 1;
#X connect 6 0 3 0;
#X connect 7 0 5 0;
#X restore 39 399 pd mod_q_nonsig;
#X obj 558 170 +;
#X obj 728 146 catch~ filter-type;
#X obj 729 174 unsig~ 20;
#X obj 731 213 t b f;
#X text 724 121 filter type mod;
#X obj 323 274 +;
#X obj 376 149 unsig~ 20;
#X obj 375 206 t b f;
#X obj 375 121 catch~ low-drive;
#X text 368 107 low drive moulation;
#X obj 971 304 catch~ mix-filter;
#X text 971 278 filter mix modulation;
#X obj 377 179 * 5;
#X obj 783 407 +~;
#X obj 276 29 spigot;
#X obj 366 34 spigot;
#X obj 453 39 spigot;
#X obj 523 44 spigot;
#X obj 630 59 spigot;
#X obj 235 103 tgl 15 0 empty empty ctrl 17 7 0 10 -262144 -1 -1 1
1;
#X msg 127 42 1;
#X floatatom 542 125 5 0 0 0 - - -, f 5;
#X msg 907 71 set \$1;
#X obj 963 65 store filter-ctrl;
#N canvas 39 389 1302 441 osc_receive 0;
#X obj 215 166 route control;
#X obj 214 188 route x;
#X floatatom 215 216 5 0 0 0 - - -, f 5;
#X obj 212 256 outlet control;
#X floatatom 357 246 5 0 0 0 - - -, f 5;
#X obj 358 285 outlet level;
#X floatatom 557 244 5 0 0 0 - - -, f 5;
#X floatatom 716 225 5 0 0 0 - - -, f 5;
#X obj 715 275 outlet lvl_link;
#X obj 558 283 outlet wave;
#X obj 695 -4 r Instruments;
#X obj 556 216 route x;
#X obj 696 45 route Filter, f 13;
#X obj 358 169 osc-input Frequency, f 23;
#X obj 357 190 route map;
#X obj 553 170 osc-input Resonance;
#X obj 722 174 osc-input Type;
#X obj 721 195 route map;
#X floatatom 846 227 5 0 0 0 - - -, f 5;
#X obj 845 277 outlet lvl_link;
#X obj 851 197 route map;
#X obj 852 176 osc-input LowDrive;
#X floatatom 998 230 5 0 0 0 - - -, f 5;
#X obj 997 280 outlet lvl_link;
#X obj 1004 179 osc-input FilterMix;
#X obj 1003 200 route x;
#X connect 0 0 1 0;
#X connect 1 0 2 0;
#X connect 2 0 3 0;
#X connect 4 0 5 0;
#X connect 6 0 9 0;
#X connect 7 0 8 0;
#X connect 10 0 12 0;
#X connect 11 0 6 0;
#X connect 12 0 0 0;
#X connect 12 0 13 0;
#X connect 12 0 15 0;
#X connect 12 0 16 0;
#X connect 12 0 21 0;
#X connect 12 0 24 0;
#X connect 13 0 14 0;
#X connect 14 0 4 0;
#X connect 15 0 11 0;
#X connect 16 0 17 0;
#X connect 17 0 7 0;
#X connect 18 0 19 0;
#X connect 20 0 18 0;
#X connect 21 0 20 0;
#X connect 22 0 23 0;
#X connect 24 0 25 0;
#X connect 25 0 22 0;
#X restore -393 -49 pd osc_receive;
#N canvas 153 341 1324 639 osc_send 0;
#X obj -51 30 inlet control;
#X obj 64 488 s send_granulate;
#X obj -60 197 oscformat Instruments Filter control x;
#X obj 199 285 oscformat Instruments Filter Frequency x;
#X obj 530 347 oscformat Instruments Filter Type x;
#X obj 639 368 oscformat Instruments Filter LowDrive x;
#X obj 804 415 oscformat Instruments Filter FilterMix x;
#X obj 278 40 inlet Frequency;
#X obj 264 113 osc-output Frequency;
#X obj 436 302 oscformat Instruments Filter Resonance x;
#X obj 389 90 osc-output Resonance;
#X obj 391 39 inlet Resonance;
#X obj 543 65 osc-output Type;
#X obj 659 75 osc-output LowDrive;
#X obj 650 41 inlet LowDrive;
#X obj 534 31 inlet Type;
#X obj 824 80 osc-output FilterMix;
#X obj 815 46 inlet FilterMix;
#X obj 268 153 / 127;
#X obj 569 179 * 0.5;
#X obj 653 150 - 5;
#X obj 665 187 / 4.7, f 28;
#X connect 0 0 2 0;
#X connect 2 0 1 0;
#X connect 3 0 1 0;
#X connect 4 0 1 0;
#X connect 5 0 1 0;
#X connect 6 0 1 0;
#X connect 7 0 8 0;
#X connect 8 0 18 0;
#X connect 9 0 1 0;
#X connect 10 0 9 0;
#X connect 11 0 10 0;
#X connect 12 0 19 0;
#X connect 13 0 20 0;
#X connect 14 0 13 0;
#X connect 15 0 12 0;
#X connect 16 0 6 0;
#X connect 17 0 16 0;
#X connect 18 0 3 0;
#X connect 19 0 4 0;
#X connect 20 0 21 0;
#X connect 21 0 5 0;
#X restore -475 294 pd osc_send, f 22;
#X connect 0 0 36 0;
#X connect 1 0 6 0;
#X connect 2 0 5 0;
#X connect 3 0 4 0;
#X connect 4 0 15 0;
#X connect 5 0 13 0;
#X connect 6 0 11 0;
#X connect 7 0 44 0;
#X connect 7 0 74 0;
#X connect 7 0 99 3;
#X connect 8 0 9 0;
#X connect 9 0 87 0;
#X connect 10 0 31 0;
#X connect 11 0 12 0;
#X connect 12 0 10 1;
#X connect 12 0 66 1;
#X connect 13 0 14 0;
#X connect 14 0 17 1;
#X connect 14 0 67 1;
#X connect 15 0 16 0;
#X connect 16 0 18 1;
#X connect 16 0 68 1;
#X connect 17 0 31 0;
#X connect 18 0 31 0;
#X connect 19 0 17 0;
#X connect 20 0 19 0;
#X connect 21 0 10 0;
#X connect 22 0 23 0;
#X connect 22 0 25 0;
#X connect 23 0 28 0;
#X connect 24 0 22 0;
#X connect 24 0 42 0;
#X connect 24 0 99 1;
#X connect 26 0 43 0;
#X connect 26 0 70 1;
#X connect 26 0 73 0;
#X connect 26 0 99 2;
#X connect 27 0 45 0;
#X connect 27 0 79 0;
#X connect 27 0 99 4;
#X connect 28 0 52 0;
#X connect 28 0 54 0;
#X connect 29 0 8 0;
#X connect 29 0 46 0;
#X connect 29 0 99 5;
#X connect 30 0 48 0;
#X connect 31 0 30 1;
#X connect 32 0 33 0;
#X connect 32 0 34 0;
#X connect 32 0 35 0;
#X connect 32 0 94 0;
#X connect 33 0 27 0;
#X connect 34 0 7 0;
#X connect 34 0 26 0;
#X connect 35 0 24 0;
#X connect 36 0 18 0;
#X connect 37 0 88 0;
#X connect 38 0 89 0;
#X connect 39 0 90 0;
#X connect 40 0 91 0;
#X connect 41 0 92 0;
#X connect 47 0 0 0;
#X connect 47 0 20 0;
#X connect 47 0 21 0;
#X connect 47 0 30 0;
#X connect 50 0 8 1;
#X connect 50 0 15 1;
#X connect 50 0 13 1;
#X connect 50 0 11 1;
#X connect 51 0 23 1;
#X connect 52 0 53 0;
#X connect 53 0 57 0;
#X connect 54 0 55 0;
#X connect 55 0 52 1;
#X connect 56 0 54 1;
#X connect 57 0 21 1;
#X connect 57 0 20 1;
#X connect 57 0 0 1;
#X connect 57 0 61 1;
#X connect 57 0 60 1;
#X connect 57 0 58 1;
#X connect 58 0 63 0;
#X connect 59 0 67 0;
#X connect 60 0 59 0;
#X connect 61 0 66 0;
#X connect 62 0 65 0;
#X connect 63 0 68 0;
#X connect 64 0 58 0;
#X connect 64 0 60 0;
#X connect 64 0 61 0;
#X connect 64 0 62 0;
#X connect 66 0 69 0;
#X connect 67 0 69 0;
#X connect 68 0 69 0;
#X connect 69 0 62 1;
#X connect 70 0 21 2;
#X connect 70 0 61 2;
#X connect 71 0 70 0;
#X connect 71 0 73 1;
#X connect 73 0 20 2;
#X connect 73 0 60 2;
#X connect 74 0 3 0;
#X connect 74 0 2 0;
#X connect 74 0 1 0;
#X connect 75 0 76 0;
#X connect 76 0 77 0;
#X connect 77 0 74 0;
#X connect 77 1 74 1;
#X connect 79 0 61 3;
#X connect 79 0 21 3;
#X connect 80 0 86 0;
#X connect 81 0 79 0;
#X connect 81 1 79 1;
#X connect 82 0 80 0;
#X connect 84 0 87 1;
#X connect 86 0 81 0;
#X connect 87 0 30 2;
#X connect 87 0 62 2;
#X connect 88 0 24 0;
#X connect 89 0 26 0;
#X connect 90 0 7 0;
#X connect 91 0 27 0;
#X connect 92 0 29 0;
#X connect 93 0 95 0;
#X connect 94 0 93 0;
#X connect 95 0 96 0;
#X connect 95 0 97 0;
#X connect 95 0 88 1;
#X connect 95 0 89 1;
#X connect 95 0 90 1;
#X connect 95 0 91 1;
#X connect 95 0 92 1;
#X connect 95 0 99 0;
#X connect 96 0 93 0;
#X connect 97 0 95 0;
#X connect 98 0 93 0;
#X connect 98 1 24 0;
#X connect 98 2 26 0;
#X connect 98 3 7 0;
#X connect 98 4 27 0;
#X connect 98 5 29 0;
#X coords 0 -1 1 1 200 100 1 100 100;
