#N canvas 223 217 403 367 10;
#X obj 87 103 snapshot~;
#X floatatom 146 173 5 0 0 2 sig~ - -, f 5;
#X obj 106 57 tgl 15 0 empty empty empty 17 7 0 10 -262144 -1 -1 1
1;
#X obj 100 82 metro 20;
#X obj 65 18 inlet~;
#X obj 192 48 loadbang;
#X msg 192 78 1;
#X floatatom 255 174 5 0 0 2 non-sig - -, f 5;
#X obj 261 35 inlet;
#X obj 41 214 outlet, f 7;
#N canvas 0 22 450 278 (subpatch) 0;
#X array array-\$0 100 float 2;
#X coords 0 1 100 -1 200 140 2 0 0;
#X restore 88 194 graph;
#X obj 207 115 tabwrite~ array-\$0;
#X obj 343 91 *~;
#X floatatom 182 173 5 0 0 2 mult - -, f 5;
#X floatatom 218 173 5 0 0 2 freq - -, f 5;
#X msg 222 78 20;
#X connect 0 0 1 0;
#X connect 0 0 9 0;
#X connect 2 0 3 0;
#X connect 3 0 0 0;
#X connect 3 0 11 0;
#X connect 4 0 0 0;
#X connect 4 0 12 0;
#X connect 5 0 6 0;
#X connect 5 0 15 0;
#X connect 6 0 2 0;
#X connect 6 0 13 0;
#X connect 8 0 7 0;
#X connect 12 0 11 0;
#X connect 13 0 12 1;
#X connect 14 0 3 1;
#X connect 15 0 3 1;
#X connect 15 0 14 0;
#X coords 0 367 1 366 220 200 0;
