#N canvas 329 72 351 435 10;
#X obj 65 49 r a\$1;
#X obj 65 84 print a\$1;
#X obj 67 116 r b\$1;
#X obj 65 145 print b\$1;
#X obj 69 188 r c\$1;
#X obj 64 223 print c\$1;
#X obj 66 289 print d\$1;
#X obj 68 260 r d\$1;
#X obj 70 332 r e\$1;
#X obj 64 367 print e\$1;
#X connect 0 0 1 0;
#X connect 2 0 3 0;
#X connect 4 0 5 0;
#X connect 7 0 6 0;
#X connect 8 0 9 0;
