#N canvas 145 59 865 664 10;
#X obj 41 62 cnv 15 500 25 empty text_field gudok2 20 12 0 25 -233017
-66577 0;
#X obj 359 230 keyname;
#X symbolatom 398 296 10 0 0 0 - - -, f 10;
#X obj 359 321 symbol;
#X obj 359 298 sel 1;
#X obj 191 191 bng 15 250 50 0 empty text_input_clear x 5 7 0 10 -262144
-1 -1;
#X obj 99 404 list prepend;
#X obj 96 529 list tosymbol;
#X obj 360 345 sel BackSpace;
#X obj 391 504 list length;
#X msg 60 356 95;
#X obj 60 303 moses 33;
#X obj 59 331 sel 32;
#X obj 307 496 list split;
#X obj 380 444 list prepend;
#X floatatom 390 534 5 0 0 0 - - -, f 5;
#X obj 393 569 f;
#X obj 360 370 t b b;
#X obj 456 568 - 1;
#X obj 307 471 list prepend;
#X obj 96 584 s text_field;
#X msg 96 556 label \$1;
#X obj 59 231 key;
#X obj 139 372 t b b;
#X text 166 172 clear trig;
#X text 319 208 bachspace chain;
#X obj 58 266 spigot;
#X text 54 209 key input;
#X text 120 609 send to canvas label;
#X obj 357 264 spigot;
#X obj 550 212 inlet text input control;
#X obj 337 158 tgl 15 0 empty empty test 17 7 0 10 -262144 -1 -1 0
1;
#X obj 17 607 outlet text;
#X obj 288 115 sel 1;
#X connect 1 0 29 0;
#X connect 1 1 2 0;
#X connect 2 0 3 1;
#X connect 3 0 8 0;
#X connect 4 0 3 0;
#X connect 5 0 23 0;
#X connect 6 0 14 0;
#X connect 6 0 7 0;
#X connect 7 0 21 0;
#X connect 7 0 32 0;
#X connect 8 0 17 0;
#X connect 9 0 15 0;
#X connect 10 0 6 0;
#X connect 11 0 12 0;
#X connect 11 1 6 0;
#X connect 12 0 10 0;
#X connect 13 0 7 0;
#X connect 13 0 14 0;
#X connect 14 0 6 1;
#X connect 14 0 9 0;
#X connect 14 0 19 1;
#X connect 15 0 13 1;
#X connect 15 0 16 1;
#X connect 16 0 18 0;
#X connect 17 0 19 0;
#X connect 17 1 16 0;
#X connect 18 0 13 1;
#X connect 19 0 13 0;
#X connect 21 0 20 0;
#X connect 22 0 26 0;
#X connect 23 0 6 0;
#X connect 23 1 6 1;
#X connect 26 0 11 0;
#X connect 29 0 4 0;
#X connect 30 0 29 1;
#X connect 30 0 26 1;
#X connect 30 0 33 0;
#X connect 31 0 26 1;
#X connect 31 0 29 1;
#X connect 33 0 5 0;
