#N canvas 266 75 1343 664 10;
#X declare -path wavetables;
#X obj 87 95 aniosc 1;
#X obj 532 22 declare -path wavetables;
#X obj 77 420 dac~;
#N canvas 0 22 450 300 (subpatch) 0;
#X array wave-1 32768 float 0;
#X coords 0 1.02 32767 -1.02 258 130 1 0 0;
#X restore 885 169 graph;
#N canvas 0 22 450 300 (subpatch) 0;
#X array wave-2 32768 float 0;
#X coords 0 1.02 32767 -1.02 258 130 1 0 0;
#X restore 885 327 graph;
#X obj 275 95 sine;
#X obj 184 95 aniosc 2;
#X obj 322 95 sine;
#X connect 0 0 2 0;
#X connect 0 0 2 1;
#X connect 5 0 2 0;
#X connect 5 0 2 1;
#X connect 6 0 2 0;
#X connect 6 0 2 1;
#X connect 7 0 2 0;
#X connect 7 0 2 1;
