#N canvas 657 100 445 442 10;
#X obj 14 15 r \$1;
#X obj 59 17 r \$2;
#X obj 252 23 r \$4;
#X obj 291 22 r \$3;
#X obj 84 179 ==;
#X obj 251 182 ==;
#X obj 69 153 >=;
#X obj 279 157 <=;
#X obj 144 40 r XY;
#X obj 144 69 unpack, f 10;
#X obj 167 217 +;
#X obj 84 110 t f f;
#X obj 242 112 t f f;
#X floatatom 14 37 5 0 0 0 - - -, f 5;
#X floatatom 59 39 5 0 0 0 - - -, f 5;
#X floatatom 252 45 5 0 0 0 - - -, f 5;
#X floatatom 291 44 5 0 0 0 - - -, f 5;
#X obj 144 321 spigot;
#X obj 178 365 pack;
#X obj 167 245 == 2;
#X obj 236 156 >=;
#X obj 112 154 <=;
#X obj 160 405 s \$5;
#X connect 0 0 6 1;
#X connect 0 0 13 0;
#X connect 1 0 14 0;
#X connect 1 0 21 1;
#X connect 2 0 15 0;
#X connect 2 0 20 1;
#X connect 3 0 7 1;
#X connect 3 0 16 0;
#X connect 4 0 10 0;
#X connect 5 0 10 1;
#X connect 6 0 4 0;
#X connect 7 0 5 1;
#X connect 8 0 9 0;
#X connect 9 0 11 0;
#X connect 9 0 17 0;
#X connect 9 1 12 0;
#X connect 9 1 18 1;
#X connect 10 0 19 0;
#X connect 11 0 6 0;
#X connect 11 1 21 0;
#X connect 12 0 20 0;
#X connect 12 1 7 0;
#X connect 17 0 18 0;
#X connect 18 0 22 0;
#X connect 19 0 17 1;
#X connect 20 0 5 0;
#X connect 21 0 4 1;
