#N canvas 575 140 780 567 10;
#X obj 138 314 s Q11-\$1;
#X obj 114 279 s Q12-\$1;
#X obj 510 286 s Q22-\$1;
#X obj 510 319 s Q21-\$1;
#X obj 296 73 r \$1;
#X obj 207 163 outlet;
#X obj 261 163 outlet;
#X obj 317 164 outlet;
#X obj 371 164 outlet;
#X obj 455 224 inlet;
#X obj 339 224 inlet;
#X obj 202 227 inlet;
#X obj 58 229 inlet;
#X obj 661 117 r XY;
#X obj 236 458 s data-\$1;
#X obj 237 426 pack f f f f f f;
#X obj 650 173 unpack;
#X obj 296 110 t b b b b l;
#X connect 4 0 17 0;
#X connect 9 0 3 0;
#X connect 9 0 15 3;
#X connect 10 0 2 0;
#X connect 10 0 15 2;
#X connect 11 0 1 0;
#X connect 11 0 15 1;
#X connect 12 0 0 0;
#X connect 12 0 15 0;
#X connect 13 0 16 0;
#X connect 15 0 14 0;
#X connect 16 0 15 4;
#X connect 16 1 15 5;
#X connect 17 0 5 0;
#X connect 17 1 6 0;
#X connect 17 2 7 0;
#X connect 17 3 8 0;
